<?xml version="1.0" encoding="UTF-8" standalone="no"?>
<!-- Created with Inkscape (http://www.inkscape.org/) -->

<svg
   xmlns:dc="http://purl.org/dc/elements/1.1/"
   xmlns:cc="http://creativecommons.org/ns#"
   xmlns:rdf="http://www.w3.org/1999/02/22-rdf-syntax-ns#"
   xmlns:svg="http://www.w3.org/2000/svg"
   xmlns="http://www.w3.org/2000/svg"
   xmlns:xlink="http://www.w3.org/1999/xlink"
   xmlns:sodipodi="http://sodipodi.sourceforge.net/DTD/sodipodi-0.dtd"
   xmlns:inkscape="http://www.inkscape.org/namespaces/inkscape"
   width="1000"
   height="785.57599"
   viewBox="0 0 999.99995 785.57595"
   id="svg2"
   version="1.1"
   inkscape:version="0.91 r13725"
   sodipodi:docname="20th Century Fox 1982 Inverted.svg">
  <defs
     id="defs4">
    <linearGradient
       id="linearGradient7416">
      <stop
         style="stop-color:#009a4f;stop-opacity:1"
         offset="0"
         id="stop7418" />
      <stop
         id="stop7426"
         offset="0.49778762"
         style="stop-color:#009c54;stop-opacity:1" />
      <stop
         id="stop7424"
         offset="0.7920354"
         style="stop-color:#78c79e;stop-opacity:1" />
      <stop
         style="stop-color:#9ddabc;stop-opacity:1"
         offset="1"
         id="stop7420" />
    </linearGradient>
    <linearGradient
       id="linearGradient7404">
      <stop
         style="stop-color:#f6771b;stop-opacity:1"
         offset="0"
         id="stop7406" />
      <stop
         id="stop7414"
         offset="0.49997258"
         style="stop-color:#f37720;stop-opacity:1" />
      <stop
         id="stop7412"
         offset="0.7518242"
         style="stop-color:#f6ab74;stop-opacity:1" />
      <stop
         style="stop-color:#fdcca5;stop-opacity:1"
         offset="1"
         id="stop7408" />
    </linearGradient>
    <linearGradient
       id="linearGradient7394">
      <stop
         style="stop-color:#0095ae;stop-opacity:1"
         offset="0"
         id="stop7396" />
      <stop
         id="stop7402"
         offset="0.5"
         style="stop-color:#0292ad;stop-opacity:1" />
      <stop
         style="stop-color:#c2e3e8;stop-opacity:1"
         offset="1"
         id="stop7398" />
    </linearGradient>
    <linearGradient
       id="linearGradient5342">
      <stop
         style="stop-color:#597a9a;stop-opacity:1"
         offset="0"
         id="stop5344" />
      <stop
         id="stop5350"
         offset="0.5"
         style="stop-color:#274563;stop-opacity:1" />
      <stop
         style="stop-color:#193451;stop-opacity:1"
         offset="1"
         id="stop5346" />
    </linearGradient>
    <clipPath
       clipPathUnits="userSpaceOnUse"
       id="clipPath5043">
      <path
         style="clip-rule:evenodd"
         d="m 0,9.1553e-5 720,0 0,404.999998447 -720,0 L 0,9.1553e-5 Z"
         id="path5045"
         inkscape:connector-curvature="0" />
    </clipPath>
    <clipPath
       clipPathUnits="userSpaceOnUse"
       id="clipPath5053">
      <path
         style="clip-rule:evenodd"
         d="m 0,1.2207e-4 720,0 0,404.99999793 -720,0 L 0,1.2207e-4 Z"
         id="path5055"
         inkscape:connector-curvature="0" />
    </clipPath>
    <clipPath
       clipPathUnits="userSpaceOnUse"
       id="clipPath5063">
      <path
         style="clip-rule:evenodd"
         d="m -1.9684e-5,1.5259e-4 719.999999684,0 0,404.99999741 -719.999999684,0 0,-404.99999741 z"
         id="path5065"
         inkscape:connector-curvature="0" />
    </clipPath>
    <clipPath
       clipPathUnits="userSpaceOnUse"
       id="clipPath5075">
      <path
         style="clip-rule:evenodd"
         d="M -2.512e-6,1.2207e-4 720,1.2207e-4 720,405.00012 l -720.000002512,0 0,-404.99999793 z"
         id="path5077"
         inkscape:connector-curvature="0" />
    </clipPath>
    <clipPath
       clipPathUnits="userSpaceOnUse"
       id="clipPath5085">
      <path
         d="m 0,0 3791.7,0 0,1028.64 L 0,1028.64 0,0 Z"
         id="path5087"
         inkscape:connector-curvature="0" />
    </clipPath>
    <clipPath
       clipPathUnits="userSpaceOnUse"
       id="clipPath5135">
      <path
         style="clip-rule:evenodd"
         d="M 1.0729e-5,0 720.00001,0 l 0,405 -719.999999271,0 0,-405 z"
         id="path5137"
         inkscape:connector-curvature="0" />
    </clipPath>
    <clipPath
       clipPathUnits="userSpaceOnUse"
       id="clipPath5147">
      <path
         style="clip-rule:evenodd"
         d="m -5.77e-6,1.2207e-4 719.99999577,0 0,404.99999793 -719.99999577,0 0,-404.99999793 z"
         id="path5149"
         inkscape:connector-curvature="0" />
    </clipPath>
    <clipPath
       clipPathUnits="userSpaceOnUse"
       id="clipPath5159">
      <path
         style="clip-rule:evenodd"
         d="M 1.0729e-5,0 720.00001,0 l 0,405 -719.999999271,0 0,-405 z"
         id="path5161"
         inkscape:connector-curvature="0" />
    </clipPath>
    <clipPath
       clipPathUnits="userSpaceOnUse"
       id="clipPath5171">
      <path
         style="clip-rule:evenodd"
         d="M 1.0729e-5,0 720.00001,0 l 0,405 -719.999999271,0 0,-405 z"
         id="path5173"
         inkscape:connector-curvature="0" />
    </clipPath>
    <clipPath
       clipPathUnits="userSpaceOnUse"
       id="clipPath5183">
      <path
         style="clip-rule:evenodd"
         d="M 1.0729e-5,0 720.00001,0 l 0,405 -719.999999271,0 0,-405 z"
         id="path5185"
         inkscape:connector-curvature="0" />
    </clipPath>
    <clipPath
       clipPathUnits="userSpaceOnUse"
       id="clipPath5195">
      <path
         style="clip-rule:evenodd"
         d="M 1.0729e-5,0 720.00001,0 l 0,405 -719.999999271,0 0,-405 z"
         id="path5197"
         inkscape:connector-curvature="0" />
    </clipPath>
    <clipPath
       clipPathUnits="userSpaceOnUse"
       id="clipPath5207">
      <path
         style="clip-rule:evenodd"
         d="M 1.0729e-5,0 720.00001,0 l 0,405 -719.999999271,0 0,-405 z"
         id="path5209"
         inkscape:connector-curvature="0" />
    </clipPath>
    <clipPath
       clipPathUnits="userSpaceOnUse"
       id="clipPath5598">
      <path
         inkscape:connector-curvature="0"
         d="m 209.92,127.147 33.493,0 0,30.434 -33.493,0 0,-30.434 z"
         id="path5600" />
    </clipPath>
    <linearGradient
       x1="0"
       y1="0"
       x2="1"
       y2="0"
       gradientUnits="userSpaceOnUse"
       gradientTransform="matrix(3.0743256,-11.543106,11.543106,3.0743256,142.04904,99.773071)"
       spreadMethod="pad"
       id="linearGradient6404">
      <stop
         style="stop-opacity:1;stop-color:#2c5c9a"
         offset="0"
         id="stop6406" />
      <stop
         style="stop-opacity:1;stop-color:#346ebd"
         offset="1"
         id="stop6408" />
    </linearGradient>
    <linearGradient
       x1="0"
       y1="0"
       x2="1"
       y2="0"
       gradientUnits="userSpaceOnUse"
       gradientTransform="matrix(3.9797668,-5.6990662,5.6990662,3.9797668,147.07504,97.937103)"
       spreadMethod="pad"
       id="linearGradient6384">
      <stop
         style="stop-opacity:1;stop-color:#2c5c9a"
         offset="0"
         id="stop6386" />
      <stop
         style="stop-opacity:1;stop-color:#346ebd"
         offset="1"
         id="stop6388" />
    </linearGradient>
    <linearGradient
       x1="0"
       y1="0"
       x2="1"
       y2="0"
       gradientUnits="userSpaceOnUse"
       gradientTransform="matrix(-7.8371735,-7.63e-5,7.63e-5,-7.8371735,154.00005,99.41214)"
       spreadMethod="pad"
       id="linearGradient6364">
      <stop
         style="stop-opacity:1;stop-color:#2c5c9a"
         offset="0"
         id="stop6366" />
      <stop
         style="stop-opacity:1;stop-color:#346ebd"
         offset="1"
         id="stop6368" />
    </linearGradient>
    <linearGradient
       x1="0"
       y1="0"
       x2="1"
       y2="0"
       gradientUnits="userSpaceOnUse"
       gradientTransform="matrix(8.5058899,1.364563,-1.364563,8.5058899,144.93704,103.66214)"
       spreadMethod="pad"
       id="linearGradient6344">
      <stop
         style="stop-opacity:1;stop-color:#2c5c9a"
         offset="0"
         id="stop6346" />
      <stop
         style="stop-opacity:1;stop-color:#346ebd"
         offset="1"
         id="stop6348" />
    </linearGradient>
    <linearGradient
       x1="0"
       y1="0"
       x2="1"
       y2="0"
       gradientUnits="userSpaceOnUse"
       gradientTransform="matrix(11.657105,-7.0923462,7.0923462,11.657105,141.70604,101.92212)"
       spreadMethod="pad"
       id="linearGradient6322">
      <stop
         style="stop-opacity:1;stop-color:#81d5f6"
         offset="0"
         id="stop6324" />
      <stop
         style="stop-opacity:1;stop-color:#56c5f2"
         offset="0.327377"
         id="stop6326" />
      <stop
         style="stop-opacity:1;stop-color:#346fbf"
         offset="1"
         id="stop6328" />
    </linearGradient>
    <linearGradient
       x1="0"
       y1="0"
       x2="1"
       y2="0"
       gradientUnits="userSpaceOnUse"
       gradientTransform="matrix(-3.0742035,-11.542694,-11.542694,3.0742035,139.22404,99.773071)"
       spreadMethod="pad"
       id="linearGradient6300">
      <stop
         style="stop-opacity:1;stop-color:#226b33"
         offset="0"
         id="stop6302" />
      <stop
         style="stop-opacity:1;stop-color:#2a8c3d"
         offset="0.993866"
         id="stop6304" />
      <stop
         style="stop-opacity:1;stop-color:#2a8c3d"
         offset="1"
         id="stop6306" />
    </linearGradient>
    <linearGradient
       x1="0"
       y1="0"
       x2="1"
       y2="0"
       gradientUnits="userSpaceOnUse"
       gradientTransform="matrix(-3.9797668,-5.6990662,-5.6990662,3.9797668,134.20303,97.937103)"
       spreadMethod="pad"
       id="linearGradient6278">
      <stop
         style="stop-opacity:1;stop-color:#226b33"
         offset="0"
         id="stop6280" />
      <stop
         style="stop-opacity:1;stop-color:#2a8c3d"
         offset="0.993866"
         id="stop6282" />
      <stop
         style="stop-opacity:1;stop-color:#2a8c3d"
         offset="1"
         id="stop6284" />
    </linearGradient>
    <linearGradient
       x1="0"
       y1="0"
       x2="1"
       y2="0"
       gradientUnits="userSpaceOnUse"
       gradientTransform="matrix(7.8371735,-7.63e-5,-7.63e-5,-7.8371735,127.27605,99.41214)"
       spreadMethod="pad"
       id="linearGradient6256">
      <stop
         style="stop-opacity:1;stop-color:#226b33"
         offset="0"
         id="stop6258" />
      <stop
         style="stop-opacity:1;stop-color:#2a8c3d"
         offset="0.993866"
         id="stop6260" />
      <stop
         style="stop-opacity:1;stop-color:#2a8c3d"
         offset="1"
         id="stop6262" />
    </linearGradient>
    <linearGradient
       x1="0"
       y1="0"
       x2="1"
       y2="0"
       gradientUnits="userSpaceOnUse"
       gradientTransform="matrix(-8.5000458,1.3636322,1.3636322,8.5000458,136.34004,103.66107)"
       spreadMethod="pad"
       id="linearGradient6234">
      <stop
         style="stop-opacity:1;stop-color:#226b33"
         offset="0"
         id="stop6236" />
      <stop
         style="stop-opacity:1;stop-color:#2a8c3d"
         offset="0.993866"
         id="stop6238" />
      <stop
         style="stop-opacity:1;stop-color:#2a8c3d"
         offset="1"
         id="stop6240" />
    </linearGradient>
    <linearGradient
       x1="0"
       y1="0"
       x2="1"
       y2="0"
       gradientUnits="userSpaceOnUse"
       gradientTransform="matrix(-11.654892,-7.0910034,-7.0910034,11.654907,139.57104,101.92212)"
       spreadMethod="pad"
       id="linearGradient6208">
      <stop
         style="stop-opacity:1;stop-color:#b2de6f"
         offset="0"
         id="stop6210" />
      <stop
         style="stop-opacity:1;stop-color:#68c64c"
         offset="0.5"
         id="stop6212" />
      <stop
         style="stop-opacity:1;stop-color:#68c64c"
         offset="0.5"
         id="stop6214" />
      <stop
         style="stop-opacity:1;stop-color:#2d9c40"
         offset="0.899994"
         id="stop6216" />
      <stop
         style="stop-opacity:1;stop-color:#2d9c40"
         offset="1"
         id="stop6218" />
    </linearGradient>
    <linearGradient
       x1="0"
       y1="0"
       x2="1"
       y2="0"
       gradientUnits="userSpaceOnUse"
       gradientTransform="matrix(0,9.6953125,9.6953125,0,137.86005,104.90308)"
       spreadMethod="pad"
       id="linearGradient6160">
      <stop
         style="stop-opacity:1;stop-color:#aa3720"
         offset="0"
         id="stop6162" />
      <stop
         style="stop-opacity:1;stop-color:#e24f1f"
         offset="0.165649"
         id="stop6164" />
      <stop
         style="stop-opacity:1;stop-color:#e24f1f"
         offset="0.165649"
         id="stop6166" />
      <stop
         style="stop-opacity:1;stop-color:#f9b118"
         offset="1"
         id="stop6168" />
    </linearGradient>
    <linearGradient
       x1="0"
       y1="0"
       x2="1"
       y2="0"
       gradientUnits="userSpaceOnUse"
       gradientTransform="matrix(0,9.6953125,9.6953125,0,143.41904,104.90308)"
       spreadMethod="pad"
       id="linearGradient6136">
      <stop
         style="stop-opacity:1;stop-color:#aa3720"
         offset="0"
         id="stop6138" />
      <stop
         style="stop-opacity:1;stop-color:#e24f1f"
         offset="0.165649"
         id="stop6140" />
      <stop
         style="stop-opacity:1;stop-color:#e24f1f"
         offset="0.165649"
         id="stop6142" />
      <stop
         style="stop-opacity:1;stop-color:#f9b118"
         offset="1"
         id="stop6144" />
    </linearGradient>
    <linearGradient
       x1="0"
       y1="0"
       x2="1"
       y2="0"
       gradientUnits="userSpaceOnUse"
       gradientTransform="matrix(0,9.75,9.75,0,140.63704,104.87613)"
       spreadMethod="pad"
       id="linearGradient6184">
      <stop
         style="stop-opacity:1;stop-color:#f89d17"
         offset="0"
         id="stop6186" />
      <stop
         style="stop-opacity:1;stop-color:#e5501e"
         offset="0.877304"
         id="stop6188" />
      <stop
         style="stop-opacity:1;stop-color:#e5501e"
         offset="0.877304"
         id="stop6190" />
      <stop
         style="stop-opacity:1;stop-color:#e5501e"
         offset="1"
         id="stop6192" />
    </linearGradient>
    <clipPath
       clipPathUnits="userSpaceOnUse"
       id="clipPath6030">
      <path
         inkscape:connector-curvature="0"
         d="m 0,0 657.638,0 0,657.638 L 0,657.638 0,0 Z"
         id="path6032" />
    </clipPath>
    <linearGradient
       inkscape:collect="always"
       xlink:href="#linearGradient7394"
       id="linearGradient7400"
       x1="-0.37990445"
       y1="5.2014966"
       x2="77.811218"
       y2="5.2014966"
       gradientUnits="userSpaceOnUse" />
    <linearGradient
       inkscape:collect="always"
       xlink:href="#linearGradient7404"
       id="linearGradient7410"
       x1="12.871644"
       y1="0.027160637"
       x2="12.871644"
       y2="-74.015648"
       gradientUnits="userSpaceOnUse" />
    <linearGradient
       inkscape:collect="always"
       xlink:href="#linearGradient7416"
       id="linearGradient7422"
       x1="0.031399351"
       y1="-9.1988573"
       x2="77.493614"
       y2="-9.1988573"
       gradientUnits="userSpaceOnUse" />
    <clipPath
       clipPathUnits="userSpaceOnUse"
       id="clipPath7888">
      <path
         inkscape:connector-curvature="0"
         d="m 396.141,186.52 170.788,0 0,66.472 -170.788,0 0,-66.472 z"
         id="path7890" />
    </clipPath>
    <filter
       style="color-interpolation-filters:sRGB"
       id="filter3792"
       inkscape:label="Invert"
       x="0"
       y="0"
       width="1"
       height="1"
       inkscape:menu="Color"
       inkscape:menu-tooltip="Invert colors">
      <feColorMatrix
         id="feColorMatrix3794"
         type="saturate"
         values="1"
         result="fbSourceGraphic" />
      <feColorMatrix
         id="feColorMatrix3796"
         in="fbSourceGraphic"
         values="-1 0 0 0 1 0 -1 0 0 1 0 0 -1 0 1 0 0 0 1 0 " />
    </filter>
    <pattern
       id="EMFhbasepattern"
       patternUnits="userSpaceOnUse"
       width="6"
       height="6"
       x="0"
       y="0" />
    <pattern
       y="0"
       x="0"
       height="6"
       width="6"
       patternUnits="userSpaceOnUse"
       id="EMFhbasepattern-5" />
    <pattern
       y="0"
       x="0"
       height="6"
       width="6"
       patternUnits="userSpaceOnUse"
       id="EMFhbasepattern-2" />
    <clipPath
       clipPathUnits="userSpaceOnUse"
       id="clipPath5043-3">
      <path
         style="clip-rule:evenodd"
         d="m 0,9.1553e-5 720,0 0,404.999998447 -720,0 L 0,9.1553e-5 Z"
         id="path5045-7"
         inkscape:connector-curvature="0" />
    </clipPath>
    <clipPath
       clipPathUnits="userSpaceOnUse"
       id="clipPath5053-6">
      <path
         style="clip-rule:evenodd"
         d="m 0,1.2207e-4 720,0 0,404.99999793 -720,0 L 0,1.2207e-4 Z"
         id="path5055-2"
         inkscape:connector-curvature="0" />
    </clipPath>
    <clipPath
       clipPathUnits="userSpaceOnUse"
       id="clipPath5063-5">
      <path
         style="clip-rule:evenodd"
         d="m -1.9684e-5,1.5259e-4 719.999999684,0 0,404.99999741 -719.999999684,0 0,-404.99999741 z"
         id="path5065-2"
         inkscape:connector-curvature="0" />
    </clipPath>
    <clipPath
       clipPathUnits="userSpaceOnUse"
       id="clipPath5075-9">
      <path
         style="clip-rule:evenodd"
         d="M -2.512e-6,1.2207e-4 720,1.2207e-4 720,405.00012 l -720.000002512,0 0,-404.99999793 z"
         id="path5077-0"
         inkscape:connector-curvature="0" />
    </clipPath>
    <clipPath
       clipPathUnits="userSpaceOnUse"
       id="clipPath5085-3">
      <path
         d="m 0,0 3791.7,0 0,1028.64 L 0,1028.64 0,0 Z"
         id="path5087-6"
         inkscape:connector-curvature="0" />
    </clipPath>
    <clipPath
       clipPathUnits="userSpaceOnUse"
       id="clipPath5135-5">
      <path
         style="clip-rule:evenodd"
         d="M 1.0729e-5,0 720.00001,0 l 0,405 -719.999999271,0 0,-405 z"
         id="path5137-6"
         inkscape:connector-curvature="0" />
    </clipPath>
    <clipPath
       clipPathUnits="userSpaceOnUse"
       id="clipPath5147-0">
      <path
         style="clip-rule:evenodd"
         d="m -5.77e-6,1.2207e-4 719.99999577,0 0,404.99999793 -719.99999577,0 0,-404.99999793 z"
         id="path5149-8"
         inkscape:connector-curvature="0" />
    </clipPath>
    <clipPath
       clipPathUnits="userSpaceOnUse"
       id="clipPath5159-8">
      <path
         style="clip-rule:evenodd"
         d="M 1.0729e-5,0 720.00001,0 l 0,405 -719.999999271,0 0,-405 z"
         id="path5161-6"
         inkscape:connector-curvature="0" />
    </clipPath>
    <clipPath
       clipPathUnits="userSpaceOnUse"
       id="clipPath5171-8">
      <path
         style="clip-rule:evenodd"
         d="M 1.0729e-5,0 720.00001,0 l 0,405 -719.999999271,0 0,-405 z"
         id="path5173-4"
         inkscape:connector-curvature="0" />
    </clipPath>
    <clipPath
       clipPathUnits="userSpaceOnUse"
       id="clipPath5183-3">
      <path
         style="clip-rule:evenodd"
         d="M 1.0729e-5,0 720.00001,0 l 0,405 -719.999999271,0 0,-405 z"
         id="path5185-8"
         inkscape:connector-curvature="0" />
    </clipPath>
    <clipPath
       clipPathUnits="userSpaceOnUse"
       id="clipPath5195-1">
      <path
         style="clip-rule:evenodd"
         d="M 1.0729e-5,0 720.00001,0 l 0,405 -719.999999271,0 0,-405 z"
         id="path5197-0"
         inkscape:connector-curvature="0" />
    </clipPath>
    <clipPath
       clipPathUnits="userSpaceOnUse"
       id="clipPath5207-1">
      <path
         style="clip-rule:evenodd"
         d="M 1.0729e-5,0 720.00001,0 l 0,405 -719.999999271,0 0,-405 z"
         id="path5209-8"
         inkscape:connector-curvature="0" />
    </clipPath>
    <clipPath
       clipPathUnits="userSpaceOnUse"
       id="clipPath5598-6">
      <path
         inkscape:connector-curvature="0"
         d="m 209.92,127.147 33.493,0 0,30.434 -33.493,0 0,-30.434 z"
         id="path5600-1" />
    </clipPath>
    <clipPath
       clipPathUnits="userSpaceOnUse"
       id="clipPath6030-6">
      <path
         inkscape:connector-curvature="0"
         d="m 0,0 657.638,0 0,657.638 L 0,657.638 0,0 Z"
         id="path6032-1" />
    </clipPath>
    <linearGradient
       inkscape:collect="always"
       xlink:href="#linearGradient7394"
       id="linearGradient4527"
       x1="-0.37990445"
       y1="5.2014966"
       x2="77.811218"
       y2="5.2014966"
       gradientUnits="userSpaceOnUse" />
    <linearGradient
       inkscape:collect="always"
       xlink:href="#linearGradient7404"
       id="linearGradient4529"
       x1="12.871644"
       y1="0.027160637"
       x2="12.871644"
       y2="-74.015648"
       gradientUnits="userSpaceOnUse" />
    <linearGradient
       inkscape:collect="always"
       xlink:href="#linearGradient7416"
       id="linearGradient4531"
       x1="0.031399351"
       y1="-9.1988573"
       x2="77.493614"
       y2="-9.1988573"
       gradientUnits="userSpaceOnUse" />
    <clipPath
       clipPathUnits="userSpaceOnUse"
       id="clipPath7888-2">
      <path
         inkscape:connector-curvature="0"
         d="m 396.141,186.52 170.788,0 0,66.472 -170.788,0 0,-66.472 z"
         id="path7890-8" />
    </clipPath>
    <filter
       style="color-interpolation-filters:sRGB"
       id="filter3792-3"
       inkscape:label="Invert"
       x="0"
       y="0"
       width="1"
       height="1"
       inkscape:menu="Color"
       inkscape:menu-tooltip="Invert colors">
      <feColorMatrix
         id="feColorMatrix3794-0"
         type="saturate"
         values="1"
         result="fbSourceGraphic" />
      <feColorMatrix
         id="feColorMatrix3796-7"
         in="fbSourceGraphic"
         values="-1 0 0 0 1 0 -1 0 0 1 0 0 -1 0 1 0 0 0 1 0 " />
    </filter>
    <pattern
       id="EMFhbasepattern-80"
       patternUnits="userSpaceOnUse"
       width="6"
       height="6"
       x="0"
       y="0" />
    <pattern
       y="0"
       x="0"
       height="6"
       width="6"
       patternUnits="userSpaceOnUse"
       id="EMFhbasepattern-5-3" />
    <pattern
       y="0"
       x="0"
       height="6"
       width="6"
       patternUnits="userSpaceOnUse"
       id="EMFhbasepattern-2-2" />
    <pattern
       id="EMFhbasepattern-8"
       patternUnits="userSpaceOnUse"
       width="6"
       height="6"
       x="0"
       y="0" />
    <pattern
       id="EMFhbasepattern-9"
       patternUnits="userSpaceOnUse"
       width="6"
       height="6"
       x="0"
       y="0" />
    <clipPath
       clipPathUnits="userSpaceOnUse"
       id="clipPath5043-2">
      <path
         style="clip-rule:evenodd"
         d="m 0,9.1553e-5 720,0 0,404.999998447 -720,0 L 0,9.1553e-5 Z"
         id="path5045-3"
         inkscape:connector-curvature="0" />
    </clipPath>
    <clipPath
       clipPathUnits="userSpaceOnUse"
       id="clipPath5053-7">
      <path
         style="clip-rule:evenodd"
         d="m 0,1.2207e-4 720,0 0,404.99999793 -720,0 L 0,1.2207e-4 Z"
         id="path5055-6"
         inkscape:connector-curvature="0" />
    </clipPath>
    <clipPath
       clipPathUnits="userSpaceOnUse"
       id="clipPath5063-9">
      <path
         style="clip-rule:evenodd"
         d="m -1.9684e-5,1.5259e-4 719.999999684,0 0,404.99999741 -719.999999684,0 0,-404.99999741 z"
         id="path5065-3"
         inkscape:connector-curvature="0" />
    </clipPath>
    <clipPath
       clipPathUnits="userSpaceOnUse"
       id="clipPath5075-0">
      <path
         style="clip-rule:evenodd"
         d="M -2.512e-6,1.2207e-4 720,1.2207e-4 720,405.00012 l -720.000002512,0 0,-404.99999793 z"
         id="path5077-9"
         inkscape:connector-curvature="0" />
    </clipPath>
    <clipPath
       clipPathUnits="userSpaceOnUse"
       id="clipPath5085-4">
      <path
         d="m 0,0 3791.7,0 0,1028.64 L 0,1028.64 0,0 Z"
         id="path5087-9"
         inkscape:connector-curvature="0" />
    </clipPath>
    <clipPath
       clipPathUnits="userSpaceOnUse"
       id="clipPath5135-57">
      <path
         style="clip-rule:evenodd"
         d="M 1.0729e-5,0 720.00001,0 l 0,405 -719.999999271,0 0,-405 z"
         id="path5137-1"
         inkscape:connector-curvature="0" />
    </clipPath>
    <clipPath
       clipPathUnits="userSpaceOnUse"
       id="clipPath5147-00">
      <path
         style="clip-rule:evenodd"
         d="m -5.77e-6,1.2207e-4 719.99999577,0 0,404.99999793 -719.99999577,0 0,-404.99999793 z"
         id="path5149-2"
         inkscape:connector-curvature="0" />
    </clipPath>
    <clipPath
       clipPathUnits="userSpaceOnUse"
       id="clipPath5159-9">
      <path
         style="clip-rule:evenodd"
         d="M 1.0729e-5,0 720.00001,0 l 0,405 -719.999999271,0 0,-405 z"
         id="path5161-8"
         inkscape:connector-curvature="0" />
    </clipPath>
    <clipPath
       clipPathUnits="userSpaceOnUse"
       id="clipPath5171-4">
      <path
         style="clip-rule:evenodd"
         d="M 1.0729e-5,0 720.00001,0 l 0,405 -719.999999271,0 0,-405 z"
         id="path5173-1"
         inkscape:connector-curvature="0" />
    </clipPath>
    <clipPath
       clipPathUnits="userSpaceOnUse"
       id="clipPath5183-1">
      <path
         style="clip-rule:evenodd"
         d="M 1.0729e-5,0 720.00001,0 l 0,405 -719.999999271,0 0,-405 z"
         id="path5185-3"
         inkscape:connector-curvature="0" />
    </clipPath>
    <clipPath
       clipPathUnits="userSpaceOnUse"
       id="clipPath5195-3">
      <path
         style="clip-rule:evenodd"
         d="M 1.0729e-5,0 720.00001,0 l 0,405 -719.999999271,0 0,-405 z"
         id="path5197-9"
         inkscape:connector-curvature="0" />
    </clipPath>
    <clipPath
       clipPathUnits="userSpaceOnUse"
       id="clipPath5207-8">
      <path
         style="clip-rule:evenodd"
         d="M 1.0729e-5,0 720.00001,0 l 0,405 -719.999999271,0 0,-405 z"
         id="path5209-1"
         inkscape:connector-curvature="0" />
    </clipPath>
    <clipPath
       clipPathUnits="userSpaceOnUse"
       id="clipPath5598-0">
      <path
         inkscape:connector-curvature="0"
         d="m 209.92,127.147 33.493,0 0,30.434 -33.493,0 0,-30.434 z"
         id="path5600-2" />
    </clipPath>
    <clipPath
       clipPathUnits="userSpaceOnUse"
       id="clipPath6030-65">
      <path
         inkscape:connector-curvature="0"
         d="m 0,0 657.638,0 0,657.638 L 0,657.638 0,0 Z"
         id="path6032-7" />
    </clipPath>
    <linearGradient
       inkscape:collect="always"
       xlink:href="#linearGradient7394"
       id="linearGradient4723"
       x1="-0.37990445"
       y1="5.2014966"
       x2="77.811218"
       y2="5.2014966"
       gradientUnits="userSpaceOnUse" />
    <linearGradient
       inkscape:collect="always"
       xlink:href="#linearGradient7404"
       id="linearGradient4725"
       x1="12.871644"
       y1="0.027160637"
       x2="12.871644"
       y2="-74.015648"
       gradientUnits="userSpaceOnUse" />
    <linearGradient
       inkscape:collect="always"
       xlink:href="#linearGradient7416"
       id="linearGradient4727"
       x1="0.031399351"
       y1="-9.1988573"
       x2="77.493614"
       y2="-9.1988573"
       gradientUnits="userSpaceOnUse" />
    <clipPath
       clipPathUnits="userSpaceOnUse"
       id="clipPath7888-4">
      <path
         inkscape:connector-curvature="0"
         d="m 396.141,186.52 170.788,0 0,66.472 -170.788,0 0,-66.472 z"
         id="path7890-85" />
    </clipPath>
    <filter
       style="color-interpolation-filters:sRGB"
       id="filter3792-5"
       inkscape:label="Invert"
       x="0"
       y="0"
       width="1"
       height="1"
       inkscape:menu="Color"
       inkscape:menu-tooltip="Invert colors">
      <feColorMatrix
         id="feColorMatrix3794-2"
         type="saturate"
         values="1"
         result="fbSourceGraphic" />
      <feColorMatrix
         id="feColorMatrix3796-1"
         in="fbSourceGraphic"
         values="-1 0 0 0 1 0 -1 0 0 1 0 0 -1 0 1 0 0 0 1 0 " />
    </filter>
    <pattern
       id="EMFhbasepattern-84"
       patternUnits="userSpaceOnUse"
       width="6"
       height="6"
       x="0"
       y="0" />
    <pattern
       y="0"
       x="0"
       height="6"
       width="6"
       patternUnits="userSpaceOnUse"
       id="EMFhbasepattern-5-7" />
    <pattern
       y="0"
       x="0"
       height="6"
       width="6"
       patternUnits="userSpaceOnUse"
       id="EMFhbasepattern-2-21" />
    <pattern
       id="EMFhbasepattern-8-4"
       patternUnits="userSpaceOnUse"
       width="6"
       height="6"
       x="0"
       y="0" />
    <pattern
       id="EMFhbasepattern-9-2"
       patternUnits="userSpaceOnUse"
       width="6"
       height="6"
       x="0"
       y="0" />
    <pattern
       id="EMFhbasepattern-0"
       patternUnits="userSpaceOnUse"
       width="6"
       height="6"
       x="0"
       y="0" />
  </defs>
  <sodipodi:namedview
     id="base"
     pagecolor="#ffffff"
     bordercolor="#666666"
     borderopacity="1.0"
     inkscape:pageopacity="0.0"
     inkscape:pageshadow="2"
     inkscape:zoom="0.45254835"
     inkscape:cx="470.62482"
     inkscape:cy="351.55303"
     inkscape:document-units="px"
     inkscape:current-layer="layer1"
     showgrid="false"
     units="px"
     fit-margin-top="0"
     fit-margin-left="0"
     fit-margin-right="0"
     fit-margin-bottom="0"
     inkscape:window-width="1366"
     inkscape:window-height="705"
     inkscape:window-x="-8"
     inkscape:window-y="-8"
     inkscape:window-maximized="1" />
  <metadata
     id="metadata7">
    <rdf:RDF>
      <cc:Work
         rdf:about="">
        <dc:format>image/svg+xml</dc:format>
        <dc:type
           rdf:resource="http://purl.org/dc/dcmitype/StillImage" />
        <dc:title></dc:title>
      </cc:Work>
    </rdf:RDF>
  </metadata>
  <g
     inkscape:label="Layer 1"
     inkscape:groupmode="layer"
     id="layer1"
     transform="translate(-705.5935,406.55236)">
    <g
       transform="matrix(0.04598616,0,0,0.04598616,1040.3575,-71.847633)"
       id="layer1-1"
       inkscape:label="Layer 1">
      <g
         transform="matrix(2.268514,0,0,-2.268514,-2822.0244,3386.9075)"
         id="g5059" />
      <g
         transform="matrix(1.0993828,0,0,0.87275592,32.298016,-92.554774)"
         style="fill:#000000"
         id="g4915">
        <g
           style="fill:#000000"
           id="g7892"
           transform="matrix(11.311653,0,0,-11.311653,-61.418528,741.60912)" />
      </g>
      <g
         id="g5274">
        <g
           transform="matrix(32.582261,0,0,32.582261,-7311.9785,-17593.598)"
           id="g6855"
           style="fill-rule:evenodd">
          <g
             id="g6813">
            <path
               inkscape:connector-curvature="0"
               style="fill:#000000;stroke:none"
               d="m 487.5,435.69 0,-14.9 -15.3,5 0,12.3 -11.6,3 0,-11.8 -15.5,3.8 0,11.9 -8.1,1.9 0.7,-12 c 0,-0.9 0.1,-1.6 0.1,-2.1 0.2,-7.6 0.3,-13.4 0.3,-17.2 -0.1,-5.6 -0.3,-10 -0.5,-13.2 -0.3,-4.4 -0.7,-8.4 -1.3,-12.2 -0.2,-1 -0.4,-2.3 -0.7,-3.8 -2.5,-12.7 -6.8,-20.5 -13,-23.3 -15,-7.8 -37.3,-7.7 -66.9,0.3 l -2.1,0.5 c -3.8,1 -7.6,2.2 -11.4,3.4 l -0.9,0.3 c -6.6,2.2 -13,4.4 -19,6.8 -14.4,5 -26.7,10.3 -36.9,16.2 l -0.6,0.3 c -5.3,3.1 -10.1,6.3 -14.5,9.7 -2.5,2 -4.7,4 -6.6,5.8 -4,3.7 -7.4,7.7 -10,11.9 -1,1.4 -1.8,2.8 -2.5,4 l -0.4,0.7 -3.3,11.6 c -1.2,4.4 -2.1,9.1 -2.8,13.9 -0.6,4.3 -0.9,8.5 -1.1,12.6 -0.4,10.6 0.7,21 3.2,31.3 0.4,2.1 1.1,4.6 2,7.5 l 1.1,3.2 0.2,0.5 c 4.9,10.3 14.5,16.3 28.8,18 1.7,0.2 3.3,0.3 4.6,0.3 l 12.2,-0.1 c 11,-0.7 23.9,-3.2 38.7,-7.2 l 4.6,-1.1 c 49.6,-11.8 80.5,-28.3 92.4,-49.6 1.1,-2 2,-3.9 2.7,-5.7 l 11.2,-2.4 0.4,27.4 14.9,-4 0,-27.3 11.6,-2.9 0.1,27 15.2,-4.4 0,-20.9 c 0,-5.5 3.1,-9.2 9.4,-11.2 5,-0.2 7.9,2.2 8.8,7.1 l 0,20.4 13.3,-3.3 0,-24.8 c -0.6,-7.6 -4.8,-11.7 -12.5,-12.3 -9.5,1.5 -15.9,4.6 -19,9.1 z m -152.8,-37 10.3,-3.5 c 17.6,-5 29,-5 34.2,0 l 0.9,0.9 0.7,1 c 0.1,0.2 0.1,0.3 0.1,0.4 0.9,2.4 1.8,4.9 2.5,7.5 2.9,10.5 4,21.1 3.2,31.8 0,1.4 -0.2,2.8 -0.3,4.2 -0.5,4.3 -1.5,8.2 -2.8,11.7 -0.5,1.3 -1.1,2.6 -1.7,3.7 -0.7,1.5 -1.5,2.7 -2.2,3.9 l -1.9,2.4 c -1.6,2 -3,3.5 -4.2,4.7 l -5.6,4.4 c -7.7,4.1 -15.4,7.5 -23.2,10.3 -4.5,1.6 -9.1,3 -13.8,4.4 -3.9,1 -7.1,1.8 -9.6,2.3 -7.3,1.5 -13.3,1 -18.1,-1.3 -4.9,-2.5 -8.5,-7.1 -10.6,-13.8 -4.2,-13 -4.7,-27 -1.5,-41.8 3.6,-10.3 13.2,-19.3 28.8,-27 l 3.1,-1.5 c 3.7,-1.7 7.6,-3.3 11.7,-4.7 z"
               id="path6815" />
            <path
               inkscape:connector-curvature="0"
               style="fill:#000000;stroke:none"
               d="m 447.2,534.19 -0.5,-2.1 c -1.5,-9 -9.1,-11.9 -22.9,-8.6 l -35.5,9.2 0,49.3 19.3,-4.7 0,-17 8,-1.5 c 7.5,-1.3 13.7,2.7 18.6,12.1 l 19.9,-4.9 c -3.3,-7.6 -9,-12.9 -17.3,-15.8 7.7,-5 11.1,-10.3 10.4,-16 z m -39.6,3.8 13.2,-3.5 c 2.3,0.1 4,0.5 5.1,1.1 1.2,0.6 1.9,1.5 1.9,2.8 l 0,0.2 c 0.2,0.9 0.1,1.6 -0.2,2.2 -0.4,0.7 -0.8,1.3 -1.4,1.9 -0.9,0.8 -1.7,1.3 -2.6,1.8 l -16,3.5 0,-10 z"
               id="path6817" />
            <path
               inkscape:connector-curvature="0"
               style="fill:#000000;stroke:none"
               d="m 351.2,578.69 c -9.3,1.4 -14.2,0.6 -14.7,-2.6 l 0,-29.9 -16,4.1 0,34.9 c 0.1,2.1 0.9,3.8 2.4,5.1 2.4,2 6.4,3.2 12,3.6 11.8,-0.1 23.7,-2.8 35.5,-8.4 6.3,-3.3 9.7,-7.7 10.3,-12.9 l 0,-37.9 -18.1,4.7 0,30.6 c -0.3,4.3 -4.1,7.2 -11.4,8.7 z"
               id="path6819" />
            <path
               inkscape:connector-curvature="0"
               style="fill:#000000;stroke:none"
               d="m 516.8,499.39 -22.5,5.8 -12,23.2 -20.1,-14.9 -19.9,5.2 31.7,24.2 0,18.4 20.1,-4.8 0,-18.5 22.7,-38.6 z"
               id="path6821" />
            <path
               inkscape:connector-curvature="0"
               style="fill:#000000;stroke:none"
               d="m 397.8,668.89 c 2.1,1.2 2.4,2.6 0.8,4.4 l -57.6,60 c -2.4,2.9 -1.7,4.3 2.1,4.2 l 52,-8.4 29.3,-37.7 c 0.9,-1.3 2.3,-1.6 4.2,-0.8 l 34.8,25.2 50.9,-9 c 2.5,-0.7 2.6,-1.9 0.3,-3.6 l -61.1,-41.8 61.4,-70.2 c 1.7,-2.5 1.5,-3.7 -0.9,-3.4 l -51.8,11.5 -36,42.5 c -1.1,1.5 -2.3,1.7 -3.6,0.7 l -33.7,-26.9 -51.5,11.5 60.4,41.8 z"
               id="path6823" />
            <path
               inkscape:connector-curvature="0"
               style="fill:#000000;stroke:none"
               d="m 668.4,744.19 c -0.4,-1.6 -1.6,-2.2 -3.6,-1.7 l -23.5,6.7 0,19.7 c -0.2,1.5 -1.2,1.8 -3.1,0.8 l -111.8,-52.7 -497,84.8 0,-23 c 0.1,-1.8 -0.7,-2.8 -2.4,-2.9 l -23.7,-2.4 c -1.6,-0.1 -2.4,0.8 -2.3,2.6 l 0,64.8 44.8,0 c -3.4,-13.6 9.5,-21.9 38.6,-25 126.8,-11.9 273.8,-9.5 441,7.1 l 0,-82.6 c 0,-2.8 1.7,-3.5 5,-2.3 l 129.6,58.9 c 4.6,1.8 7.4,1.1 8.4,-2.2 l 0,-50.6 z"
               id="path6825" />
            <path
               inkscape:connector-curvature="0"
               style="fill:#000000;stroke:none"
               d="m 657.5,730.29 c 1.9,-1.1 2.6,-3.1 2,-6.1 l -79,-407.6 -66.6,0 61.8,199.1 -51.6,-45 -424.8,113 c -3.5,1.3 -4.9,3.8 -4,7.3 0.7,3.5 4.3,4.9 10.9,4 l 417.4,-107.6 58,46.9 25.7,82.9 -83.4,-59.3 -422.7,97.8 c -4.1,0.8 -6.1,3.1 -5.9,7 0.2,4.3 3.4,5.7 9.4,4.3 l 419.8,-92 88.4,60.3 29,93.4 c 1,2.5 2.4,4 4.1,4.4 3.7,0 7.6,-0.9 11.5,-2.8 z"
               id="path6831" />
            <path
               inkscape:connector-curvature="0"
               style="fill:#000000;stroke:none"
               d="m 238.4,447.09 c -4,-18.7 -14.6,-26.1 -31.9,-22 -31,5.4 -57.7,16.2 -79.8,32.4 -14.2,13.3 -19.3,29 -15.1,47.2 l 36.1,-13.9 c -1.3,-15.1 6.2,-26.3 22.4,-33.5 17.6,-7.2 27.2,-5.6 28.8,4.9 -0.1,6 -3.8,11.9 -11.4,17.9 l -58.5,37.6 c -11.4,7 -18.1,16.6 -20.1,28.9 -0.8,8.1 -0.8,16.3 0,24.4 l 132.5,-35 0,-25.9 -85.9,23.8 c 0.1,-2.1 1.2,-4.1 3.2,-6.1 l 36.2,-20.8 c 20.9,-11 34.5,-22.8 40.7,-35.4 3.5,-7.2 4.6,-14.6 3.2,-22.3 l -0.4,-2.2 z"
               id="path6833" />
            <path
               inkscape:connector-curvature="0"
               style="fill:#000000;stroke:none"
               d="m 315.5,562.49 -0.4,-10.8 -49,12.8 0,10 15.2,-3.6 0,35.3 18,-4 0,-35.7 16.2,-4 z"
               id="path6835" />
            <path
               inkscape:connector-curvature="0"
               style="fill:#000000;stroke:none"
               d="m 118.8,316.59 -66.2,0 -44.1,431.3 c -1.1,6 0.3,10 4.3,12.1 4,2 7.3,2.8 9.9,2.4 2.6,-0.4 4.2,-1.9 4.8,-4.4 l 91.3,-441.4 z"
               id="path6837" />
            <path
               inkscape:connector-curvature="0"
               style="fill:#000000;stroke:none"
               d="m 153.7,601.69 c -1.4,-6.6 -9.9,-8.3 -25.4,-5.1 -12.7,2.6 -19.8,7.3 -21.2,14.1 -0.7,3.5 -1,6.7 -1,9.6 -0.1,2.6 0,5 0.2,7.1 0.2,1.8 0.4,3.6 0.8,5.3 0.8,7.7 8.9,10.7 24.2,9.2 l 3.9,-0.6 c 10.6,-1.9 16.8,-6.5 18.5,-14 l 0,-8.8 -13.9,1.8 c -0.5,5.1 -3.2,8.2 -8.2,9.3 -5,0.9 -8.2,-0.1 -9.4,-3.3 -1.2,-3.1 -1.4,-7.1 -0.4,-11.8 0.9,-4.8 3.7,-7.4 8.5,-7.8 5.5,-1.2 8.9,0.5 10.2,4.9 l 13.2,-1.9 0,-8 z"
               id="path6839" />
            <path
               inkscape:connector-curvature="0"
               style="fill:#000000;stroke:none"
               d="m 144.2,708.59 0,-19.6 50.4,-10.5 0,-21.7 -84.5,19.1 0,102.6 34.1,-5.8 0,-42.7 45.5,-8.6 0,-21.9 -45.5,9.1 z"
               id="path6841" />
            <path
               inkscape:connector-curvature="0"
               style="fill:#000000;stroke:none"
               d="m 247.7,569.09 0.1,24.2 -19.1,-19.2 -16.8,4.4 0,43.1 14.5,-3.2 -0.7,-23.2 21.2,18.7 16.4,-3.7 0,-45.1 -15.6,4 z"
               id="path6843" />
            <path
               inkscape:connector-curvature="0"
               style="fill:#000000;stroke:none"
               d="m 160.8,590.79 -0.1,42.9 41.1,-9.7 0,-9.9 -25.3,5.6 0,-6.8 22.1,-5.3 0,-8.9 -22.1,4.9 0,-7 25.3,-6.2 0,-9.3 -41,9.7 z"
               id="path6845" />
            <path
               inkscape:connector-curvature="0"
               style="fill:#000000;stroke:none"
               d="m 264.1,638.99 c -47.1,8.2 -69.3,30.8 -66.3,68.1 0.8,27.5 10.5,43.5 29.2,47.7 31.6,1.7 62.2,-3 91.8,-13.9 27.3,-12.2 40.1,-33.1 38.2,-62.5 0.6,-42.5 -30.4,-55.6 -92.9,-39.4 z m 49.2,31.5 c 1.4,10.5 1.4,20.8 0,30.9 -3.1,14.7 -15.5,23.6 -37.2,26.8 -21.1,3.7 -33.5,0.3 -37.3,-10 -1.9,-12 -1.9,-24.1 0,-36.5 3.2,-10.8 13.6,-18.1 31.4,-21.9 27.2,-6.6 41.6,-3.1 43.1,10.7 z"
               id="path6847" />
          </g>
        </g>
      </g>
    </g>
  </g>
</svg>
