<?xml version="1.0" encoding="UTF-8" standalone="no"?>
<!-- Generator: Adobe Illustrator 13.0.0, SVG Export Plug-In . SVG Version: 6.00 Build 14948)  -->

<svg
   xmlns:dc="http://purl.org/dc/elements/1.1/"
   xmlns:cc="http://creativecommons.org/ns#"
   xmlns:rdf="http://www.w3.org/1999/02/22-rdf-syntax-ns#"
   xmlns:svg="http://www.w3.org/2000/svg"
   xmlns="http://www.w3.org/2000/svg"
   xmlns:sodipodi="http://sodipodi.sourceforge.net/DTD/sodipodi-0.dtd"
   xmlns:inkscape="http://www.inkscape.org/namespaces/inkscape"
   version="1.1"
   id="Layer_1"
   x="0px"
   y="0px"
   width="1000"
   height="186.185"
   viewBox="0 0 1000 186.185"
   enable-background="new 0 0 300 65"
   xml:space="preserve"
   inkscape:version="0.91 r13725"
   sodipodi:docname="Dolby_logo.svg"><metadata
   id="metadata5269"><rdf:RDF><cc:Work
       rdf:about=""><dc:format>image/svg+xml</dc:format><dc:type
         rdf:resource="http://purl.org/dc/dcmitype/StillImage" /><dc:title></dc:title></cc:Work></rdf:RDF></metadata><defs
   id="defs5267" /><sodipodi:namedview
   pagecolor="#ffffff"
   bordercolor="#666666"
   borderopacity="1"
   objecttolerance="10"
   gridtolerance="10"
   guidetolerance="10"
   inkscape:pageopacity="0"
   inkscape:pageshadow="2"
   inkscape:window-width="1366"
   inkscape:window-height="705"
   id="namedview5265"
   showgrid="false"
   inkscape:zoom="0.37005255"
   inkscape:cx="301.13396"
   inkscape:cy="-145.20353"
   inkscape:window-x="-8"
   inkscape:window-y="-8"
   inkscape:window-maximized="1"
   inkscape:current-layer="Layer_1" />
<g
   id="g5249"
   transform="matrix(3.4072943,0,0,3.4072943,-10.242327,-18.733088)">
	<path
   d="m 295.713,50.051 c 0,1.973 -1.451,3.395 -3.297,3.395 -1.871,0 -3.319,-1.422 -3.319,-3.395 0,-1.925 1.448,-3.37 3.319,-3.37 1.846,0 3.297,1.445 3.297,3.37 m -7.397,0 c 0,2.346 1.884,4.046 4.1,4.046 2.2,0 4.078,-1.7 4.078,-4.046 0,-2.317 -1.878,-4.021 -4.078,-4.021 -2.216,0 -4.1,1.703 -4.1,4.021 m 3.244,-1.726 0.961,0 c 0.821,0 1.037,0.246 1.037,0.691 0,0.51 -0.282,0.762 -1.154,0.762 l -0.844,0 0,-1.453 z m 0,2.045 0.806,0 1.236,2.026 0.784,0 -1.328,-2.055 c 0.695,-0.083 1.217,-0.443 1.217,-1.277 0,-0.917 -0.54,-1.331 -1.649,-1.331 l -1.78,0 0,4.663 0.715,0 0,-2.026 z"
   id="path5251"
   inkscape:connector-curvature="0" />
	<path
   d="m 287.254,11.467 -10.636,19.268 -10.276,-19.268 -9.632,0 c 1.786,3.259 14.398,26.971 14.398,26.971 0,0 0,13.497 0,15.634 l 10.339,0 c 0.007,-2.124 0.004,-15.567 0.004,-15.567 0,0 13.096,-23.756 14.951,-27.037 l -9.148,0 z"
   id="path5253"
   inkscape:connector-curvature="0" />
	<path
   d="m 244.367,31.531 c 7.561,-0.695 9.201,-4.393 9.201,-9.724 0,-4.69 -1.991,-7.079 -4.166,-8.422 -1.824,-1.146 -3.982,-1.919 -8.51,-1.919 l -19.926,0 0,42.604 20.186,0 c 6.205,0 8.787,-1.214 9.985,-2.039 2.052,-1.371 4.716,-4.415 4.716,-9.258 0.001,-5.726 -1.988,-11.462 -11.486,-11.242 m -5.101,16.351 -8.687,0 0,-0.041 0,-30.237 0,-0.029 9.464,0 c 3.205,0 5.203,2.544 5.203,6.02 0,5.348 -2.589,5.484 -9.957,5.75 l 0,4.934 c 6.584,-0.025 11.866,-0.417 11.866,6.404 0,3.425 -2.191,7.199 -7.889,7.199"
   id="path5255"
   inkscape:connector-curvature="0" />
	<polygon
   points="215.685,46.984 197.933,46.984 197.933,11.467 188.317,11.467 188.317,54.071 215.685,54.071 "
   id="polygon5257" />
	<path
   d="m 171.612,39.158 c 0,7.561 -2.643,9.287 -10.052,9.287 -7.419,0 -10.052,-1.727 -10.052,-9.287 l 0,-12.763 c 0,-7.37 2.633,-8.963 10.052,-8.963 7.409,0 10.052,1.593 10.052,8.963 l 0,12.763 z m 4.248,-25.316 c -2.931,-2.045 -7.877,-3.119 -14.3,-3.119 -6.278,0 -10.836,0.874 -14.335,3.135 -3.647,2.36 -5.373,6.307 -5.373,12.479 l 0,13.42 c 0,6.191 1.792,10.374 5.332,12.457 2.873,1.994 7.548,2.942 14.376,2.942 6.727,0 11.537,-0.974 14.284,-2.892 3.559,-2.213 5.414,-6.519 5.414,-12.508 l 0,-13.42 c 10e-4,-5.878 -1.814,-10.082 -5.398,-12.494"
   id="path5259"
   inkscape:connector-curvature="0" />
	<path
   d="m 126.177,38.153 c 0,7.459 -3.982,9.344 -7.323,9.344 l -11.794,0 0,-29.772 11.794,0 c 3.341,0 7.323,1.882 7.323,8.818 l 0,11.61 z m -7.397,-26.686 -21.339,0 0,42.604 22.831,0 c 11.256,0 15.441,-4.587 15.441,-16.942 l 0,-9.363 c 0.001,-11.73 -4.744,-16.299 -16.933,-16.299"
   id="path5261"
   inkscape:connector-curvature="0" />
	<path
   d="m 3.006,60.141 78.757,0 0,-54.643 -78.757,0 0,54.643 z m 18.269,-7.081 -8.979,0 0,-40.487 8.979,0 c 9.318,0 17.11,9.251 17.11,20.162 0.001,11.246 -7.791,20.325 -17.11,20.325 m 51.217,0 -9.006,0 c -9.327,0 -17.104,-9.078 -17.104,-20.324 0,-10.911 7.776,-20.162 17.104,-20.162 l 9.006,0 0,40.486 z"
   id="path5263"
   inkscape:connector-curvature="0" />
</g>
</svg>