<?xml version="1.0" encoding="utf-8"?>
<!-- Generator: Adobe Illustrator 22.1.0, SVG Export Plug-In . SVG Version: 6.00 Build 0)  -->
<!DOCTYPE svg PUBLIC "-//W3C//DTD SVG 1.1//EN" "http://www.w3.org/Graphics/SVG/1.1/DTD/svg11.dtd">
<svg version="1.1"
	 id="Layer_1" inkscape:version="0.91 r13725" sodipodi:docname="DreamWorks_Animation_2015.svg" xmlns:cc="http://creativecommons.org/ns#" xmlns:dc="http://purl.org/dc/elements/1.1/" xmlns:inkscape="http://www.inkscape.org/namespaces/inkscape" xmlns:rdf="http://www.w3.org/1999/02/22-rdf-syntax-ns#" xmlns:sodipodi="http://sodipodi.sourceforge.net/DTD/sodipodi-0.dtd" xmlns:svg="http://www.w3.org/2000/svg"
	 xmlns="http://www.w3.org/2000/svg" xmlns:xlink="http://www.w3.org/1999/xlink" x="0px" y="0px" viewBox="0 0 6816.7 815.1"
	 style="enable-background:new 0 0 6816.7 815.1;" xml:space="preserve">
<style type="text/css">
	.st0{fill:#008CFF;}
	.st1{fill:#FFFFFF;}
</style>
<sodipodi:namedview  bordercolor="#666666" borderopacity="1" gridtolerance="10" guidetolerance="10" id="namedview71" inkscape:current-layer="Layer_1" inkscape:cx="217.48361" inkscape:cy="497.92809" inkscape:pageopacity="0" inkscape:pageshadow="2" inkscape:window-height="709" inkscape:window-maximized="1" inkscape:window-width="1366" inkscape:window-x="-8" inkscape:window-y="-8" inkscape:zoom="0.83559688" objecttolerance="10" pagecolor="#ffffff" showgrid="false">
	</sodipodi:namedview>
<polyline id="polyline3" points="3267.7,2.3 3455.6,2.3 3620.7,542.1 3799.6,0 3949.9,0 4128.7,542.1 4293.8,2.3 4477.2,2.3 
	4205.1,805.2 4052.4,805.2 3872.5,283.6 3692.5,805.2 3539.9,805.2 "/>
<path id="path5" d="M4378.9,476.4v-2c0-187.3,147.8-340.7,351-340.7c203.4,0,349.2,151.5,349.2,338.8v1.9
	c0,187.4-147.7,340.7-351,340.7C4524.8,815.1,4378.9,663.6,4378.9,476.4 M4927.7,476.4v-2c0-112.9-82.9-207.1-199.5-207.1
	s-197.7,92.2-197.7,205.2v1.9c0,113,82.8,207.1,199.5,207.1C4846.8,681.5,4927.7,589.2,4927.7,476.4"/>
<path id="path7" d="M5132.9,145h301.2c83.8,0,148.6,23.5,192,66.8c36.6,36.7,56.5,88.5,56.5,150.6v1.9
	c0,106.4-57.5,173.2-141.3,204.3l161,235.3h-169.4L5391.7,593h-113.9v210.9h-144.9 M5424.7,465c70.6,0,111-37.7,111-93.2v-1.9
	c0-62.1-43.3-94.1-113.8-94.1h-144V465H5424.7z"/>
<polyline id="polyline9" points="5738,145 5883,145 5883,433 6150.3,145 6325.4,145 6057.2,424.5 6337.7,803.8 6163.6,803.8 
	5959.2,523.4 5883,602.4 5883,803.8 5738,803.8 "/>
<path id="path11" d="M6295.3,707.8l85.6-102.6c59.3,48.9,121.4,80,196.7,80c59.3,0,95.1-23.5,95.1-62.1v-1.9
	c0-36.6-22.6-55.5-132.8-83.8c-132.6-33.9-218.3-70.6-218.3-201.4v-1.9c0-119.5,96-198.6,230.6-198.6c96,0,177.9,30.1,244.8,83.8
	l-75.4,109.2c-58.4-40.5-115.7-64.9-171.2-64.9c-55.6,0-84.8,25.4-84.8,57.4v1.9c0,43.3,28.4,57.4,142.2,86.6
	c133.7,34.8,208.9,82.8,208.9,197.6v1.9c0,130.8-99.7,204.2-241.8,204.2C6475.1,813.2,6374.3,778.4,6295.3,707.8"/>
<path id="path15" d="M798.6,145h301.2c83.8,0,148.7,23.5,192.1,66.8c36.7,36.7,56.4,88.5,56.4,150.6v1.9
	c0,106.4-57.4,173.2-141.1,204.3L1368,803.8h-169.4L1057.4,593H943.5v210.9h-145 M1090.3,465c70.6,0,111-37.7,111-93.2v-1.9
	c0-62.1-43.3-94.1-113.9-94.1h-144V465L1090.3,465L1090.3,465z"/>
<polyline id="polyline17" points="1403.7,145 1900.7,145 1900.7,273.9 1547.8,273.9 1547.8,407.6 1858.4,407.6 1858.4,536.5 
	1547.8,536.5 1547.8,674.9 1905.5,674.9 1905.5,803.8 1403.7,803.8 "/>
<path id="path19" d="M2185,140.3h133.7L2601,803.8h-151.5l-60.2-147.8h-278.6l-60.2,147.8h-147.8 M2337.4,528l-87.5-213.6
	L2162.4,528H2337.4z"/>
<polyline id="polyline21" points="2608.6,145 2764.8,145 2938,423.6 3111.1,145 3267.4,145 3267.4,803.8 3123.4,803.8 3123.4,373.7 
	2938,655.1 2934.2,655.1 2750.7,376.5 2750.7,803.8 2608.6,803.8 "/>
<g id="g4" transform="matrix(1.5125235,0,0,1.5586768,-147.08547,-128.59684)">
	<g id="g6">
	</g>
	<path id="path18" inkscape:connector-curvature="0" class="st0" d="M55.7,331.4v17.7c-0.1-2.9-0.2-5.9-0.2-8.9
		C55.5,337.3,55.6,334.4,55.7,331.4z"/>
	<path id="path20-3" inkscape:connector-curvature="0" d="M597.1,340.3c0,142.2-111.9,257.4-250,257.5H97v-515h250.1
		C485.2,82.9,597.1,198.1,597.1,340.3z"/>
	<path id="path14_1_" inkscape:connector-curvature="0" class="st1" d="M271.3,489.5c0,0-2.3,3.3-4.4,5.5c-2,2.2-2.6,3.6-1.2,4.2
		c1.4,0.9,2.6,1.7,5.9,3.9c-0.9,4.8-4.5,12.5-6.9,17c-2.3,4.5-5.1,9.2-7.5,11.4c-2.3,2.2-7.8,6.7-11.2,10c-3.4,3.3-7.3,5.6-9.7,6.1
		c-4.2,0.6-5.6-2.3-6.1-1.6c-2.6,3.6-1.2,7,3.6,7.6c1.7,0.3,2.6,1.9,5.6,3c3,1.2,7.5,0.3,10-0.9c2.6-1.2,8.1-4.5,12.2-6.5
		c4.1-2,8.3-1.9,12.9-2.2c3.9-0.3,4.2-6.7,2.8-10c-2-4.8-0.5-8.1,1.9-13.9c2.5-5.6,8.9-11.7,8.9-11.7s1.7-0.9,4.5,1.1
		c2.6,1.9,3.3-1.1,6.9-5.3c2.8-3.3,5.9-6.9,4.2-8.4c-2-1.9-1.6-2.6-1.6-2.6s2-2.6,4.2-4.4L271.3,489.5"/>
	<path id="path16_1_" inkscape:connector-curvature="0" class="st1" d="M384.1,412.2c0,0,27-19.3,37.4-74c6.4-33,3.6-65-11.5-96.7
		c-22.3-46.7-75.9-79.6-127.3-84.9c85.7-18.8,162.8,29.8,192.2,90.8c28.7,59.4,26.2,121.5-18.1,179.5c-9.2,12-61.8,69.9-155.2,67
		c-6.5,1.1-22.9-2-27.9-3.9c0,0-8.4-3.1-18.7-7.3c-10.4-4.4-34.9-17.3-49.1-29.9c12,6.9,33.3,14.3,53.6,16.2
		C272.4,467.1,339.5,455.7,384.1,412.2"/>
	<path id="path18_1_" inkscape:connector-curvature="0" class="st1" d="M350,361.6c0.8-1.9-5,0.6-5.9,1.1c-3.3,1.6-5.6-0.9-5-2.5
		c0.6-1.7,0.3-3-1.1-2.8c-1.1,0.2-1.2-1.2-0.8-2.2c-1.1,0-1.7-0.9-1.9-1.4c1.7-0.6,0.2-2.2-0.5-2.5c-0.6-0.3-2-0.5-2.2-1.6
		c-0.2-1.1,1.1-2.6,2.3-3.4c1.2-0.8,1.7-2.2,0.3-4.5c-1.1-2-1.7-5.5-0.6-6.7c-2.5,0.3-3.6,3-3.6,3c-1.6-2.8-0.6-5.6-0.2-7
		c-0.8,0.8-2,3-2,3c1.7-14.8,19.6-20.9,24.3-22c8.9-1.9,22.7-2.2,20.6,4.4c0,0,2.8-5.5-2.3-6.7c3-0.2,5.3,3,4.2,5
		c1.4-0.9,4.2-1.6,5-0.3c-1.4,0.2-4.4,1.6-4.5,2.8c2.6-0.5,5.5,0.9,7.3,9.7c0.9,3.9,2.6,16.7-3.3,20.9c0,0,0.3-0.8,0.3-1.7
		c0,0-0.8,3-5.1,3c0,0-0.3,1.4-0.2,2.2c0,0,5.3-2,7.3-1.2c0,0-2.5,4.5-3.4,6.4c3.4,0,13.9,6.5,14.5,21.5c1.6,2.5,3.4,17.1,1.6,23.8
		C380.4,447,273,473,254.8,467.4c0,0-5.1-3.7-0.9-6.1c1.4-0.8,0.3,0.3,3.6,1.2c2,0.5,3.6,0,6.1-1.4c2.6-1.6,8.3-2.8,12.2-5.5
		c3.9-2.6,6.9-3.3,10.9-10.6c0.9-1.6,1.2-3.7,1.7-6.4c0-0.5-0.3-0.3-4-1.6c-2.2-0.8-3.9,0.3-3.9-3.6c0-3.7,1.6-9.5,1.9-11.1
		c0.3-1.4,1.9-1.6,5.8-1.4c1.7-3.4,3.1-9.5,4.2-12.9c0,0-1.1,0.3-3.4,0.3c-2.3,0-3.4,1.6-7.3,3c-4.1,1.2-6.1,0.9-6.9-1.6
		c-1.1-3.3-1.1-4.8-2-7.2c-0.8-1.6-3.4-1.6-3-3.3c0.5-1.7,1.2-2.5,2.5-3c1.2-1.2,4.5-0.9,7.3-3.6c2.8-2.5,4.7,0.2,5.6,2
		c0.8,1.6,1.1,1.7,3,4.1c0.9,1.1,4.2,0.3,6.4,0l1.9-7.3c-1.2-0.3-6.9-1.2-12.9-4.2c-6.1-3-10.6-5.9-12.9-5.5
		c-8.6,0.9-6.4-0.6-10.4-6.7c-2.5-3.6-1.9-3.7-4.8-5.1c-3.7-1.6-1.2-5.5,0.3-5.1c1.6,0.3,4.2-1.2,6.5-1.7c-0.8-3.6,0.3-5.8,3.7-5.5
		c-0.8,2.2,2.6,7.2,6.5,8.4c4,1.2,5.6,7.6,5.6,8.9c3.7,3.6,21,3.3,24.8,3.3c1.9-3,2.6-3.6,9.8-3.6c4.5,0,8.4,1.1,11.8,5
		c3.3,0.9,0.5-1.9,6.1-2.5c5.6-0.6,8.3-3,10.6-3.6c2.3-0.6,2.3-2,4.1-3.4c1.1-0.8,1.9-2.8,3.3-3.4c1.4-0.6,1.2-5,1.9-5.9
		 M303.1,443.2c0,0-1.2,5.9,0,10.9c3.4-0.9,6.1-3.6,8.7-4.5c2.6-0.9,9.7-2.8,14.3-5c0,0,0-0.9-1.7-3.4c-1.2-1.9-4.1-10.7-6.7-20.4
		c0,0-1.1-6.7-2-6.4c-0.6,0.3-1.1,8.3-1.2,11.8c-0.3,4.2-0.3,2.8-0.3,2.8s2.6,0.3,2.3,1.9c-0.5,1.7-2.5,11.8-3.1,13.6
		c-0.5,1.4-0.8,0.8-3.3,0.3C307.3,444.2,303.1,443.2,303.1,443.2L303.1,443.2L303.1,443.2z M349.2,416.7c1.4-2.2,0.9-3,1.7-7.3
		c0.3-6.1-1.9-10.9-1.9-10.9l-10.1,2.8C342,405.4,345.5,413.3,349.2,416.7"/>
	<path id="path20_1_" inkscape:connector-curvature="0" class="st1" d="M88.7,250.2c60.8,7.2,191,117.3,192.2,150.2l-4.7,0.8
		C262,351.6,124.4,255.3,88.7,255.7V250.2"/>
	<path id="path22_1_" inkscape:connector-curvature="0" class="st1" d="M279.3,409.9c0.3,0.9,2.2,5.3,2.3,6.1
		c0.2,0.8,5.1,1.6,4.2-1.9c-0.9-3.4-2.3-6.2-2.3-6.2L279.3,409.9"/>
	<path id="path24_1_" inkscape:connector-curvature="0" class="st1" d="M93.6,597.8h3.5V253.5h-3.5V597.8z"/>
</g>
</svg>
