<?xml version="1.0" encoding="UTF-8" standalone="no"?>
<!-- Generator: Adobe Illustrator 16.0.0, SVG Export Plug-In . SVG Version: 6.00 Build 0)  -->

<svg
   xmlns:dc="http://purl.org/dc/elements/1.1/"
   xmlns:cc="http://creativecommons.org/ns#"
   xmlns:rdf="http://www.w3.org/1999/02/22-rdf-syntax-ns#"
   xmlns:svg="http://www.w3.org/2000/svg"
   xmlns="http://www.w3.org/2000/svg"
   xmlns:sodipodi="http://sodipodi.sourceforge.net/DTD/sodipodi-0.dtd"
   xmlns:inkscape="http://www.inkscape.org/namespaces/inkscape"
   version="1.1"
   id="Layer_1"
   x="0px"
   y="0px"
   width="6816.684px"
   height="815.109px"
   viewBox="0 0 6816.684 815.109"
   enable-background="new 0 0 6816.684 815.109"
   xml:space="preserve"
   inkscape:version="0.91 r13725"
   sodipodi:docname="DreamWorks_Animation_2015.svg"><metadata
     id="metadata75"><rdf:RDF><cc:Work
         rdf:about=""><dc:format>image/svg+xml</dc:format><dc:type
           rdf:resource="http://purl.org/dc/dcmitype/StillImage" /></cc:Work></rdf:RDF></metadata><defs
     id="defs73" /><sodipodi:namedview
     pagecolor="#ffffff"
     bordercolor="#666666"
     borderopacity="1"
     objecttolerance="10"
     gridtolerance="10"
     guidetolerance="10"
     inkscape:pageopacity="0"
     inkscape:pageshadow="2"
     inkscape:window-width="1366"
     inkscape:window-height="709"
     id="namedview71"
     showgrid="false"
     inkscape:zoom="0.83559688"
     inkscape:cx="217.48361"
     inkscape:cy="497.92809"
     inkscape:window-x="-8"
     inkscape:window-y="-8"
     inkscape:window-maximized="1"
     inkscape:current-layer="Layer_1" /><polyline
     fill="#1B4E9C"
     points="3267.66,2.274 3455.637,2.274 3620.73,542.113 3799.574,0 3949.887,0 4128.691,542.113   4293.824,2.274 4477.152,2.274 4205.059,805.209 4052.371,805.209 3872.488,283.6 3692.512,805.209 3539.887,805.209 "
     id="polyline3" /><path
     fill="#1B4E9C"
     d="M4378.949,476.356v-1.974c0-187.271,147.836-340.694,351.023-340.694  c203.398,0,349.227,151.55,349.227,338.788v1.906c0,187.371-147.703,340.727-351.031,340.727  C4524.777,815.109,4378.949,663.627,4378.949,476.356 M4927.684,476.356v-1.974c0-112.918-82.852-207.072-199.516-207.072  s-197.703,92.248-197.703,205.166v1.906c0,112.951,82.781,207.105,199.508,207.105  C4846.809,681.488,4927.684,589.207,4927.684,476.356"
     id="path5" /><path
     fill="#1B4E9C"
     d="M5132.918,144.994h301.227c83.75,0,148.633,23.514,191.984,66.827  c36.625,36.692,56.492,88.469,56.492,150.58v1.873c0,106.362-57.492,173.189-141.313,204.263l161.016,235.301H5532.91  l-141.211-210.852H5277.84v210.852h-144.922 M5424.707,465.018c70.609,0,110.977-37.695,110.977-93.185v-1.906  c0-62.111-43.273-94.12-113.82-94.12H5277.84v189.211H5424.707z"
     id="path7" /><polyline
     fill="#1B4E9C"
     points="5738.043,144.994 5883.004,144.994 5883.004,433.009 6150.348,144.994 6325.41,144.994   6057.16,424.513 6337.652,803.838 6163.559,803.838 5959.199,523.383 5883.004,602.419 5883.004,803.838 5738.043,803.838 "
     id="polyline9" /><path
     fill="#1B4E9C"
     d="M6295.309,707.845l85.625-102.583c59.336,48.934,121.445,79.973,196.703,79.973  c59.336,0,95.094-23.48,95.094-62.111v-1.907c0-36.624-22.617-55.488-132.758-83.752  c-132.648-33.915-218.305-70.606-218.305-201.419v-1.873c0-119.507,95.953-198.61,230.578-198.61  c96,0,177.945,30.137,244.773,83.786l-75.391,109.172c-58.367-40.472-115.695-64.922-171.219-64.922  c-55.625,0-84.789,25.387-84.789,57.396v1.873c0,43.314,28.367,57.396,142.188,86.596c133.688,34.818,208.875,82.849,208.875,197.64  v1.939c0,130.846-99.703,204.195-241.82,204.195C6475.051,813.236,6374.348,778.385,6295.309,707.845"
     id="path11" /><path
     fill="#1B4E9C"
     d="M798.555,144.994h301.191c83.816,0,148.738,23.514,192.055,66.827  c36.691,36.692,56.426,88.469,56.426,150.58v1.873c0,106.362-57.43,173.189-141.148,204.263l160.949,235.301h-169.445  l-141.148-210.852H943.547v210.852H798.555 M1090.348,464.984c70.605,0,111.043-37.662,111.043-93.151v-1.906  c0-62.111-43.281-94.12-113.855-94.12H943.547v189.178H1090.348z"
     id="path15" /><polyline
     fill="#1B4E9C"
     points="1403.746,144.994 1900.707,144.994 1900.707,273.934 1547.77,273.934 1547.77,407.589   1858.395,407.589 1858.395,536.527 1547.77,536.527 1547.77,674.865 1905.457,674.865 1905.457,803.838 1403.746,803.838 "
     id="polyline17" /><path
     fill="#1B4E9C"
     d="M2184.977,140.278h133.688l282.328,663.56h-151.516l-60.207-147.77h-278.648l-60.238,147.77h-147.77   M2337.426,527.999l-87.531-213.628l-87.465,213.628H2337.426z"
     id="path19" /><polyline
     fill="#1B4E9C"
     points="2608.551,144.994 2764.781,144.994 2937.973,423.576 3111.129,144.994 3267.395,144.994   3267.395,803.838 3123.371,803.838 3123.371,373.706 2937.973,655.132 2934.191,655.132 2750.668,376.516 2750.668,803.838   2608.551,803.838 "
     id="polyline21" /><g
     id="g4"
     transform="matrix(1.5125235,0,0,1.5586768,-147.08547,-128.59684)"><g
       id="g6" /><path
       d="m 55.668,331.421 0,17.699 c -0.104,-2.944 -0.155,-5.888 -0.155,-8.851 0,-2.959 0.051,-5.904 0.155,-8.848 z"
       id="path18"
       inkscape:connector-curvature="0"
       style="fill:#008cff" /><path
       d="m 597.07506,340.27 c 0,142.163 -111.893,257.415 -249.958,257.5 l -250.129002,0 0,-514.999 250.129002,0 c 138.065,0.086 249.958,115.338 249.958,257.499 z"
       id="path20-3"
       inkscape:connector-curvature="0"
       style="fill:#1b4e9c;fill-opacity:1" /><path
       id="path14_1_"
       inkscape:connector-curvature="0"
       d="m 271.309,489.493 c 0,0 -2.338,3.276 -4.363,5.455 -2.025,2.185 -2.648,3.585 -1.244,4.205 1.399,0.937 2.648,1.715 5.917,3.896 -0.934,4.829 -4.518,12.465 -6.854,16.979 -2.339,4.518 -5.142,9.194 -7.479,11.372 -2.334,2.183 -7.789,6.702 -11.216,9.973 -3.429,3.275 -7.319,5.611 -9.658,6.074 -4.209,0.628 -5.608,-2.335 -6.076,-1.557 -2.647,3.586 -1.246,7.014 3.582,7.636 1.714,0.311 2.649,1.868 5.61,2.959 2.958,1.245 7.478,0.313 9.969,-0.934 2.648,-1.247 8.102,-4.519 12.152,-6.544 4.053,-2.023 8.258,-1.87 12.932,-2.183 3.895,-0.309 4.207,-6.698 2.803,-9.968 -2.024,-4.831 -0.465,-8.104 1.871,-13.867 2.492,-5.608 8.878,-11.688 8.878,-11.688 0,0 1.715,-0.931 4.521,1.094 2.648,1.869 3.271,-1.094 6.852,-5.297 2.807,-3.27 5.923,-6.854 4.211,-8.414 -2.026,-1.869 -1.561,-2.648 -1.561,-2.648 0,0 2.024,-2.65 4.207,-4.362 l -35.054,-2.181"
       style="fill:#ffffff" /><path
       id="path16_1_"
       inkscape:connector-curvature="0"
       d="m 384.103,412.225 c 0,0 26.95,-19.322 37.388,-74.003 6.388,-33.028 3.586,-64.966 -11.528,-96.749 -22.275,-46.737 -75.87,-79.609 -127.28,-84.908 85.687,-18.848 162.803,29.758 192.25,90.829 28.663,59.355 26.174,121.518 -18.075,179.474 -9.192,11.994 -61.847,69.95 -155.168,66.989 -6.544,1.092 -22.901,-2.025 -27.89,-3.894 0,0 -8.41,-3.116 -18.693,-7.323 -10.438,-4.362 -34.896,-17.29 -49.073,-29.909 11.996,6.852 33.337,14.331 53.591,16.198 12.772,-1.867 79.918,-13.241 124.478,-56.704"
       style="fill:#ffffff" /><path
       id="path18_1_"
       inkscape:connector-curvature="0"
       d="m 349.983,361.59 c 0.778,-1.869 -4.986,0.623 -5.924,1.091 -3.27,1.558 -5.603,-0.937 -4.981,-2.495 0.622,-1.71 0.312,-2.958 -1.092,-2.801 -1.09,0.154 -1.247,-1.247 -0.778,-2.183 -1.092,0 -1.715,-0.935 -1.868,-1.403 1.714,-0.621 0.153,-2.18 -0.467,-2.492 -0.626,-0.312 -2.027,-0.465 -2.182,-1.556 -0.156,-1.091 1.092,-2.649 2.335,-3.429 1.246,-0.779 1.713,-2.182 0.314,-4.519 -1.094,-2.026 -1.715,-5.452 -0.626,-6.698 -2.491,0.311 -3.582,2.959 -3.582,2.959 -1.557,-2.803 -0.623,-5.607 -0.155,-7.01 -0.779,0.779 -2.026,2.96 -2.026,2.96 1.715,-14.8 19.631,-20.876 24.306,-21.967 8.88,-1.87 22.743,-2.18 20.565,4.362 0,0 2.801,-5.453 -2.34,-6.699 2.961,-0.154 5.294,2.961 4.206,4.984 1.403,-0.935 4.207,-1.557 4.987,-0.311 -1.402,0.156 -4.363,1.557 -4.52,2.805 2.65,-0.467 5.456,0.934 7.322,9.658 0.937,3.896 2.646,16.671 -3.271,20.877 0,0 0.312,-0.779 0.312,-1.713 0,0 -0.781,2.959 -5.142,2.959 0,0 -0.312,1.402 -0.159,2.181 0,0 5.301,-2.024 7.325,-1.245 0,0 -2.494,4.518 -3.427,6.386 3.427,0 13.864,6.545 14.488,21.501 1.557,2.493 3.425,17.136 1.557,23.837 -14.799,45.334 -122.139,71.352 -140.369,65.741 0,0 -5.139,-3.735 -0.934,-6.076 1.4,-0.778 0.312,0.314 3.584,1.249 2.024,0.468 3.582,0 6.076,-1.403 2.648,-1.559 8.257,-2.804 12.151,-5.453 3.896,-2.647 6.852,-3.271 10.905,-10.594 0.936,-1.555 1.245,-3.737 1.714,-6.388 0,-0.466 -0.313,-0.309 -4.049,-1.558 -2.183,-0.778 -3.896,0.313 -3.896,-3.585 0,-3.736 1.556,-9.501 1.869,-11.059 0.308,-1.402 1.868,-1.56 5.762,-1.402 1.715,-3.426 3.117,-9.502 4.207,-12.931 0,0 -1.09,0.313 -3.426,0.313 -2.338,0 -3.43,1.558 -7.323,2.959 -4.052,1.245 -6.076,0.936 -6.854,-1.559 -1.094,-3.272 -1.094,-4.829 -2.025,-7.164 -0.778,-1.559 -3.427,-1.559 -2.962,-3.273 0.467,-1.714 1.249,-2.494 2.495,-2.959 1.244,-1.246 4.519,-0.936 7.324,-3.586 2.803,-2.492 4.671,0.158 5.605,2.026 0.781,1.56 1.092,1.713 2.959,4.051 0.938,1.091 4.207,0.312 6.39,0 l 1.868,-7.321 c -1.246,-0.314 -6.855,-1.248 -12.932,-4.208 -6.073,-2.959 -10.593,-5.919 -12.93,-5.451 -8.566,0.935 -6.386,-0.623 -10.437,-6.7 -2.493,-3.584 -1.871,-3.74 -4.831,-5.14 -3.736,-1.558 -1.246,-5.454 0.313,-5.14 1.559,0.31 4.205,-1.248 6.543,-1.716 -0.781,-3.583 0.313,-5.765 3.74,-5.452 -0.781,2.18 2.648,7.168 6.544,8.412 4.05,1.246 5.606,7.634 5.606,8.88 3.738,3.582 21.033,3.271 24.772,3.271 1.868,-2.959 2.646,-3.582 9.813,-3.582 4.518,0 8.414,1.09 11.842,4.984 3.269,0.935 0.467,-1.867 6.073,-2.492 5.61,-0.621 8.259,-2.962 10.594,-3.582 2.342,-0.623 2.342,-2.027 4.051,-3.428 1.091,-0.777 1.872,-2.805 3.273,-3.428 1.402,-0.623 1.246,-4.986 1.868,-5.92 m -47.042,82.26 c 0,0 -1.248,5.92 0,10.905 3.427,-0.931 6.075,-3.581 8.723,-4.516 2.65,-0.938 9.66,-2.807 14.334,-4.985 0,0 0,-0.938 -1.713,-3.429 -1.248,-1.869 -4.052,-10.749 -6.698,-20.409 0,0 -1.09,-6.701 -2.026,-6.386 -0.624,0.312 -1.094,8.258 -1.246,11.838 -0.312,4.208 -0.312,2.804 -0.312,2.804 0,0 2.648,0.313 2.336,1.871 -0.468,1.713 -2.492,11.843 -3.114,13.555 -0.47,1.399 -0.78,0.779 -3.275,0.309 -2.804,-0.623 -7.009,-1.557 -7.009,-1.557 l 0,0 z m 46.114,-26.486 c 1.4,-2.181 0.934,-2.959 1.712,-7.321 0.312,-6.075 -1.868,-10.906 -1.868,-10.906 l -10.127,2.807 c 3.116,4.049 6.541,11.994 10.283,15.42"
       style="fill:#ffffff" /><path
       id="path20_1_"
       inkscape:connector-curvature="0"
       d="m 88.719,250.198 c 60.758,7.167 191.002,117.312 192.248,150.186 l -4.672,0.778 C 261.961,351.619 124.397,255.338 88.719,255.651 l 0,-5.453"
       style="fill:#ffffff" /><path
       id="path22_1_"
       inkscape:connector-curvature="0"
       d="m 279.254,409.885 c 0.313,0.936 2.181,5.298 2.336,6.076 0.156,0.778 5.143,1.56 4.209,-1.871 -0.938,-3.426 -2.338,-6.228 -2.338,-6.228 l -4.207,2.023"
       style="fill:#ffffff" /><path
       id="path24_1_"
       inkscape:connector-curvature="0"
       d="m 93.64232,597.77 3.49168,0 0,-344.3 -3.49168,0 0,344.3 z"
       style="fill:#ffffff" /></g></svg>