<?xml version="1.0" encoding="UTF-8" standalone="no"?>
<!-- Generator: Adobe Illustrator 16.0.0, SVG Export Plug-In . SVG Version: 6.00 Build 0)  -->

<svg
   xmlns:dc="http://purl.org/dc/elements/1.1/"
   xmlns:cc="http://creativecommons.org/ns#"
   xmlns:rdf="http://www.w3.org/1999/02/22-rdf-syntax-ns#"
   xmlns:svg="http://www.w3.org/2000/svg"
   xmlns="http://www.w3.org/2000/svg"
   xmlns:sodipodi="http://sodipodi.sourceforge.net/DTD/sodipodi-0.dtd"
   xmlns:inkscape="http://www.inkscape.org/namespaces/inkscape"
   version="1.1"
   id="Layer_1"
   x="0px"
   y="0px"
   width="1000"
   height="1000.001"
   viewBox="0 0 1000 1000.001"
   enable-background="new 0 0 1000 1000"
   xml:space="preserve"
   inkscape:version="0.91 r13725"
   sodipodi:docname="EA Circle.svg"><metadata
   id="metadata6407"><rdf:RDF><cc:Work
       rdf:about=""><dc:format>image/svg+xml</dc:format><dc:type
         rdf:resource="http://purl.org/dc/dcmitype/StillImage" /><dc:title></dc:title></cc:Work></rdf:RDF></metadata><defs
   id="defs6405" /><sodipodi:namedview
   pagecolor="#ffffff"
   bordercolor="#666666"
   borderopacity="1"
   objecttolerance="10"
   gridtolerance="10"
   guidetolerance="10"
   inkscape:pageopacity="0"
   inkscape:pageshadow="2"
   inkscape:window-width="1366"
   inkscape:window-height="705"
   id="namedview6403"
   showgrid="false"
   inkscape:zoom="0.472"
   inkscape:cx="379.88052"
   inkscape:cy="516.78162"
   inkscape:window-x="-8"
   inkscape:window-y="-8"
   inkscape:window-maximized="1"
   inkscape:current-layer="Layer_1" />

<g
   id="g6397"
   transform="matrix(1.1510805,0,0,1.1510666,-75.547713,-75.547537)">
	<g
   id="g6399">
		<path
   d="m 500.006,934.393 c -239.516,0 -434.374,-194.862 -434.374,-434.379 0,-239.52 194.858,-434.381 434.374,-434.381 239.513,0 434.375,194.862 434.375,434.381 0,239.516 -194.861,434.379 -434.375,434.379 z m 169.533,-579.932 3.938,0 0,-19.076 7.098,0 0,-3.368 -18.117,0 0,3.368 7.082,0 0,19.076 z m 17.318,-17.342 0.072,0 6.225,17.342 3.207,0 6.223,-17.342 0.088,0 0,17.342 3.699,0 0,-22.443 -5.436,0 -6.016,17.554 -0.104,0 -6.162,-17.554 -5.525,0 0,22.443 3.729,0 z m -113.33,-5.12 -245.486,0 -37.247,59.858 245.204,0 z m 50.168,0.571 -150.071,238.963 -166.464,0 38.405,-59.909 99.771,0 38.112,-59.88 -230.654,0 -38.104,59.88 54.641,0 -75.812,119.611 316.389,0 116.86,-184.295 42.609,64.684 -38.42,0 -36.385,59.909 113.773,0 39.506,59.702 72.576,0 z"
   id="path6401"
   inkscape:connector-curvature="0"
   style="clip-rule:evenodd;fill-rule:evenodd"
   sodipodi:nodetypes="sssssccccccccccccccccccccccccccccccccccccccccccccccccccc" />
	</g>
</g>
</svg>