<?xml version="1.0" encoding="utf-8"?>
<!-- Generator: Adobe Illustrator 22.1.0, SVG Export Plug-In . SVG Version: 6.00 Build 0)  -->
<!DOCTYPE svg PUBLIC "-//W3C//DTD SVG 1.1//EN" "http://www.w3.org/Graphics/SVG/1.1/DTD/svg11.dtd">
<svg version="1.1"
	 id="svg81711" inkscape:version="0.92.0 r15299" sodipodi:docname="ipsen.svg" xmlns:cc="http://creativecommons.org/ns#" xmlns:dc="http://purl.org/dc/elements/1.1/" xmlns:inkscape="http://www.inkscape.org/namespaces/inkscape" xmlns:rdf="http://www.w3.org/1999/02/22-rdf-syntax-ns#" xmlns:sodipodi="http://sodipodi.sourceforge.net/DTD/sodipodi-0.dtd" xmlns:svg="http://www.w3.org/2000/svg"
	 xmlns="http://www.w3.org/2000/svg" xmlns:xlink="http://www.w3.org/1999/xlink" x="0px" y="0px" viewBox="0 0 90.2 26.2"
	 style="enable-background:new 0 0 90.2 26.2;" xml:space="preserve">
<style type="text/css">
	.st0{clip-path:url(#SVGID_2_);}
	.st1{fill:#13366D;}
	.st2{fill:none;stroke:#000000;stroke-width:1.2171;stroke-linecap:round;stroke-linejoin:round;}
	.st3{fill:none;stroke:#000000;stroke-miterlimit:10;}
	.st4{fill:#258CD4;}
</style>
<sodipodi:namedview  bordercolor="#666666" borderopacity="1.0" fit-margin-bottom="0" fit-margin-left="0" fit-margin-right="0" fit-margin-top="0" id="base" inkscape:current-layer="layer1" inkscape:cx="44.611885" inkscape:cy="12.591247" inkscape:document-units="mm" inkscape:pageopacity="0.0" inkscape:pageshadow="2" inkscape:window-height="744" inkscape:window-maximized="1" inkscape:window-width="1280" inkscape:window-x="-4" inkscape:window-y="-4" inkscape:zoom="8.9886361" pagecolor="#ffffff" showgrid="false" units="px">
	</sodipodi:namedview>
<g>
	<defs>
		<rect id="SVGID_1_" x="0.7" y="0.7" width="89" height="25"/>
	</defs>
	<clipPath id="SVGID_2_">
		<use xlink:href="#SVGID_1_"  style="overflow:visible;"/>
	</clipPath>
	<g id="g81250" class="st0">
		<path id="path81256" inkscape:connector-curvature="0" class="st1" d="M12.3,0.7c0,0-17.5,6.3-2.9,12.6C9.4,13.3-8,7.1,12.3,0.7"
			/>
		<g id="g81258" transform="scale(0.9999998,-1)">
			<path id="path81260" inkscape:connector-curvature="0" class="st2" d="M12.3-0.7c0,0-17.5-6.3-2.9-12.6C9.4-13.3-8-7.1,12.3-0.7z
				"/>
		</g>
		<path id="path81262" inkscape:connector-curvature="0" class="st3" d="M3.7,24.5c0,0,17.7-5.8,3-12.4C6.7,12.1,24.3,18.7,3.7,24.5
			"/>
		<g id="g81264" transform="scale(0.9999998,-1)">
			<path id="path81266" inkscape:connector-curvature="0" class="st2" d="M3.7-24.5c0,0,17.7,5.8,3,12.4
				C6.7-12.1,24.3-18.7,3.7-24.5z"/>
		</g>
		<path id="path81268" inkscape:connector-curvature="0" class="st4" d="M0.7,14.3c0,0,17.7-5.8,3-12.4C3.7,1.9,21.3,8.5,0.7,14.3"
			/>
		<g id="g81270" transform="scale(0.9999998,-1)">
			<path id="path81272" inkscape:connector-curvature="0" class="st2" d="M0.7-14.3c0,0,17.7,5.8,3,12.4C3.7-1.9,21.3-8.5,0.7-14.3z
				"/>
		</g>
		<path id="path81274" inkscape:connector-curvature="0" class="st4" d="M15.2,10c0,0-17.5,6.3-2.9,12.6C12.3,22.6-5.2,16.3,15.2,10
			"/>
		<g id="g81276" transform="scale(0.9999998,-1)">
			<path id="path81278" inkscape:connector-curvature="0" class="st2" d="M15.2-10c0,0-17.5-6.3-2.9-12.6
				C12.3-22.6-5.2-16.3,15.2-10z"/>
		</g>
		<path id="path81280" inkscape:connector-curvature="0" d="M14.2,6.5c0.3,0.8,0,1.7-0.9,2c-0.8,0.3-1.5-0.4-1.6-0.9
			c-0.2-0.8,0.7-1.4,1.7-1.6C13.8,6.1,14.1,6.2,14.2,6.5"/>
		<path id="path81282" inkscape:connector-curvature="0" d="M37,10.9c0,1-0.3,1.4-1.2,1.4h-5.2V9.1c0-0.9,0.4-1.4,1.6-1.4
			c1,0,3.6,0,3.6,0c1,0,1.3,0.4,1.2,1.3L37,10.9L37,10.9z M38.6,6.2H25.8v11.7h4.7v-4.1h8c2,0,3.1-0.4,3.1-2.4V8.6
			C41.7,6.6,40.5,6.2,38.6,6.2"/>
		<path id="path81284" inkscape:connector-curvature="0" d="M18.8,17.9h4.7V6.2h-4.7V17.9z"/>
		<path id="path81286" inkscape:connector-curvature="0" d="M58,15.5c0,1.3-0.4,2.4-3.1,2.4H44.2v-1.5h8c0.7,0,1.1-0.4,1.1-1.1V14
			c0-0.9-0.4-1.3-1.2-1.3h-6.2c-2.1,0-2.7-1-2.7-2.3V8.3c0-1.3,1-2.1,2.7-2.1h10.3c0,0-0.1,1.5-2,1.5c-0.9,0-5.2,0-5.2,0
			c-1,0-1.2,0.6-1.2,1.2V10c0,0.7,0.3,1.2,1.2,1.2h6c2.3,0,2.9,0.9,2.9,2.6L58,15.5"/>
		<path id="path81288" inkscape:connector-curvature="0" d="M59.4,17.9V6.2h12.8v1.5c0,0-6.3,0-6.9,0c-0.8,0-1.2,0.3-1.2,1.2
			c0,0.4,0,2.3,0,2.3h6.7c0,0-0.1,1.5-2,1.5c-0.5,0-4.7,0-4.7,0s0,1.7,0,2.4c0,0.9,0.5,1.2,1.2,1.2c0.7,0,6.9,0,6.9,0v1.5L59.4,17.9
			"/>
		<path id="path81290" inkscape:connector-curvature="0" d="M85.7,17.9c-1.1,0-1.9-0.5-2.8-1.4c-0.6-0.7-7-8.1-7-8.1h-0.1v9.5h-2.2
			V6.2c0,0,3.6,0,4.3,0c0.7,0,1.5,0.1,2.1,0.9c0.6,0.7,7.3,8.4,7.3,8.4h0.1V6.2h2.2v11.7C89.7,17.9,86.5,17.9,85.7,17.9"/>
		<path id="path81292" inkscape:connector-curvature="0" d="M19.3,24.2c0,0.2-0.1,0.3-0.3,0.3c-0.2,0-0.3-0.1-0.3-0.3v-3.7
			c0-0.2,0.1-0.3,0.3-0.3c0.2,0,0.3,0.1,0.3,0.3V24.2"/>
		<path id="path81294" inkscape:connector-curvature="0" d="M20.1,21.6c0-0.2,0.1-0.3,0.3-0.3c0.2,0,0.3,0.1,0.3,0.3v0.1l0,0
			c0.3-0.3,0.6-0.4,0.9-0.4c0.5,0,1.2,0.3,1.2,1.2v1.7c0,0.2-0.1,0.3-0.3,0.3c-0.2,0-0.3-0.1-0.3-0.3v-1.7c0-0.5-0.4-0.8-0.8-0.8
			s-0.8,0.2-0.8,0.8v1.7c0,0.2-0.1,0.3-0.3,0.3c-0.2,0-0.3-0.1-0.3-0.3L20.1,21.6"/>
		<path id="path81296" inkscape:connector-curvature="0" d="M23.6,21.6c0-0.2,0.1-0.3,0.3-0.3c0.2,0,0.3,0.1,0.3,0.3v0.1l0,0
			c0.3-0.3,0.6-0.4,0.9-0.4c0.5,0,1.2,0.3,1.2,1.2v1.7c0,0.2-0.1,0.3-0.3,0.3c-0.2,0-0.3-0.1-0.3-0.3v-1.7c0-0.5-0.4-0.8-0.8-0.8
			s-0.8,0.2-0.8,0.8v1.7c0,0.2-0.1,0.3-0.3,0.3c-0.2,0-0.3-0.1-0.3-0.3L23.6,21.6"/>
		<path id="path81298" inkscape:connector-curvature="0" d="M28.5,24c0.7,0,0.9-0.6,0.9-1.1s-0.2-1.1-0.9-1.1
			c-0.7,0-0.9,0.6-0.9,1.1C27.6,23.4,27.8,24,28.5,24z M28.5,21.3c1,0,1.5,0.8,1.5,1.6s-0.5,1.6-1.5,1.6S27,23.7,27,22.9
			S27.5,21.3,28.5,21.3"/>
		<path id="path81300" inkscape:connector-curvature="0" d="M30.4,21.7c0-0.1-0.1-0.2-0.1-0.2c0-0.2,0.1-0.2,0.3-0.2
			c0.2,0,0.3,0.1,0.3,0.2l0.8,2.1h0l0.8-2.1c0-0.1,0.1-0.2,0.3-0.2c0.1,0,0.3,0.1,0.3,0.2c0,0.1,0,0.1-0.1,0.2l-1,2.5
			c-0.1,0.2-0.1,0.2-0.3,0.2c-0.2,0-0.2-0.1-0.3-0.2L30.4,21.7"/>
		<path id="path81302" inkscape:connector-curvature="0" d="M34.8,24c0.7,0,0.9-0.6,0.9-1.1s-0.2-1.1-0.9-1.1s-0.9,0.6-0.9,1.1
			C33.9,23.4,34.1,24,34.8,24z M36.3,24.2c0,0.2-0.2,0.3-0.3,0.3c-0.1,0-0.3-0.1-0.3-0.3V24h0c-0.2,0.3-0.6,0.5-0.9,0.5
			c-1,0-1.5-0.8-1.5-1.6s0.5-1.6,1.5-1.6c0.4,0,0.7,0.2,0.9,0.4h0v-0.2c0-0.2,0.2-0.3,0.3-0.3c0.1,0,0.3,0.1,0.3,0.3V24.2"/>
		<path id="path81304" inkscape:connector-curvature="0" d="M37.2,20.7c0-0.2,0.1-0.3,0.3-0.3c0.2,0,0.3,0.1,0.3,0.3v0.7h0.2
			c0.2,0,0.3,0.1,0.3,0.2c0,0.1-0.1,0.2-0.3,0.2h-0.2v2.4c0,0.2-0.1,0.3-0.3,0.3c-0.2,0-0.3-0.1-0.3-0.3v-2.4H37
			c-0.2,0-0.3-0.1-0.3-0.2c0-0.1,0.1-0.2,0.3-0.2h0.2V20.7"/>
		<path id="path81306" inkscape:connector-curvature="0" d="M39.3,24.2c0,0.2-0.1,0.3-0.3,0.3c-0.2,0-0.3-0.1-0.3-0.3v-2.6
			c0-0.2,0.1-0.3,0.3-0.3c0.2,0,0.3,0.1,0.3,0.3V24.2z M39.1,20.2c0.2,0,0.3,0.1,0.3,0.3c0,0.2-0.2,0.3-0.3,0.3
			c-0.2,0-0.3-0.1-0.3-0.3C38.7,20.4,38.9,20.2,39.1,20.2"/>
		<path id="path81308" inkscape:connector-curvature="0" d="M41.5,24c0.7,0,0.9-0.6,0.9-1.1s-0.2-1.1-0.9-1.1
			c-0.7,0-0.9,0.6-0.9,1.1C40.5,23.4,40.8,24,41.5,24z M41.5,21.3c1,0,1.5,0.8,1.5,1.6s-0.5,1.6-1.5,1.6S40,23.7,40,22.9
			C40,22.1,40.5,21.3,41.5,21.3"/>
		<path id="path81310" inkscape:connector-curvature="0" d="M43.6,21.6c0-0.2,0.1-0.3,0.3-0.3s0.3,0.1,0.3,0.3v0.1l0,0
			c0.3-0.3,0.6-0.4,0.9-0.4c0.5,0,1.2,0.3,1.2,1.2v1.7c0,0.2-0.1,0.3-0.3,0.3s-0.3-0.1-0.3-0.3v-1.7c0-0.5-0.4-0.8-0.8-0.8
			s-0.8,0.2-0.8,0.8v1.7c0,0.2-0.1,0.3-0.3,0.3c-0.2,0-0.3-0.1-0.3-0.3L43.6,21.6"/>
		<path id="path81312" inkscape:connector-curvature="0" d="M49.5,24.2c0,0.2-0.1,0.3-0.3,0.3S49,24.4,49,24.2v-2.4h-0.2
			c-0.2,0-0.3-0.1-0.3-0.2c0-0.1,0.1-0.2,0.3-0.2H49v-0.7c0-0.4,0.3-0.7,0.8-0.7h0.2c0.2,0,0.3,0.1,0.3,0.2s-0.1,0.2-0.3,0.2h-0.1
			c-0.2,0-0.2,0.1-0.2,0.2v0.8h0.4c0.2,0,0.3,0.1,0.3,0.2c0,0.1-0.1,0.2-0.3,0.2h-0.4L49.5,24.2"/>
		<path id="path81314" inkscape:connector-curvature="0" d="M51.9,24c0.7,0,0.9-0.6,0.9-1.1s-0.2-1.1-0.9-1.1
			c-0.7,0-0.9,0.6-0.9,1.1S51.2,24,51.9,24z M51.9,21.3c1,0,1.5,0.8,1.5,1.6s-0.5,1.6-1.5,1.6s-1.5-0.8-1.5-1.6
			C50.3,22.1,50.9,21.3,51.9,21.3"/>
		<path id="path81316" inkscape:connector-curvature="0" d="M54,21.6c0-0.2,0.1-0.3,0.3-0.3s0.3,0.1,0.3,0.3v0.3h0
			c0.1-0.2,0.4-0.5,0.8-0.5c0.2,0,0.3,0.1,0.3,0.3s-0.1,0.2-0.4,0.3c-0.3,0.1-0.8,0.3-0.8,0.9v1.5c0,0.2-0.1,0.3-0.3,0.3
			c-0.2,0-0.3-0.1-0.3-0.3L54,21.6"/>
		<path id="path81318" inkscape:connector-curvature="0" d="M59.2,24c0.7,0,0.9-0.6,0.9-1.1s-0.2-1.1-0.9-1.1
			c-0.7,0-0.9,0.6-0.9,1.1S58.5,24,59.2,24z M57.8,21.6c0-0.2,0.1-0.3,0.3-0.3c0.2,0,0.3,0.1,0.3,0.3v0.2h0c0.2-0.3,0.5-0.4,0.9-0.4
			c0.9,0,1.5,0.8,1.5,1.6s-0.5,1.6-1.5,1.6c-0.4,0-0.8-0.2-0.9-0.4h0v1.4c0,0.2-0.1,0.3-0.3,0.3c-0.2,0-0.3-0.1-0.3-0.3V21.6"/>
		<path id="path81320" inkscape:connector-curvature="0" d="M62.7,24c0.7,0,0.9-0.6,0.9-1.1s-0.2-1.1-0.9-1.1
			c-0.7,0-0.9,0.6-0.9,1.1C61.8,23.4,62,24,62.7,24z M64.2,24.2c0,0.2-0.2,0.3-0.3,0.3c-0.1,0-0.3-0.1-0.3-0.3V24h0
			c-0.2,0.3-0.6,0.5-0.9,0.5c-1,0-1.5-0.8-1.5-1.6s0.5-1.6,1.5-1.6c0.4,0,0.7,0.2,0.9,0.4h0v-0.2c0-0.2,0.2-0.3,0.3-0.3
			c0.1,0,0.3,0.1,0.3,0.3V24.2"/>
		<path id="path81322" inkscape:connector-curvature="0" d="M65.2,20.7c0-0.2,0.1-0.3,0.3-0.3s0.3,0.1,0.3,0.3v0.7H66
			c0.2,0,0.3,0.1,0.3,0.2c0,0.1-0.1,0.2-0.3,0.2h-0.2v2.4c0,0.2-0.1,0.3-0.3,0.3s-0.3-0.1-0.3-0.3v-2.4h-0.2c-0.2,0-0.3-0.1-0.3-0.2
			c0-0.1,0.1-0.2,0.3-0.2h0.2V20.7"/>
		<path id="path81324" inkscape:connector-curvature="0" d="M67.3,24.2c0,0.2-0.1,0.3-0.3,0.3c-0.2,0-0.3-0.1-0.3-0.3v-2.6
			c0-0.2,0.1-0.3,0.3-0.3c0.2,0,0.3,0.1,0.3,0.3V24.2z M67,20.2c0.2,0,0.3,0.1,0.3,0.3c0,0.2-0.2,0.3-0.3,0.3
			c-0.2,0-0.3-0.1-0.3-0.3C66.6,20.4,66.8,20.2,67,20.2"/>
		<path id="path81326" inkscape:connector-curvature="0" d="M70.3,22.7c0-0.4-0.3-1-0.9-1c-0.7,0-1,0.5-1,1H70.3z M68.4,23.1
			c0,0.5,0.4,0.9,1,0.9c0.8,0,0.9-0.4,1.2-0.4c0.1,0,0.2,0.1,0.2,0.2c0,0.3-0.7,0.6-1.4,0.6c-1.1,0-1.6-0.8-1.6-1.6
			c0-0.8,0.6-1.6,1.5-1.6c0.9,0,1.5,0.8,1.5,1.5c0,0.2-0.1,0.3-0.3,0.3L68.4,23.1"/>
		<path id="path81328" inkscape:connector-curvature="0" d="M71.4,21.6c0-0.2,0.1-0.3,0.3-0.3c0.2,0,0.3,0.1,0.3,0.3v0.1l0,0
			c0.3-0.3,0.6-0.4,0.9-0.4c0.5,0,1.2,0.3,1.2,1.2v1.7c0,0.2-0.1,0.3-0.3,0.3c-0.2,0-0.3-0.1-0.3-0.3v-1.7c0-0.5-0.4-0.8-0.8-0.8
			S72,22,72,22.5v1.7c0,0.2-0.1,0.3-0.3,0.3c-0.2,0-0.3-0.1-0.3-0.3L71.4,21.6"/>
		<path id="path81330" inkscape:connector-curvature="0" d="M75.1,20.7c0-0.2,0.1-0.3,0.3-0.3s0.3,0.1,0.3,0.3v0.7h0.2
			c0.2,0,0.3,0.1,0.3,0.2c0,0.1-0.1,0.2-0.3,0.2h-0.2v2.4c0,0.2-0.1,0.3-0.3,0.3s-0.3-0.1-0.3-0.3v-2.4h-0.2c-0.2,0-0.3-0.1-0.3-0.2
			c0-0.1,0.1-0.2,0.3-0.2h0.2V20.7"/>
		<path id="path81332" inkscape:connector-curvature="0" d="M79.7,21.3c0.6,0,0.9,0.2,0.9,0.4c0,0.1-0.1,0.2-0.2,0.2
			c-0.2,0-0.3-0.2-0.7-0.2c-0.7,0-1,0.6-1,1.1s0.3,1.1,1,1.1c0.4,0,0.5-0.2,0.7-0.2c0.1,0,0.2,0.1,0.2,0.2c0,0.2-0.3,0.4-0.9,0.4
			c-1,0-1.5-0.8-1.5-1.6C78.2,22.1,78.7,21.3,79.7,21.3"/>
		<path id="path81334" inkscape:connector-curvature="0" d="M82.6,24c0.7,0,0.9-0.6,0.9-1.1s-0.2-1.1-0.9-1.1
			c-0.7,0-0.9,0.6-0.9,1.1S81.9,24,82.6,24z M84.1,24.2c0,0.2-0.2,0.3-0.3,0.3c-0.1,0-0.3-0.1-0.3-0.3V24h0
			c-0.2,0.3-0.6,0.5-0.9,0.5c-1,0-1.5-0.8-1.5-1.6s0.5-1.6,1.5-1.6c0.4,0,0.7,0.2,0.9,0.4h0v-0.2c0-0.2,0.2-0.3,0.3-0.3
			c0.1,0,0.3,0.1,0.3,0.3V24.2"/>
		<path id="path81336" inkscape:connector-curvature="0" d="M84.8,21.6c0-0.2,0.1-0.3,0.3-0.3s0.3,0.1,0.3,0.3v0.3h0
			c0.1-0.2,0.4-0.5,0.8-0.5c0.2,0,0.3,0.1,0.3,0.3s-0.1,0.2-0.4,0.3c-0.3,0.1-0.8,0.3-0.8,0.9v1.5c0,0.2-0.1,0.3-0.3,0.3
			c-0.2,0-0.3-0.1-0.3-0.3L84.8,21.6"/>
		<path id="path81338" inkscape:connector-curvature="0" d="M89.2,22.7c0-0.4-0.3-1-0.9-1c-0.7,0-1,0.5-1,1H89.2z M87.3,23.1
			c0,0.5,0.4,0.9,1,0.9c0.8,0,0.9-0.4,1.2-0.4c0.1,0,0.2,0.1,0.2,0.2c0,0.3-0.7,0.6-1.4,0.6c-1.1,0-1.6-0.8-1.6-1.6
			c0-0.8,0.6-1.6,1.5-1.6c0.9,0,1.5,0.8,1.5,1.5c0,0.2-0.1,0.3-0.3,0.3L87.3,23.1"/>
	</g>
</g>
</svg>
