<?xml version="1.0" encoding="UTF-8" standalone="no"?>
<!-- Created with Inkscape (http://www.inkscape.org/) -->

<svg
   xmlns:dc="http://purl.org/dc/elements/1.1/"
   xmlns:cc="http://creativecommons.org/ns#"
   xmlns:rdf="http://www.w3.org/1999/02/22-rdf-syntax-ns#"
   xmlns:svg="http://www.w3.org/2000/svg"
   xmlns="http://www.w3.org/2000/svg"
   xmlns:sodipodi="http://sodipodi.sourceforge.net/DTD/sodipodi-0.dtd"
   xmlns:inkscape="http://www.inkscape.org/namespaces/inkscape"
   width="90.22377"
   height="26.182489"
   viewBox="0 0 23.871705 6.9274503"
   version="1.1"
   id="svg81711"
   inkscape:version="0.92.0 r15299"
   sodipodi:docname="ipsen.svg">
  <defs
     id="defs81705">
    <clipPath
       id="clipPath81254"
       clipPathUnits="userSpaceOnUse">
      <path
         inkscape:connector-curvature="0"
         id="path81252"
         d="m 780.6953,187.0859 v -78.6953 h 278.8277 v 78.6953 z" />
    </clipPath>
  </defs>
  <sodipodi:namedview
     id="base"
     pagecolor="#ffffff"
     bordercolor="#666666"
     borderopacity="1.0"
     inkscape:pageopacity="0.0"
     inkscape:pageshadow="2"
     inkscape:zoom="8.9886361"
     inkscape:cx="44.611885"
     inkscape:cy="12.591247"
     inkscape:document-units="mm"
     inkscape:current-layer="layer1"
     showgrid="false"
     fit-margin-top="0"
     fit-margin-left="0"
     fit-margin-right="0"
     fit-margin-bottom="0"
     units="px"
     inkscape:window-width="1280"
     inkscape:window-height="744"
     inkscape:window-x="-4"
     inkscape:window-y="-4"
     inkscape:window-maximized="1" />
  <metadata
     id="metadata81708">
    <rdf:RDF>
      <cc:Work
         rdf:about="">
        <dc:format>image/svg+xml</dc:format>
        <dc:type
           rdf:resource="http://purl.org/dc/dcmitype/StillImage" />
        <dc:title></dc:title>
      </cc:Work>
    </rdf:RDF>
  </metadata>
  <g
     inkscape:label="Layer 1"
     inkscape:groupmode="layer"
     id="layer1"
     transform="translate(-115.95239,-198.15398)">
    <g
       id="g81248"
       transform="matrix(0.08466666,0,0,-0.08466666,49.985531,214.12621)">
      <g
         clip-path="url(#clipPath81254)"
         id="g81250">
        <path
           inkscape:connector-curvature="0"
           id="path81256"
           style="fill:#13366d;fill-opacity:1;fill-rule:nonzero;stroke:none"
           d="m 817.5117,186.4805 c 0,0 -54.7187,-19.6914 -9.0234,-39.3047 0,0 -54.5,19.3867 9.0234,39.3047" />
        <g
           transform="scale(0.9999998,-1)"
           id="g81258">
          <path
             inkscape:connector-curvature="0"
             id="path81260"
             style="fill:none;stroke:#13366d;stroke-width:1.21705902;stroke-linecap:round;stroke-linejoin:round;stroke-miterlimit:4;stroke-dasharray:none;stroke-opacity:1"
             d="m 817.5119,-186.4804 c 0,0 -54.7187,19.6914 -9.0234,39.3047 0,0 -54.5,-19.3868 9.0234,-39.3047 z" />
        </g>
        <path
           inkscape:connector-curvature="0"
           id="path81262"
           style="fill:#13366d;fill-opacity:1;fill-rule:nonzero;stroke:none"
           d="m 790.6992,112.0859 c 0,0 55.3867,18.2305 9.5117,38.7539 0,0 54.7539,-20.5078 -9.5117,-38.7539" />
        <g
           transform="scale(0.9999998,-1)"
           id="g81264">
          <path
             inkscape:connector-curvature="0"
             id="path81266"
             style="fill:none;stroke:#13366d;stroke-width:1.21705902;stroke-linecap:round;stroke-linejoin:round;stroke-miterlimit:4;stroke-dasharray:none;stroke-opacity:1"
             d="m 790.6994,-112.0859 c 0,0 55.3867,-18.2305 9.5117,-38.7539 0,0 54.7539,20.5078 -9.5117,38.7539 z" />
        </g>
        <path
           inkscape:connector-curvature="0"
           id="path81268"
           style="fill:#258cd4;fill-opacity:1;fill-rule:nonzero;stroke:none"
           d="m 781.3047,143.8125 c 0,0 55.3828,18.2305 9.5078,38.7539 0,0 54.7539,-20.5117 -9.5078,-38.7539" />
        <g
           transform="scale(0.9999998,-1)"
           id="g81270">
          <path
             inkscape:connector-curvature="0"
             id="path81272"
             style="fill:none;stroke:#258cd4;stroke-width:1.21705902;stroke-linecap:round;stroke-linejoin:round;stroke-miterlimit:4;stroke-dasharray:none;stroke-opacity:1"
             d="m 781.3049,-143.8125 c 0,0 55.3828,-18.2304 9.5078,-38.7539 0,0 54.7539,20.5118 -9.5078,38.7539 z" />
        </g>
        <path
           inkscape:connector-curvature="0"
           id="path81274"
           style="fill:#258cd4;fill-opacity:1;fill-rule:nonzero;stroke:none"
           d="m 826.5586,157.4922 c 0,0 -54.7148,-19.6914 -9.0195,-39.3047 0,0 -54.5,19.3867 9.0195,39.3047" />
        <g
           transform="scale(0.9999998,-1)"
           id="g81276">
          <path
             inkscape:connector-curvature="0"
             id="path81278"
             style="fill:none;stroke:#258cd4;stroke-width:1.21705902;stroke-linecap:round;stroke-linejoin:round;stroke-miterlimit:4;stroke-dasharray:none;stroke-opacity:1"
             d="m 826.5588,-157.4921 c 0,0 -54.7149,19.6914 -9.0195,39.3046 0,0 -54.5001,-19.3867 9.0195,-39.3046 z" />
        </g>
        <path
           inkscape:connector-curvature="0"
           id="path81280"
           style="fill:#258cd4;fill-opacity:1;fill-rule:nonzero;stroke:none"
           d="m 823.5703,168.2383 c 1.086,-2.5586 0.1172,-5.2422 -2.8437,-6.3789 -2.4258,-1.0078 -4.543,1.1836 -5.0586,2.8515 -0.5078,2.5704 2.3281,4.3438 5.3711,4.875 1.1093,0.0704 2.0468,-0.3711 2.5312,-1.3476" />
        <path
           inkscape:connector-curvature="0"
           id="path81282"
           style="fill:#13366d;fill-opacity:1;fill-rule:nonzero;stroke:none"
           d="m 894.7734,154.6484 c 0,-3.0273 -0.8281,-4.3125 -3.9023,-4.3125 h -16.3789 c 0,0 -0.0117,10.0274 0,10.0274 0.0156,2.7812 1.332,4.2461 4.9883,4.2461 3.0703,0 11.3906,0 11.3906,0 3.0312,0 3.9336,-1.2735 3.9023,-4.2149 z m 4.8555,14.6524 h -39.793 V 132.707 h 14.6563 v 12.9219 l 25.1367,0.004 c 6.1289,0 9.7852,1.3711 9.7852,7.4063 v 8.8554 c 0,6.086 -3.6563,7.4063 -9.7852,7.4063" />
        <path
           inkscape:connector-curvature="0"
           id="path81284"
           style="fill:#13366d;fill-opacity:1;fill-rule:nonzero;stroke:none"
           d="m 837.9453,132.707 h 14.65625 v 36.59375 H 837.9453 Z" />
        <path
           inkscape:connector-curvature="0"
           id="path81286"
           style="fill:#13366d;fill-opacity:1;fill-rule:nonzero;stroke:none"
           d="m 960.2461,140.332 c 0,-4.0898 -1.1758,-7.625 -9.5664,-7.625 h -33.4219 v 4.7188 h 24.8399 c 2.1289,0 3.5078,1.2773 3.5078,3.3515 v 4.1954 c 0,2.75 -1.1875,3.9179 -3.6992,3.9179 h -19.4415 c -6.5429,0 -8.496,3.211 -8.496,7.1055 l -0.008,6.668 c 0.0235,4.0156 3.1172,6.6367 8.5079,6.6367 h 32.3359 c 0,0 -0.3594,-4.6914 -6.1641,-4.6914 -2.8164,0 -16.25,0 -16.25,0 -3.0781,0 -3.789,-1.7656 -3.789,-3.7813 v -3.457 c 0,-2.1953 0.875,-3.7891 3.6054,-3.7891 l 18.8633,0.0118 c 7.2969,0 9.1758,-2.8282 9.1758,-8.0586 v -5.2032" />
        <path
           inkscape:connector-curvature="0"
           id="path81288"
           style="fill:#13366d;fill-opacity:1;fill-rule:nonzero;stroke:none"
           d="m 964.7578,132.7656 v 36.5938 h 39.9842 v -4.75 c 0,0 -19.6795,0 -21.4686,0 -2.4492,0 -3.8281,-0.8906 -3.8281,-3.8399 0,-1.3203 0,-7.1875 0,-7.1875 h 20.9927 c 0,0 -0.368,-4.6953 -6.1724,-4.6953 -1.6758,0 -14.8203,0 -14.8203,0 0,0 0,-5.3125 0,-7.5469 0,-2.9101 1.4414,-3.8476 3.6758,-3.8476 2.2383,0 21.6209,0 21.6209,0 v -4.7266 h -39.9842" />
        <path
           inkscape:connector-curvature="0"
           id="path81290"
           style="fill:#13366d;fill-opacity:1;fill-rule:nonzero;stroke:none"
           d="m 1047.094,132.707 c -3.496,0 -6.078,1.461 -8.715,4.4375 -1.914,2.1563 -21.973,25.1797 -21.973,25.1797 h -0.195 V 132.707 h -6.742 v 36.5938 c 0,0 11.394,0 13.472,0 2.082,0 4.618,-0.3594 6.664,-2.7461 1.821,-2.1211 22.825,-26.3047 22.825,-26.3047 h 0.203 v 29.0508 h 6.805 V 132.707 c 0,0 -10.137,0 -12.344,0" />
        <path
           inkscape:connector-curvature="0"
           id="path81292"
           style="fill:#13366d;fill-opacity:1;fill-rule:nonzero;stroke:none"
           d="m 839.5703,113.0703 c 0,-0.5273 -0.3398,-0.8555 -0.8867,-0.8555 -0.5469,0 -0.8906,0.3282 -0.8906,0.8555 v 11.461 c 0,0.5312 0.3437,0.8593 0.8906,0.8593 0.5469,0 0.8867,-0.3281 0.8867,-0.8593 v -11.461" />
        <path
           inkscape:connector-curvature="0"
           id="path81294"
           style="fill:#13366d;fill-opacity:1;fill-rule:nonzero;stroke:none"
           d="m 842.0156,121.2578 c 0,0.5274 0.3438,0.8555 0.8907,0.8555 0.5429,0 0.8867,-0.3281 0.8867,-0.8555 v -0.3828 l 0.039,-0.0352 c 0.7891,0.9102 1.9024,1.2735 2.9727,1.2735 1.6562,0 3.7344,-0.9453 3.7344,-3.6758 v -5.3672 c 0,-0.5273 -0.3438,-0.8555 -0.8907,-0.8555 -0.5429,0 -0.8867,0.3282 -0.8867,0.8555 v 5.2774 c 0,1.6914 -1.3125,2.3828 -2.4844,2.3828 -1.1718,0 -2.4843,-0.6914 -2.4843,-2.3828 v -5.2774 c 0,-0.5273 -0.3438,-0.8555 -0.8867,-0.8555 -0.5469,0 -0.8907,0.3282 -0.8907,0.8555 v 8.1875" />
        <path
           inkscape:connector-curvature="0"
           id="path81296"
           style="fill:#13366d;fill-opacity:1;fill-rule:nonzero;stroke:none"
           d="m 852.9844,121.2578 c 0,0.5274 0.3437,0.8555 0.8867,0.8555 0.5469,0 0.8906,-0.3281 0.8906,-0.8555 v -0.3828 l 0.043,-0.0352 c 0.7851,0.9102 1.8984,1.2735 2.9648,1.2735 1.6602,0 3.7383,-0.9453 3.7383,-3.6758 v -5.3672 c 0,-0.5273 -0.3437,-0.8555 -0.8867,-0.8555 -0.5469,0 -0.8906,0.3282 -0.8906,0.8555 v 5.2774 c 0,1.6914 -1.3125,2.3828 -2.4844,2.3828 -1.1719,0 -2.4844,-0.6914 -2.4844,-2.3828 v -5.2774 c 0,-0.5273 -0.3437,-0.8555 -0.8906,-0.8555 -0.543,0 -0.8867,0.3282 -0.8867,0.8555 v 8.1875" />
        <path
           inkscape:connector-curvature="0"
           id="path81298"
           style="fill:#13366d;fill-opacity:1;fill-rule:nonzero;stroke:none"
           d="m 868.2148,113.5977 c 2.1797,0 2.9493,1.9257 2.9493,3.5664 0,1.6367 -0.7696,3.5664 -2.9493,3.5664 -2.1835,0 -2.9492,-1.9297 -2.9492,-3.5664 0,-1.6407 0.7657,-3.5664 2.9492,-3.5664 z m 0,8.5156 c 3.0313,0 4.7266,-2.3828 4.7266,-4.9492 0,-2.5664 -1.6953,-4.9493 -4.7266,-4.9493 -3.0312,0 -4.7265,2.3829 -4.7265,4.9493 0,2.5664 1.6953,4.9492 4.7265,4.9492" />
        <path
           inkscape:connector-curvature="0"
           id="path81300"
           style="fill:#13366d;fill-opacity:1;fill-rule:nonzero;stroke:none"
           d="m 874.0313,120.7109 c -0.1211,0.293 -0.1797,0.4727 -0.1797,0.6563 0,0.4726 0.3828,0.7461 0.8047,0.7461 0.5898,0 0.789,-0.2539 0.9296,-0.6172 l 2.4454,-6.6992 h 0.039 l 2.4453,6.6992 c 0.1407,0.3633 0.3438,0.6172 0.9297,0.6172 0.4219,0 0.8086,-0.2735 0.8086,-0.7461 0,-0.1836 -0.0625,-0.3633 -0.1836,-0.6563 l -3.0898,-7.8046 c -0.1797,-0.4727 -0.3633,-0.6915 -0.9297,-0.6915 -0.5625,0 -0.7461,0.2188 -0.9297,0.6915 l -3.0898,7.8046" />
        <path
           inkscape:connector-curvature="0"
           id="path81302"
           style="fill:#13366d;fill-opacity:1;fill-rule:nonzero;stroke:none"
           d="m 887.8867,113.5977 c 2.1836,0 2.9492,1.9257 2.9492,3.5664 0,1.6367 -0.7656,3.5664 -2.9492,3.5664 -2.1797,0 -2.9492,-1.9297 -2.9492,-3.5664 0,-1.6407 0.7695,-3.5664 2.9492,-3.5664 z m 4.6289,-0.6016 c 0,-0.5625 -0.4843,-0.7813 -0.8281,-0.7813 -0.3633,0 -0.8281,0.2188 -0.8281,0.7813 v 0.6758 h -0.043 c -0.7656,-0.9844 -1.7773,-1.4571 -2.9297,-1.4571 -3.0273,0 -4.7265,2.3829 -4.7265,4.9493 0,2.5664 1.6992,4.9492 4.7265,4.9492 1.2344,0 2.1016,-0.4727 2.9297,-1.293 h 0.043 v 0.5117 c 0,0.5625 0.4648,0.7813 0.8281,0.7813 0.3438,0 0.8281,-0.2188 0.8281,-0.7813 v -8.3359" />
        <path
           inkscape:connector-curvature="0"
           id="path81304"
           style="fill:#13366d;fill-opacity:1;fill-rule:nonzero;stroke:none"
           d="m 895.5234,124.0977 c 0,0.5273 0.3438,0.8554 0.8907,0.8554 0.5429,0 0.8867,-0.3281 0.8867,-0.8554 v -2.0938 h 0.7305 c 0.5859,0 0.8867,-0.2539 0.8867,-0.6914 0,-0.4375 -0.3008,-0.6914 -0.8867,-0.6914 h -0.7305 v -7.5508 c 0,-0.5273 -0.3438,-0.8555 -0.8867,-0.8555 -0.5469,0 -0.8907,0.3282 -0.8907,0.8555 v 7.5508 h -0.7265 c -0.586,0 -0.8906,0.2539 -0.8906,0.6914 0,0.4375 0.3046,0.6914 0.8906,0.6914 h 0.7265 v 2.0938" />
        <path
           inkscape:connector-curvature="0"
           id="path81306"
           style="fill:#13366d;fill-opacity:1;fill-rule:nonzero;stroke:none"
           d="m 902.0898,113.0703 c 0,-0.5273 -0.3437,-0.8555 -0.8906,-0.8555 -0.5429,0 -0.8867,0.3282 -0.8867,0.8555 v 8.1875 c 0,0.5274 0.3438,0.8555 0.8867,0.8555 0.5469,0 0.8906,-0.3281 0.8906,-0.8555 z m -0.8906,12.3203 c 0.6055,0 1.0938,-0.4375 1.0938,-0.9843 0,-0.5469 -0.4883,-0.9844 -1.0938,-0.9844 -0.6054,0 -1.0898,0.4375 -1.0898,0.9844 0,0.5468 0.4844,0.9843 1.0898,0.9843" />
        <path
           inkscape:connector-curvature="0"
           id="path81308"
           style="fill:#13366d;fill-opacity:1;fill-rule:nonzero;stroke:none"
           d="m 908.7969,113.5977 c 2.1797,0 2.9492,1.9257 2.9492,3.5664 0,1.6367 -0.7695,3.5664 -2.9492,3.5664 -2.1836,0 -2.9492,-1.9297 -2.9492,-3.5664 0,-1.6407 0.7656,-3.5664 2.9492,-3.5664 z m 0,8.5156 c 3.0273,0 4.7265,-2.3828 4.7265,-4.9492 0,-2.5664 -1.6992,-4.9493 -4.7265,-4.9493 -3.0313,0 -4.7305,2.3829 -4.7305,4.9493 0,2.5664 1.6992,4.9492 4.7305,4.9492" />
        <path
           inkscape:connector-curvature="0"
           id="path81310"
           style="fill:#13366d;fill-opacity:1;fill-rule:nonzero;stroke:none"
           d="m 915.5,121.2578 c 0,0.5274 0.3438,0.8555 0.8906,0.8555 0.543,0 0.8867,-0.3281 0.8867,-0.8555 v -0.3828 l 0.043,-0.0352 c 0.7852,0.9102 1.8985,1.2735 2.9688,1.2735 1.6562,0 3.7343,-0.9453 3.7343,-3.6758 v -5.3672 c 0,-0.5273 -0.3398,-0.8555 -0.8867,-0.8555 -0.5469,0 -0.8867,0.3282 -0.8867,0.8555 v 5.2774 c 0,1.6914 -1.3164,2.3828 -2.4844,2.3828 -1.1758,0 -2.4883,-0.6914 -2.4883,-2.3828 v -5.2774 c 0,-0.5273 -0.3437,-0.8555 -0.8867,-0.8555 -0.5468,0 -0.8906,0.3282 -0.8906,0.8555 v 8.1875" />
        <path
           inkscape:connector-curvature="0"
           id="path81312"
           style="fill:#13366d;fill-opacity:1;fill-rule:nonzero;stroke:none"
           d="m 933.9648,113.0703 c 0,-0.5273 -0.3437,-0.8555 -0.8906,-0.8555 -0.5429,0 -0.8867,0.3282 -0.8867,0.8555 v 7.5508 h -0.7266 c -0.5859,0 -0.8906,0.2539 -0.8906,0.6914 0,0.4375 0.3047,0.6914 0.8906,0.6914 h 0.7266 v 2.2734 c 0,1.4024 1.0703,2.0938 2.3633,2.0938 h 0.543 c 0.4648,0 1.0117,-0.2539 1.0117,-0.6914 0,-0.4375 -0.3047,-0.6914 -0.9688,-0.6914 h -0.4453 c -0.5469,0 -0.7266,-0.2383 -0.7266,-0.6367 v -2.3477 h 1.1094 c 0.586,0 0.8867,-0.2539 0.8867,-0.6914 0,-0.4375 -0.3007,-0.6914 -0.8867,-0.6914 h -1.1094 v -7.5508" />
        <path
           inkscape:connector-curvature="0"
           id="path81314"
           style="fill:#13366d;fill-opacity:1;fill-rule:nonzero;stroke:none"
           d="m 941.2148,113.5977 c 2.1836,0 2.9493,1.9257 2.9493,3.5664 0,1.6367 -0.7657,3.5664 -2.9493,3.5664 -2.1835,0 -2.9492,-1.9297 -2.9492,-3.5664 0,-1.6407 0.7657,-3.5664 2.9492,-3.5664 z m 0,8.5156 c 3.0313,0 4.7266,-2.3828 4.7266,-4.9492 0,-2.5664 -1.6953,-4.9493 -4.7266,-4.9493 -3.0312,0 -4.7265,2.3829 -4.7265,4.9493 0,2.5664 1.6953,4.9492 4.7265,4.9492" />
        <path
           inkscape:connector-curvature="0"
           id="path81316"
           style="fill:#13366d;fill-opacity:1;fill-rule:nonzero;stroke:none"
           d="m 947.9219,121.2578 c 0,0.5274 0.3437,0.8555 0.8867,0.8555 0.5469,0 0.8906,-0.3281 0.8906,-0.8555 v -0.8203 h 0.0391 c 0.4062,0.7461 1.3945,1.6758 2.4258,1.6758 0.625,0 0.9882,-0.3633 0.9882,-0.8203 0,-0.4532 -0.3632,-0.7461 -1.1093,-0.8711 -1.0508,-0.1641 -2.3438,-0.875 -2.3438,-2.75 v -4.6016 c 0,-0.5273 -0.3437,-0.8555 -0.8906,-0.8555 -0.543,0 -0.8867,0.3282 -0.8867,0.8555 v 8.1875" />
        <path
           inkscape:connector-curvature="0"
           id="path81318"
           style="fill:#13366d;fill-opacity:1;fill-rule:nonzero;stroke:none"
           d="m 964.1602,113.5977 c 2.1836,0 2.9531,1.9257 2.9531,3.5664 0,1.6367 -0.7695,3.5664 -2.9531,3.5664 -2.1797,0 -2.9493,-1.9297 -2.9493,-3.5664 0,-1.6407 0.7696,-3.5664 2.9493,-3.5664 z m -4.543,7.6601 c 0,0.5274 0.3437,0.8555 0.8867,0.8555 0.5469,0 0.8906,-0.3281 0.8906,-0.8555 v -0.4726 h 0.0391 c 0.5078,0.8711 1.457,1.3281 2.8711,1.3281 2.9062,0 4.582,-2.3828 4.582,-4.9492 0,-2.5664 -1.6758,-4.9493 -4.582,-4.9493 -1.4141,0 -2.4063,0.711 -2.8711,1.3086 h -0.0391 v -4.2773 c 0,-0.5273 -0.3437,-0.8555 -0.8906,-0.8555 -0.543,0 -0.8867,0.3282 -0.8867,0.8555 v 12.0117" />
        <path
           inkscape:connector-curvature="0"
           id="path81320"
           style="fill:#13366d;fill-opacity:1;fill-rule:nonzero;stroke:none"
           d="m 975.1289,113.5977 c 2.1836,0 2.9492,1.9257 2.9492,3.5664 0,1.6367 -0.7656,3.5664 -2.9492,3.5664 -2.1797,0 -2.9492,-1.9297 -2.9492,-3.5664 0,-1.6407 0.7695,-3.5664 2.9492,-3.5664 z m 4.6289,-0.6016 c 0,-0.5625 -0.4883,-0.7813 -0.8281,-0.7813 -0.3672,0 -0.832,0.2188 -0.832,0.7813 v 0.6758 h -0.0391 c -0.7695,-0.9844 -1.7773,-1.4571 -2.9297,-1.4571 -3.0273,0 -4.7266,2.3829 -4.7266,4.9493 0,2.5664 1.6993,4.9492 4.7266,4.9492 1.2344,0 2.1016,-0.4727 2.9297,-1.293 h 0.0391 v 0.5117 c 0,0.5625 0.4648,0.7813 0.832,0.7813 0.3398,0 0.8281,-0.2188 0.8281,-0.7813 v -8.3359" />
        <path
           inkscape:connector-curvature="0"
           id="path81322"
           style="fill:#13366d;fill-opacity:1;fill-rule:nonzero;stroke:none"
           d="m 982.7656,124.0977 c 0,0.5273 0.3438,0.8554 0.8907,0.8554 0.5429,0 0.8867,-0.3281 0.8867,-0.8554 v -2.0938 h 0.7265 c 0.586,0 0.8907,-0.2539 0.8907,-0.6914 0,-0.4375 -0.3047,-0.6914 -0.8907,-0.6914 h -0.7265 v -7.5508 c 0,-0.5273 -0.3438,-0.8555 -0.8867,-0.8555 -0.5469,0 -0.8907,0.3282 -0.8907,0.8555 v 7.5508 h -0.7265 c -0.586,0 -0.8907,0.2539 -0.8907,0.6914 0,0.4375 0.3047,0.6914 0.8907,0.6914 h 0.7265 v 2.0938" />
        <path
           inkscape:connector-curvature="0"
           id="path81324"
           style="fill:#13366d;fill-opacity:1;fill-rule:nonzero;stroke:none"
           d="m 989.332,113.0703 c 0,-0.5273 -0.3437,-0.8555 -0.8906,-0.8555 -0.5469,0 -0.8867,0.3282 -0.8867,0.8555 v 8.1875 c 0,0.5274 0.3398,0.8555 0.8867,0.8555 0.5469,0 0.8906,-0.3281 0.8906,-0.8555 z m -0.8906,12.3203 c 0.6055,0 1.0899,-0.4375 1.0899,-0.9843 0,-0.5469 -0.4844,-0.9844 -1.0899,-0.9844 -0.6055,0 -1.0898,0.4375 -1.0898,0.9844 0,0.5468 0.4843,0.9843 1.0898,0.9843" />
        <path
           inkscape:connector-curvature="0"
           id="path81326"
           style="fill:#13366d;fill-opacity:1;fill-rule:nonzero;stroke:none"
           d="m 998.8047,117.7461 c 0,1.3828 -0.8906,2.9844 -2.8477,2.9844 -2.2031,0.0703 -2.9922,-1.5117 -3.0507,-2.9844 z m -5.8984,-1.2031 c 0,-1.6524 1.1718,-2.9453 3.1718,-2.9453 2.3633,0 2.9688,1.3086 3.6328,1.3086 0.3241,0 0.6481,-0.254 0.6481,-0.711 0,-0.7812 -2.2027,-1.9805 -4.3004,-1.9805 -3.4375,0 -4.9297,2.3829 -4.9297,4.9493 0,2.6211 1.8164,4.9492 4.8281,4.9492 2.9297,0 4.625,-2.3828 4.625,-4.7149 0,-0.5625 -0.223,-0.8554 -0.9882,-0.8554 h -6.6875" />
        <path
           inkscape:connector-curvature="0"
           id="path81328"
           style="fill:#13366d;fill-opacity:1;fill-rule:nonzero;stroke:none"
           d="m 1002.379,121.2578 c 0,0.5274 0.344,0.8555 0.891,0.8555 0.543,0 0.886,-0.3281 0.886,-0.8555 v -0.3828 l 0.039,-0.0352 c 0.789,0.9102 1.899,1.2735 2.969,1.2735 1.66,0 3.738,-0.9453 3.738,-3.6758 v -5.3672 c 0,-0.5273 -0.343,-0.8555 -0.886,-0.8555 -0.547,0 -0.891,0.3282 -0.891,0.8555 v 5.2774 c 0,1.6914 -1.312,2.3828 -2.484,2.3828 -1.172,0 -2.485,-0.6914 -2.485,-2.3828 v -5.2774 c 0,-0.5273 -0.343,-0.8555 -0.886,-0.8555 -0.547,0 -0.891,0.3282 -0.891,0.8555 v 8.1875" />
        <path
           inkscape:connector-curvature="0"
           id="path81330"
           style="fill:#13366d;fill-opacity:1;fill-rule:nonzero;stroke:none"
           d="m 1013.91,124.0977 c 0,0.5273 0.348,0.8554 0.891,0.8554 0.547,0 0.89,-0.3281 0.89,-0.8554 v -2.0938 h 0.727 c 0.586,0 0.887,-0.2539 0.887,-0.6914 0,-0.4375 -0.301,-0.6914 -0.887,-0.6914 h -0.727 v -7.5508 c 0,-0.5273 -0.343,-0.8555 -0.89,-0.8555 -0.543,0 -0.891,0.3282 -0.891,0.8555 v 7.5508 h -0.722 c -0.59,0 -0.891,0.2539 -0.891,0.6914 0,0.4375 0.301,0.6914 0.891,0.6914 h 0.722 v 2.0938" />
        <path
           inkscape:connector-curvature="0"
           id="path81332"
           style="fill:#13366d;fill-opacity:1;fill-rule:nonzero;stroke:none"
           d="m 1028.234,122.1133 c 1.817,0 2.891,-0.5625 2.891,-1.2188 0,-0.3281 -0.305,-0.6718 -0.73,-0.6718 -0.684,0 -0.95,0.5078 -2.161,0.5078 -2.203,0 -3.07,-1.9297 -3.07,-3.5664 0,-1.6407 0.867,-3.5664 3.07,-3.5664 1.254,0 1.575,0.5429 2.141,0.5429 0.406,0 0.688,-0.2343 0.688,-0.6718 0,-0.6016 -0.989,-1.254 -2.829,-1.254 -3.273,0 -4.847,2.3829 -4.847,4.9493 0,2.5664 1.574,4.9492 4.847,4.9492" />
        <path
           inkscape:connector-curvature="0"
           id="path81334"
           style="fill:#13366d;fill-opacity:1;fill-rule:nonzero;stroke:none"
           d="m 1037.184,113.5977 c 2.179,0 2.949,1.9257 2.949,3.5664 0,1.6367 -0.77,3.5664 -2.949,3.5664 -2.184,0 -2.95,-1.9297 -2.95,-3.5664 0,-1.6407 0.766,-3.5664 2.95,-3.5664 z m 4.625,-0.6016 c 0,-0.5625 -0.485,-0.7813 -0.829,-0.7813 -0.363,0 -0.828,0.2188 -0.828,0.7813 v 0.6758 h -0.039 c -0.769,-0.9844 -1.781,-1.4571 -2.929,-1.4571 -3.032,0 -4.727,2.3829 -4.727,4.9493 0,2.5664 1.695,4.9492 4.727,4.9492 1.23,0 2.101,-0.4727 2.929,-1.293 h 0.039 v 0.5117 c 0,0.5625 0.465,0.7813 0.828,0.7813 0.344,0 0.829,-0.2188 0.829,-0.7813 v -8.3359" />
        <path
           inkscape:connector-curvature="0"
           id="path81336"
           style="fill:#13366d;fill-opacity:1;fill-rule:nonzero;stroke:none"
           d="m 1044.25,121.2578 c 0,0.5274 0.348,0.8555 0.891,0.8555 0.543,0 0.89,-0.3281 0.89,-0.8555 v -0.8203 h 0.039 c 0.403,0.7461 1.395,1.6758 2.422,1.6758 0.629,0 0.992,-0.3633 0.992,-0.8203 0,-0.4532 -0.363,-0.7461 -1.109,-0.8711 -1.051,-0.1641 -2.344,-0.875 -2.344,-2.75 v -4.6016 c 0,-0.5273 -0.347,-0.8555 -0.89,-0.8555 -0.543,0 -0.891,0.3282 -0.891,0.8555 v 8.1875" />
        <path
           inkscape:connector-curvature="0"
           id="path81338"
           style="fill:#13366d;fill-opacity:1;fill-rule:nonzero;stroke:none"
           d="m 1057.746,117.7461 c 0,1.3828 -0.891,2.9844 -2.848,2.9844 -2.203,0.0703 -2.988,-1.5117 -3.05,-2.9844 z m -5.898,-1.2031 c 0,-1.6524 1.172,-2.9453 3.172,-2.9453 2.363,0 2.968,1.3086 3.636,1.3086 0.321,0 0.645,-0.254 0.645,-0.711 0,-0.7812 -2.203,-1.9805 -4.305,-1.9805 -3.43,0 -4.926,2.3829 -4.926,4.9493 0,2.6211 1.817,4.9492 4.828,4.9492 2.93,0 4.625,-2.3828 4.625,-4.7149 0,-0.5625 -0.222,-0.8554 -0.992,-0.8554 h -6.683" />
      </g>
    </g>
  </g>
</svg>
