<?xml version="1.0" encoding="UTF-8" standalone="no"?>
<svg
   xmlns:dc="http://purl.org/dc/elements/1.1/"
   xmlns:cc="http://creativecommons.org/ns#"
   xmlns:rdf="http://www.w3.org/1999/02/22-rdf-syntax-ns#"
   xmlns:svg="http://www.w3.org/2000/svg"
   xmlns="http://www.w3.org/2000/svg"
   viewBox="0 0 440.6507 125.45267"
   height="125.45267"
   width="440.6507"
   xml:space="preserve"
   id="svg14437"
   version="1.1"><metadata
     id="metadata14443"><rdf:RDF><cc:Work
         rdf:about=""><dc:format>image/svg+xml</dc:format><dc:type
           rdf:resource="http://purl.org/dc/dcmitype/StillImage" /><dc:title></dc:title></cc:Work></rdf:RDF></metadata><defs
     id="defs14441"><clipPath
       id="clipPath14453"
       clipPathUnits="userSpaceOnUse"><path
         id="path14451"
         d="M 0,512 H 512 V 0 H 0 Z" /></clipPath></defs><g
     transform="matrix(1.3333333,0,0,-1.3333333,-121.00786,404.05999)"
     id="g14445"><g
       id="g14547"><g
         id="g14447"><g
           id="g14449"
           clip-path="url(#clipPath14453)"><g
             id="g14455"
             transform="translate(90.7559,302.8492)"><path
               d="m 0,0 h 0.076 c 9.618,-4.465 19.248,-8.896 28.845,-13.399 -0.117,-4.347 -0.117,-8.703 -0.004,-13.051 -5.703,2.552 -11.343,5.25 -17.02,7.864 0.05,-9.039 0,-18.073 0.029,-27.112 5.665,-2.631 11.351,-5.229 16.995,-7.91 -0.105,-4.364 -0.163,-8.733 0.046,-13.093 -9.668,4.444 -19.299,8.968 -28.959,13.424 C 0,-35.518 0.017,-17.759 0,0"
               style="fill:#c01717;fill-opacity:1;fill-rule:nonzero;stroke:none"
               id="path14457" /></g><g
             id="g14459"
             transform="translate(148.4137,302.8492)"><path
               d="m 0,0 h 0.155 c 0.009,-17.784 0.059,-35.568 -0.021,-53.352 -9.643,-4.377 -19.215,-8.901 -28.824,-13.349 -0.21,4.36 -0.151,8.729 -0.047,13.093 5.682,2.648 11.368,5.295 17.063,7.914 0.033,9.043 -0.004,18.082 0.021,27.125 -5.695,-2.627 -11.343,-5.363 -17.088,-7.881 -0.113,4.348 -0.113,8.704 0.004,13.051 C -19.169,-8.913 -9.53,-4.57 0,0"
               style="fill:#75150d;fill-opacity:1;fill-rule:nonzero;stroke:none"
               id="path14461" /></g><g
             id="g14463"
             transform="translate(170.9565,303.032)"><path
               d="m 0,0 c 7.733,-5.733 15.376,-11.592 23.07,-17.376 7.707,5.784 15.344,11.656 23.089,17.389 0.026,-17.835 -0.025,-35.669 -0.044,-53.497 -3.917,0.025 -7.828,0 -11.739,0.012 -0.006,10.166 0.006,20.332 -0.006,30.497 -3.784,-2.783 -7.536,-5.617 -11.319,-8.395 -3.764,2.809 -7.522,5.625 -11.306,8.408 -0.025,-10.166 0.038,-20.325 -0.032,-30.49 -3.91,0.031 -7.821,0.006 -11.732,0.025 C -0.006,-35.618 -0.045,-17.809 0,0"
               style="fill:#b91e23;fill-opacity:1;fill-rule:nonzero;stroke:none"
               id="path14465" /></g><g
             id="g14467"
             transform="translate(285.2053,281.6498)"><path
               d="m 0,0 c -1.643,-4.108 -3.331,-8.21 -4.962,-12.325 3.287,-0.013 6.58,-0.013 9.873,0 C 3.299,-8.21 1.65,-4.102 0,0 m -7.86,21.064 c 3.656,0.013 7.319,-0.013 10.981,0.019 7.389,-17.72 14.682,-35.478 22.026,-53.211 -4.128,-0.006 -8.262,-0.006 -12.395,-0.006 -1.217,3.032 -2.414,6.064 -3.644,9.089 -6.121,-0.012 -12.242,-0.006 -18.369,-0.006 -1.223,-3.013 -2.427,-6.026 -3.637,-9.038 -4.121,0 -8.236,-0.007 -12.357,0 6.771,15.369 13.529,30.745 20.293,46.115 -0.962,2.35 -1.936,4.694 -2.898,7.038"
               style="fill:#b91e23;fill-opacity:1;fill-rule:nonzero;stroke:none"
               id="path14469" /></g><g
             id="g14471"
             transform="translate(325.0398,301.8027)"><path
               d="m 0,0 c 4.497,1.389 9.471,1.045 13.815,-0.732 -1.465,-3.293 -3,-6.555 -4.477,-9.841 -2.045,0.802 -4.612,1.796 -6.586,0.305 -2.376,-1.98 -1.376,-5.394 -1.574,-8.082 H 8.21 c -0.006,-3.363 0.026,-6.733 -0.032,-10.096 -2.331,-0.006 -4.668,0 -7,-0.006 -0.006,-7.943 0,-15.886 -0.006,-23.828 -3.612,-0.007 -7.223,-0.007 -10.834,0 -0.007,7.955 0,15.91 0,23.866 -1.586,0.013 -3.166,0 -4.746,0.013 v 10.044 c 1.593,0.013 3.191,0 4.784,0.007 0,3.484 -0.268,7.114 1.121,10.401 C -7.083,-4.172 -3.854,-1.185 0,0"
               style="fill:#b91e23;fill-opacity:1;fill-rule:nonzero;stroke:none"
               id="path14473" /></g><g
             id="g14475"
             transform="translate(233.8038,288.0128)"><path
               d="m 0,0 c 5.618,2.268 12.248,2.389 17.783,-0.197 3.803,-1.771 6.669,-4.981 8.975,-8.408 -2.974,-1.79 -5.974,-3.548 -8.955,-5.319 -1.86,3.121 -4.899,5.969 -8.784,5.809 -5.643,0.325 -10.72,-4.758 -10.401,-10.395 -0.179,-5.554 4.872,-10.439 10.407,-10.133 3.848,-0.115 6.93,2.668 8.758,5.802 2.975,-1.764 5.956,-3.522 8.918,-5.299 -2.096,-3.503 -5.096,-6.51 -8.816,-8.249 -7.407,-3.579 -16.968,-2.496 -23.197,2.956 -5.07,4.433 -7.612,11.535 -6.516,18.178 C -10.815,-8.599 -6.268,-2.548 0,0"
               style="fill:#b91e23;fill-opacity:1;fill-rule:nonzero;stroke:none"
               id="path14477" /></g><g
             id="g14479"
             transform="translate(348.059,274.516)"><path
               d="M 0,0 C 5.694,-0.038 11.389,-0.032 17.083,-0.006 15.541,3.185 12.42,5.682 8.758,5.662 4.943,5.968 1.414,3.478 0,0 m -7.35,7.217 c 6.388,8.592 19.917,10.375 28.337,3.777 6.287,-4.453 8.714,-12.523 8.166,-19.943 -9.815,0 -19.624,-0.019 -29.433,0.013 1.567,-4.65 6.707,-7.65 11.528,-6.548 2.313,0.388 4.262,1.783 5.994,3.286 2.936,-1.598 5.879,-3.191 8.809,-4.815 -3.089,-3.357 -6.949,-6.114 -11.401,-7.286 -7.968,-2.153 -17.351,0.528 -22.23,7.382 -5.261,6.949 -5.165,17.286 0.23,24.134"
               style="fill:#b91e23;fill-opacity:1;fill-rule:nonzero;stroke:none"
               id="path14481" /></g><g
             id="g14483"
             transform="translate(392.0974,274.4778)"><path
               d="M 0,0 C 5.694,-0.045 11.395,-0.038 17.089,-0.006 15.478,3.452 11.93,5.975 8.026,5.675 4.44,5.701 1.344,3.223 0,0 m -8.395,5.713 c 5.096,8.465 16.898,11.688 25.726,7.465 5.051,-2.293 9.07,-6.764 10.707,-12.076 1.089,-3.223 1.134,-6.656 1.102,-10.013 -9.809,-0.038 -19.624,0.07 -29.433,-0.057 1.561,-4.401 6.274,-7.37 10.924,-6.605 2.541,0.28 4.732,1.732 6.611,3.388 2.924,-1.579 5.828,-3.191 8.764,-4.758 -3.586,-4.204 -8.662,-7.235 -14.184,-7.898 -6.816,-0.86 -14.185,1.542 -18.612,6.93 -5.548,6.459 -6.248,16.478 -1.605,23.624"
               style="fill:#b91e23;fill-opacity:1;fill-rule:nonzero;stroke:none"
               id="path14485" /></g><g
             id="g14487"
             transform="translate(176.7909,227.191)"><path
               d="m 0,0 c -3.42,-1.981 -2.713,-8.962 1.701,-9.057 3.369,0.07 4.477,4.293 3.382,6.936 C 4.484,-0.038 1.904,1.064 0,0 m -5.854,9.35 c 1.274,0.007 2.555,0.007 3.835,0.007 0,-2.567 0.032,-5.134 -0.051,-7.695 2.529,2.899 7.624,2.72 9.834,-0.471 2.293,-3.369 2.211,-8.446 -0.567,-11.522 -2.484,-2.656 -7.07,-2.637 -9.49,0.108 0.025,-0.433 0.083,-1.293 0.115,-1.72 h -3.676 z"
               style="fill:#b91e23;fill-opacity:1;fill-rule:nonzero;stroke:none"
               id="path14489" /></g><g
             id="g14491"
             transform="translate(211.9057,236.5477)"><path
               d="m 0,0 h 3.917 v -21.299 c -1.306,0 -2.611,0 -3.917,-0.007 z"
               style="fill:#b91e23;fill-opacity:1;fill-rule:nonzero;stroke:none"
               id="path14493" /></g><g
             id="g14495"
             transform="translate(264.0141,236.5477)"><path
               d="M 0,0 C 1.274,0 2.554,0 3.834,-0.006 3.892,-5.573 3.72,-11.153 3.904,-16.72 3.873,-17.854 5.172,-17.981 5.968,-18.274 5.955,-19.35 5.936,-20.427 5.93,-21.51 c -1.58,0.141 -3.44,-0.102 -4.675,1.102 -1.14,1.089 -1.249,2.771 -1.268,4.249 C -0.006,-10.777 0,-5.389 0,0"
               style="fill:#b91e23;fill-opacity:1;fill-rule:nonzero;stroke:none"
               id="path14497" /></g><g
             id="g14499"
             transform="translate(238.3134,234.7197)"><path
               d="m 0,0 h 3.771 c 0.038,-1.465 -0.007,-2.924 0.044,-4.382 1.14,0 2.281,0.006 3.427,0.006 0,-1.025 -0.006,-2.051 -0.006,-3.076 -1.147,0 -2.293,0 -3.44,-0.007 0.077,-2.439 -0.286,-4.936 0.261,-7.331 0.574,-1.369 2.236,-1.312 3.453,-1.586 -0.02,-1.102 -0.032,-2.204 -0.039,-3.306 -2.63,-0.051 -5.974,0.383 -7.082,3.179 -0.899,2.917 -0.332,6.038 -0.472,9.038 -0.503,0.006 -1.497,0.013 -1.993,0.019 -0.007,1.019 -0.007,2.038 -0.007,3.057 0.688,0.007 1.382,0.013 2.07,0.02 C 0,-2.911 -0.013,-1.459 0,0"
               style="fill:#b91e23;fill-opacity:1;fill-rule:nonzero;stroke:none"
               id="path14501" /></g><g
             id="g14503"
             transform="translate(186.0457,230.5795)"><path
               d="m 0,0 c 1.452,0.006 2.898,0.006 4.35,0.006 1.281,-3.586 2.688,-7.127 3.79,-10.777 1.019,3.644 2.325,7.191 3.522,10.777 1.408,0 2.816,0 4.223,-0.006 -2.318,-5.924 -4.554,-11.885 -6.923,-17.79 -0.694,-1.917 -2.344,-3.255 -4.261,-3.834 H 2.618 c -0.796,0.261 -1.58,0.535 -2.357,0.834 0.376,0.93 0.758,1.86 1.147,2.79 1.089,-0.038 2.312,-0.701 3.286,0.051 0.847,0.732 1.281,1.796 1.847,2.726 C 4.312,-10.172 2.172,-5.076 0,0"
               style="fill:#b91e23;fill-opacity:1;fill-rule:nonzero;stroke:none"
               id="path14505" /></g><g
             id="g14507"
             transform="translate(219.9439,230.5859)"><path
               d="M 0,0 C 1.248,-0.006 2.503,-0.006 3.758,-0.019 3.726,-0.885 3.682,-1.752 3.631,-2.618 c 1.777,2.624 5.305,3.72 8.223,2.421 1.834,-0.809 2.528,-2.93 2.547,-4.797 0.096,-3.446 -0.006,-6.891 0.032,-10.344 -1.28,0 -2.56,0 -3.834,-0.006 -0.121,3.541 0.248,7.115 -0.191,10.631 -1.019,2.802 -5.261,1.344 -6.045,-0.975 -1.006,-3.095 -0.35,-6.446 -0.529,-9.65 H 0 C 0,-10.229 -0.006,-5.115 0,0"
               style="fill:#b91e23;fill-opacity:1;fill-rule:nonzero;stroke:none"
               id="path14509" /></g><g
             id="g14511"
             transform="translate(250.7593,224.847)"><path
               d="M 0,0 C 2.312,-0.051 4.624,-0.051 6.936,-0.006 6.516,1.363 5.822,3.013 4.147,3.064 2.108,3.414 0.624,1.739 0,0 M -0.968,4.529 C 2.038,6.828 7.153,6.707 9.376,3.369 10.656,1.631 10.624,-0.611 10.65,-2.675 7.064,-2.694 3.471,-2.643 -0.121,-2.713 0.395,-4.057 0.924,-5.605 2.382,-6.191 4.631,-7.363 7.108,-6.242 9.096,-5.07 9.554,-6.038 10.045,-6.987 10.503,-7.955 7.28,-10.134 2.745,-10.86 -0.605,-8.548 -4.904,-5.694 -5.057,1.427 -0.968,4.529"
               style="fill:#b91e23;fill-opacity:1;fill-rule:nonzero;stroke:none"
               id="path14513" /></g></g></g></g></g></svg>