<?xml version="1.0" encoding="utf-8"?>
<!-- Generator: Adobe Illustrator 22.1.0, SVG Export Plug-In . SVG Version: 6.00 Build 0)  -->
<!DOCTYPE svg PUBLIC "-//W3C//DTD SVG 1.1//EN" "http://www.w3.org/Graphics/SVG/1.1/DTD/svg11.dtd">
<svg version="1.1"
	 id="svg14437" xmlns:cc="http://creativecommons.org/ns#" xmlns:dc="http://purl.org/dc/elements/1.1/" xmlns:rdf="http://www.w3.org/1999/02/22-rdf-syntax-ns#" xmlns:svg="http://www.w3.org/2000/svg"
	 xmlns="http://www.w3.org/2000/svg" xmlns:xlink="http://www.w3.org/1999/xlink" x="0px" y="0px" viewBox="0 0 440.7 125.5"
	 style="enable-background:new 0 0 440.7 125.5;" xml:space="preserve">
<style type="text/css">
	.st0{clip-path:url(#SVGID_2_);}
</style>
<g id="g14445" transform="matrix(1.3333333,0,0,-1.3333333,-121.00786,404.05999)">
	<g id="g14547">
		<g id="g14447">
			<g>
				<defs>
					<rect id="SVGID_1_" x="-85.3" y="-85.3" width="682.7" height="682.7"/>
				</defs>
				<clipPath id="SVGID_2_">
					<use xlink:href="#SVGID_1_"  style="overflow:visible;"/>
				</clipPath>
				<g id="g14449" class="st0">
					<g id="g14455" transform="translate(90.7559,302.8492)">
						<path id="path14457" d="M0,0L0,0c9.7-4.5,19.3-8.9,28.9-13.4c-0.1-4.3-0.1-8.7,0-13.1c-5.7,2.6-11.3,5.2-17,7.9
							c0.1-9,0-18.1,0-27.1c5.7-2.6,11.4-5.2,17-7.9c-0.1-4.4-0.2-8.7,0-13.1c-9.7,4.4-19.3,9-29,13.4C0-35.5,0-17.8,0,0"/>
					</g>
					<g id="g14459" transform="translate(148.4137,302.8492)">
						<path id="path14461" d="M0,0h0.2c0-17.8,0.1-35.6,0-53.4c-9.6-4.4-19.2-8.9-28.8-13.3c-0.2,4.4-0.2,8.7,0,13.1
							c5.7,2.6,11.4,5.3,17.1,7.9c0,9,0,18.1,0,27.1c-5.7-2.6-11.3-5.4-17.1-7.9c-0.1,4.3-0.1,8.7,0,13.1C-19.2-8.9-9.5-4.6,0,0"/>
					</g>
					<g id="g14463" transform="translate(170.9565,303.032)">
						<path id="path14465" d="M0,0c7.7-5.7,15.4-11.6,23.1-17.4C30.8-11.6,38.4-5.7,46.2,0c0-17.8,0-35.7,0-53.5
							c-3.9,0-7.8,0-11.7,0c0,10.2,0,20.3,0,30.5c-3.8-2.8-7.5-5.6-11.3-8.4c-3.8,2.8-7.5,5.6-11.3,8.4c0-10.2,0-20.3,0-30.5
							c-3.9,0-7.8,0-11.7,0C0-35.6,0-17.8,0,0"/>
					</g>
					<g id="g14467" transform="translate(285.2053,281.6498)">
						<path id="path14469" d="M0,0c-1.6-4.1-3.3-8.2-5-12.3c3.3,0,6.6,0,9.9,0C3.3-8.2,1.7-4.1,0,0 M-7.9,21.1c3.7,0,7.3,0,11,0
							c7.4-17.7,14.7-35.5,22-53.2c-4.1,0-8.3,0-12.4,0c-1.2,3-2.4,6.1-3.6,9.1c-6.1,0-12.2,0-18.4,0c-1.2-3-2.4-6-3.6-9
							c-4.1,0-8.2,0-12.4,0C-18.5-16.7-11.7-1.3-5,14C-5.9,16.4-6.9,18.7-7.9,21.1"/>
					</g>
					<g id="g14471" transform="translate(325.0398,301.8027)">
						<path id="path14473" d="M0,0c4.5,1.4,9.5,1,13.8-0.7c-1.5-3.3-3-6.6-4.5-9.8c-2,0.8-4.6,1.8-6.6,0.3c-2.4-2-1.4-5.4-1.6-8.1h7
							c0-3.4,0-6.7,0-10.1c-2.3,0-4.7,0-7,0c0-7.9,0-15.9,0-23.8c-3.6,0-7.2,0-10.8,0c0,8,0,15.9,0,23.9c-1.6,0-3.2,0-4.7,0v10
							c1.6,0,3.2,0,4.8,0c0,3.5-0.3,7.1,1.1,10.4C-7.1-4.2-3.9-1.2,0,0"/>
					</g>
					<g id="g14475" transform="translate(233.8038,288.0128)">
						<path id="path14477" d="M0,0c5.6,2.3,12.2,2.4,17.8-0.2c3.8-1.8,6.7-5,9-8.4c-3-1.8-6-3.5-9-5.3c-1.9,3.1-4.9,6-8.8,5.8
							C3.4-7.8-1.7-12.9-1.4-18.5C-1.6-24.1,3.5-28.9,9-28.6c3.8-0.1,6.9,2.7,8.8,5.8c3-1.8,6-3.5,8.9-5.3c-2.1-3.5-5.1-6.5-8.8-8.2
							c-7.4-3.6-17-2.5-23.2,3c-5.1,4.4-7.6,11.5-6.5,18.2C-10.8-8.6-6.3-2.5,0,0"/>
					</g>
					<g id="g14479" transform="translate(348.059,274.516)">
						<path id="path14481" d="M0,0c5.7,0,11.4,0,17.1,0c-1.5,3.2-4.7,5.7-8.3,5.7C4.9,6,1.4,3.5,0,0 M-7.3,7.2
							C-1,15.8,12.6,17.6,21,11c6.3-4.5,8.7-12.5,8.2-19.9c-9.8,0-19.6,0-29.4,0c1.6-4.7,6.7-7.7,11.5-6.5c2.3,0.4,4.3,1.8,6,3.3
							c2.9-1.6,5.9-3.2,8.8-4.8c-3.1-3.4-6.9-6.1-11.4-7.3c-8-2.2-17.4,0.5-22.2,7.4C-12.8-10-12.7,0.4-7.3,7.2"/>
					</g>
					<g id="g14483" transform="translate(392.0974,274.4778)">
						<path id="path14485" d="M0,0c5.7,0,11.4,0,17.1,0C15.5,3.5,11.9,6,8,5.7C4.4,5.7,1.3,3.2,0,0 M-8.4,5.7
							c5.1,8.5,16.9,11.7,25.7,7.5c5.1-2.3,9.1-6.8,10.7-12.1c1.1-3.2,1.1-6.7,1.1-10C19.3-8.9,9.5-8.8-0.3-9
							c1.6-4.4,6.3-7.4,10.9-6.6c2.5,0.3,4.7,1.7,6.6,3.4c2.9-1.6,5.8-3.2,8.8-4.8c-3.6-4.2-8.7-7.2-14.2-7.9
							C5-25.7-2.4-23.3-6.8-17.9C-12.3-11.5-13-1.4-8.4,5.7"/>
					</g>
					<g id="g14487" transform="translate(176.7909,227.191)">
						<path id="path14489" d="M0,0c-3.4-2-2.7-9,1.7-9.1C5.1-9,6.2-4.8,5.1-2.1C4.5,0,1.9,1.1,0,0 M-5.9,9.4c1.3,0,2.6,0,3.8,0
							c0-2.6,0-5.1-0.1-7.7c2.5,2.9,7.6,2.7,9.8-0.5c2.3-3.4,2.2-8.4-0.6-11.5C4.7-13,0.1-13-2.3-10.2c0-0.4,0.1-1.3,0.1-1.7h-3.7
							V9.4z"/>
					</g>
					<g id="g14491" transform="translate(211.9057,236.5477)">
						<path id="path14493" d="M0,0h3.9v-21.3c-1.3,0-2.6,0-3.9,0V0z"/>
					</g>
					<g id="g14495" transform="translate(264.0141,236.5477)">
						<path id="path14497" d="M0,0c1.3,0,2.6,0,3.8,0c0.1-5.6-0.1-11.1,0.1-16.7c0-1.1,1.3-1.3,2.1-1.6c0-1.1,0-2.2,0-3.2
							c-1.6,0.1-3.4-0.1-4.7,1.1C0.1-19.3,0-17.6,0-16.2C0-10.8,0-5.4,0,0"/>
					</g>
					<g id="g14499" transform="translate(238.3134,234.7197)">
						<path id="path14501" d="M0,0h3.8c0-1.5,0-2.9,0-4.4c1.1,0,2.3,0,3.4,0c0-1,0-2.1,0-3.1c-1.1,0-2.3,0-3.4,0
							c0.1-2.4-0.3-4.9,0.3-7.3c0.6-1.4,2.2-1.3,3.5-1.6c0-1.1,0-2.2,0-3.3c-2.6-0.1-6,0.4-7.1,3.2c-0.9,2.9-0.3,6-0.5,9
							c-0.5,0-1.5,0-2,0c0,1,0,2,0,3.1c0.7,0,1.4,0,2.1,0C0-2.9,0-1.5,0,0"/>
					</g>
					<g id="g14503" transform="translate(186.0457,230.5795)">
						<path id="path14505" d="M0,0c1.5,0,2.9,0,4.4,0C5.6-3.6,7-7.1,8.1-10.8c1,3.6,2.3,7.2,3.5,10.8c1.4,0,2.8,0,4.2,0
							C13.6-5.9,11.3-11.9,9-17.8c-0.7-1.9-2.3-3.3-4.3-3.8H2.6c-0.8,0.3-1.6,0.5-2.4,0.8C0.6-19.9,1-18.9,1.4-18
							c1.1,0,2.3-0.7,3.3,0.1c0.8,0.7,1.3,1.8,1.8,2.7C4.3-10.2,2.2-5.1,0,0"/>
					</g>
					<g id="g14507" transform="translate(219.9439,230.5859)">
						<path id="path14509" d="M0,0c1.2,0,2.5,0,3.8,0c0-0.9-0.1-1.7-0.1-2.6C5.4,0,8.9,1.1,11.9-0.2C13.7-1,14.4-3.1,14.4-5
							c0.1-3.4,0-6.9,0-10.3c-1.3,0-2.6,0-3.8,0c-0.1,3.5,0.2,7.1-0.2,10.6c-1,2.8-5.3,1.3-6-1c-1-3.1-0.3-6.4-0.5-9.7H0
							C0-10.2,0-5.1,0,0"/>
					</g>
					<g id="g14511" transform="translate(250.7593,224.847)">
						<path id="path14513" d="M0,0c2.3-0.1,4.6-0.1,6.9,0C6.5,1.4,5.8,3,4.1,3.1C2.1,3.4,0.6,1.7,0,0 M-1,4.5C2,6.8,7.2,6.7,9.4,3.4
							c1.3-1.7,1.2-4,1.3-6c-3.6,0-7.2,0-10.8,0c0.5-1.3,1-2.9,2.5-3.5c2.2-1.2,4.7-0.1,6.7,1.1C9.6-6,10-7,10.5-8
							c-3.2-2.2-7.8-2.9-11.1-0.6C-4.9-5.7-5.1,1.4-1,4.5"/>
					</g>
				</g>
			</g>
		</g>
	</g>
</g>
</svg>
