<?xml version="1.0" encoding="UTF-8" standalone="no"?>
<!-- Generator: Adobe Illustrator 16.0.0, SVG Export Plug-In . SVG Version: 6.00 Build 0)  -->

<svg
   xmlns:dc="http://purl.org/dc/elements/1.1/"
   xmlns:cc="http://creativecommons.org/ns#"
   xmlns:rdf="http://www.w3.org/1999/02/22-rdf-syntax-ns#"
   xmlns:svg="http://www.w3.org/2000/svg"
   xmlns="http://www.w3.org/2000/svg"
   xmlns:sodipodi="http://sodipodi.sourceforge.net/DTD/sodipodi-0.dtd"
   xmlns:inkscape="http://www.inkscape.org/namespaces/inkscape"
   version="1.1"
   id="Layer_1"
   x="0px"
   y="0px"
   width="1000"
   height="919.38599"
   viewBox="0 0 1000 919.38603"
   enable-background="new 0 0 568.378 586.936"
   xml:space="preserve"
   inkscape:version="0.91 r13725"
   sodipodi:docname="Paramount_Pictures_2010.svg"><metadata
   id="metadata4863"><rdf:RDF><cc:Work
       rdf:about=""><dc:format>image/svg+xml</dc:format><dc:type
         rdf:resource="http://purl.org/dc/dcmitype/StillImage" /><dc:title></dc:title></cc:Work></rdf:RDF></metadata><defs
   id="defs4861">
	

		
		
		
		
		
		
		
		
		
		
		
		
		
		
		
		
	</defs><sodipodi:namedview
   pagecolor="#ffffff"
   bordercolor="#666666"
   borderopacity="1"
   objecttolerance="10"
   gridtolerance="10"
   guidetolerance="10"
   inkscape:pageopacity="0"
   inkscape:pageshadow="2"
   inkscape:window-width="1366"
   inkscape:window-height="705"
   id="namedview4859"
   showgrid="false"
   inkscape:zoom="0.35355339"
   inkscape:cx="483.7719"
   inkscape:cy="422.02899"
   inkscape:window-x="-8"
   inkscape:window-y="-8"
   inkscape:window-maximized="1"
   inkscape:current-layer="Layer_1" />
<g
   id="g5438"
   transform="matrix(1.7593956,0,0,1.7593956,0,-113.26657)"><path
     inkscape:connector-curvature="0"
     id="path4853"
     d="m 124.472,566.528 -6.555,0 -8.688,20.113 3.445,0 c 1.666,0 2.593,-0.668 3.312,-2.48 0.077,-0.3 0.746,-1.778 0.746,-1.778 l 8.96,0 c 0,0 0.446,0.962 0.522,1.255 0.998,2.671 2.406,3.004 4.442,3.004 l 2.781,0 -8.965,-20.114 z m -6.297,12.188 3,-7.559 3.15,7.559 -6.15,0 z m 283.951,-12.188 -6.575,0 -8.764,20.113 3.465,0 c 1.666,0 2.65,-0.668 3.369,-2.48 0.076,-0.3 0.724,-1.778 0.724,-1.778 l 8.947,0 c 0,0 0.425,0.962 0.501,1.255 1.088,2.671 2.497,3.004 4.427,3.004 l 2.775,0 -8.869,-20.114 z m -6.261,12.188 2.872,-7.559 0.126,0 3.02,7.559 -6.018,0 z M 319.063,566.27 c 6.63,0 11.295,3.703 11.295,10.368 0,6.338 -4.405,10.298 -11.295,10.298 -6.763,0 -11.281,-3.813 -11.281,-10.298 0,-6.478 4.448,-10.368 11.281,-10.368 m 0,16.335 c 3.516,0 5.648,-2.411 5.648,-5.968 0,-3.813 -2.204,-6.072 -5.648,-6.072 -3.577,0 -5.598,2.446 -5.598,6.072 0.001,3.411 1.947,5.968 5.598,5.968 m -24.556,-5.967 c 0,4.671 2.853,5.781 6.032,5.781 l 2.929,0 c 1.777,0 2.907,0.703 2.907,2.558 l 0,1.665 -7.762,0 c -4.978,0 -9.76,-2.333 -9.76,-10.004 0,-6.184 3.075,-10.109 9.76,-10.109 l 7.762,0 0,1.701 c 0,1.89 -1.13,2.447 -3.091,2.447 l -2.745,0 c -3.87,0 -6.032,1.743 -6.032,5.961 m 54.205,4.372 c 0,0 3.758,-10.744 4.169,-12 0.611,-1.854 1.945,-2.481 4.058,-2.481 l 6.032,0 0,20.113 -2.72,0 c -1.91,0 -2.705,-1.002 -2.705,-2.411 l 0,-14.07 -0.071,0 -6.226,16.481 -5.836,0 -6.108,-16.481 -0.146,0 0,14.07 c 0,1.708 -0.982,2.411 -2.614,2.411 l -2.092,0 0,-20.113 6.261,0 c 2.852,0 3.368,1.591 3.87,2.775 0.572,1.93 4.058,11.706 4.058,11.706 l 0.07,0 z m 25.148,-10.48 5.649,0 c 2.02,0 3.114,1.072 3.114,2.705 0,1.479 -1.059,2.739 -3.114,2.739 l -5.649,0 0,-5.444 z m -5.389,16.112 2.741,0 c 1.631,0 2.648,-0.703 2.648,-2.411 l 0,-4.37 6.672,0 c 5.572,0 7.705,-3.11 7.705,-6.625 0,-4.261 -2.964,-6.707 -7.705,-6.707 l -12.062,0 0,20.113 z m 59.969,-5.221 0,0 0,-14.893 5.391,0 0,20.113 -5.314,0 c -1.93,0 -3.373,-0.333 -4.408,-2.852 -0.981,-2.369 -5.869,-13.63 -5.869,-13.63 l 0,14.07 c 0,1.708 -1.059,2.411 -2.761,2.411 l -2.133,0 0,-20.113 6.337,0 c 2.795,0 3.257,1.631 3.759,2.775 1.017,2.636 4.998,12.119 4.998,12.119 m 21.316,-0.781 0,3.591 c 0,1.708 -1.054,2.411 -2.645,2.411 l -2.209,0 0,-6.002 -8.347,-14.111 3.034,0 c 2.816,0 3.444,1.667 4.057,2.775 1.109,2 3.724,6.561 3.724,6.561 l 0.069,0 c 0,0 2.783,-5.188 3.653,-6.854 0.978,-1.742 2.036,-2.481 4.094,-2.481 l 2.385,0 -7.815,14.11 z M 230.48,566.27 c 6.65,0 11.352,3.703 11.352,10.298 0,6.408 -4.371,10.368 -11.352,10.368 -6.702,0 -11.148,-3.813 -11.148,-10.368 0,-6.408 4.335,-10.298 11.148,-10.298 m 0,16.335 c 3.536,0 5.704,-2.411 5.704,-6.038 0,-3.743 -2.28,-6.002 -5.704,-6.002 -3.521,0 -5.612,2.446 -5.612,6.002 0,3.481 1.981,6.038 5.612,6.038 m -42.169,-16.077 -11.073,0 0,1.591 c 0,1.296 0.608,2.634 2.573,2.634 l 7.092,0 c 2.928,0 3.982,1.073 3.982,3.368 l 0,0.369 -7.426,0 c -5.613,0 -7.629,2.559 -7.629,6.079 0,4.22 2.852,6.072 7.629,6.072 l 5.035,0 c 6.449,0 7.892,-3.297 7.892,-7.593 l 0,-5.04 c -0.001,-4.593 -1.779,-7.48 -8.075,-7.48 m 2.574,12.592 c 0,2.077 -0.872,3.557 -3.627,3.557 l -2.746,0 c -2.036,0 -3.181,-0.48 -3.181,-2.107 0,-1.631 1.074,-2.152 3.181,-2.152 l 6.373,0 0,0.702 z m 21.096,-8.443 2.721,0 c 1.944,0 3.205,-0.558 3.205,-2.447 l 0,-1.701 -7.891,0 c -6.575,0 -9.649,3.926 -9.649,10.039 0,7.663 4.741,10.074 9.649,10.074 l 7.891,0 0,-1.665 c 0,-1.854 -1.261,-2.558 -3.003,-2.558 l -2.922,0 c -3.115,0 -5.966,-1.11 -5.966,-5.852 -0.001,-4.147 2.131,-5.89 5.965,-5.89 m -59.285,10.52 c 0,0 -4.594,-12.299 -4.924,-12.968 -0.354,-0.962 -0.871,-1.701 -2.633,-1.701 l -4.053,0 8.354,20.113 6.032,0 8.484,-20.113 -3.444,0 c -1.591,0 -2.239,0.669 -2.574,1.631 l -5.242,13.038 z m 107.381,-0.187 c 0,0 -3.444,-9.776 -4.057,-11.706 -0.389,-1.185 -1.038,-2.775 -3.834,-2.775 l -6.372,0 0,20.113 2.203,0 c 1.632,0 2.65,-0.703 2.65,-2.411 l 0,-14.07 0.111,0 6.185,16.481 5.835,0 6.074,-16.481 0.152,0 0,14.07 c 0,1.409 0.76,2.411 2.629,2.411 l 2.76,0 0,-20.113 -6.078,0 c -2.072,0 -3.333,0.627 -4.052,2.481 -0.334,1.256 -4.133,12 -4.133,12 l -0.073,0 z m -93.659,-14.482 0,17.702 c 0,1.409 0.872,2.411 2.67,2.411 l 2.872,0 0,-20.113 -5.542,0 z" /><rect
     style="clip-rule:evenodd;fill-rule:evenodd"
     id="rect4855"
     height="3.2980001"
     width="447.259"
     y="535.117"
     x="59.706001" /><path
     inkscape:connector-curvature="0"
     id="path4857"
     d="m 490.537,510.449 2.467,0 0,-7.259 3,0 4.44,7.259 2.872,0 -4.853,-7.482 c 2.573,-0.221 4.449,-1.479 4.449,-4.519 0,-3.408 -2.058,-4.852 -5.97,-4.852 l -6.406,0 0,16.853 z m 2.467,-14.629 3.611,0 c 1.779,0 3.662,0.329 3.662,2.481 0,2.554 -1.961,2.701 -4.127,2.701 l -3.146,0 0,-5.182 z M 48.633,348.767 c 0,35.488 9.406,75.454 26.244,108.344 30.393,-28.3 110.269,-118.342 119.361,-128.786 13.924,-16.003 19.947,-5.816 27.388,-14.706 4.093,-4.929 6.372,-6.813 8.115,-7.815 2.887,-1.701 6.22,-5.704 7.815,-6.961 1.591,-1.225 5.313,-6.112 8.074,-8.56 2.928,-2.517 8.647,-6.073 14.335,-11.037 5.851,-4.888 15.48,-16.406 26.224,-16.406 12.669,0 17.891,8.631 19.034,9.593 0.984,1.074 8.689,7.888 9.93,9.26 1.408,1.52 9.761,8.074 14.335,8.074 4.518,0 7.704,4.964 10.166,7.446 5.318,4.853 27.506,28.113 34.744,33.078 3.262,2.147 6.371,1.849 8.763,3.626 2.497,1.779 3.646,3.074 5.056,3.485 1.479,0.405 6.164,-0.739 11.664,6.073 2.63,1.737 3.318,2.072 3.318,2.072 0,0 7.497,6.817 10.146,11.671 2.447,4.184 58.581,78.56 78.564,105.268 18.706,-33.857 29.318,-72.565 29.318,-113.829 C 521.227,218.133 415.4,112.383 284.926,112.383 154.383,112.456 48.633,218.242 48.633,348.767 M 229.239,218.612 c -3.889,8.591 -6.63,14.927 -10.277,23.113 -0.258,0.812 -0.517,2.148 0.167,2.665 0.628,0.299 1.423,0.299 1.849,0 4.63,-2.22 8.54,-7.482 11.797,-13.519 l 5.501,-12.405 7.891,0 -2.167,4.629 c -0.147,0.294 -0.147,0.441 0,0.294 2.537,-1.778 5.167,-4.666 8.277,-6.372 1.241,-0.663 4.168,-0.663 3.91,1.449 -0.203,1.813 -1.596,3.221 -2.391,4.923 -0.389,1.15 -0.927,2.518 -0.719,3.297 0.33,0.775 1.201,1.221 2.462,0.258 1.241,-0.739 2.071,-1.367 3.257,-2.259 1.965,-1.925 4.427,-3.667 7.279,-5.147 5.577,-2.705 13.205,-4.448 18.783,-0.815 -3.911,8.738 -6.727,15.186 -10.557,23.447 -0.592,1.368 -0.188,1.85 0.385,2.22 0.431,0.299 1.338,0.481 2.649,-0.223 3.004,-1.256 8.499,-7.37 10.632,-12.035 2.002,-4.372 3.905,-8.743 6.109,-13.666 l 8.149,0 -2.313,4.741 c 0,0 0.188,0.182 0.258,0.182 2.202,-1.965 7.892,-6.555 12.061,-5.557 2.406,0.445 3.424,3.227 3.277,5.263 2.645,-1.89 5.368,-4.26 9.275,-5.152 5.575,-1.367 7.78,2.483 6.148,6.261 -2.314,5.077 -6.591,15.298 -9.056,20.409 -0.351,0.517 -0.351,1.667 0,1.965 0.647,0.405 1.666,0 2.187,-0.299 2.777,-2.406 4.408,-3.961 6.5,-7.035 0.592,-5.411 3.555,-10.41 7.613,-14.559 4.331,-4.853 11.147,-8.555 17.725,-6.408 2.386,0.776 3.869,3.146 4.552,5.371 0.224,1.296 0.559,1.929 0.559,3.296 3.332,2.519 7.851,-1.59 9.761,-4.594 0.516,-1.292 1.054,-2.699 1.5,-3.627 1.944,0.112 5.738,0 8.052,0 l -10.09,23.185 c -0.724,1.408 -0.871,2.112 -0.871,3.222 0,0.78 0.943,0.962 1.925,0.78 2.781,-0.37 7.279,-5.926 9.56,-10.591 2.663,-5.634 5.166,-10.486 7.628,-16.265 l 8.354,0 c -3.313,7.745 -7.022,15.966 -9.762,22.079 -0.517,1.186 -1.313,2.406 -0.906,4.109 0.39,0.85 1.443,0.668 2.057,0.409 3.555,-2.112 9.665,-8.854 11.797,-13.037 2.184,-5.042 3.905,-8.709 6.164,-13.561 l 8.429,0 -2.057,4.852 c 3.11,-2.481 6.575,-5.182 10.668,-5.774 1.854,-0.299 4.129,-0.188 5.243,1.702 1.24,2.148 0.48,4.483 -0.501,6.52 -2.391,5.297 -4.964,11 -7.351,16.184 -0.354,1.261 -0.577,2.446 0.369,3.003 1.257,0.739 7.203,-2.852 10.091,-9.372 2.614,-5.738 4.356,-9.224 6.672,-14.745 l -4.356,0 1.24,-2.588 4.337,0 6.296,-13.449 8.408,0 -6.093,13.449 6.261,0 -1.15,2.588 -6.186,0 c -3.591,7.558 -6.555,13.895 -9.781,21.113 -1.088,2.446 -2.35,6.524 -1.737,9.005 0.446,1.368 2.238,1.702 3.724,1.221 4.777,-1.667 8.074,-5.78 10.87,-10.075 0.111,-0.519 2.63,-0.152 2.497,0.223 -3.292,6.483 -10.35,12.961 -17.277,12.851 -2.058,0 -4.26,-1.261 -5.391,-2.999 -0.719,-0.892 -0.941,-1.667 -1.221,-2.741 -0.516,-1.743 -0.368,-3.743 0,-5.633 -3.834,2.852 -7.277,6.225 -11.984,7.152 -2.052,0.33 -4.701,-0.446 -5.146,-2.669 -0.242,-1.631 -0.167,-3.632 0.445,-5.076 3.035,-6.444 5.572,-12.147 8.389,-18.853 0.147,-0.259 0,-1.409 -0.314,-1.556 -0.445,-0.404 -1.853,-0.404 -3.11,0.516 -5.651,4.301 -8.687,9.928 -11.148,15.673 -1.707,3.85 -3.597,7.7 -5.5,11.519 l -8.227,0 c 0.946,-2.371 2.355,-5.446 3.443,-7.962 0,-0.112 -0.181,-0.112 -0.181,0 -3.375,3.444 -7.781,7.258 -12.132,8.408 -1.667,0.441 -3.353,-0.111 -4.226,-1.743 -0.978,-1.52 -1.24,-3.89 -0.48,-5.926 0,-0.076 -0.111,-0.076 -0.239,0 -3.094,3.11 -6.018,5.926 -10.149,7.37 -4.743,1.408 -8.962,-1.849 -5.964,-8.707 0.761,-1.885 3.076,-7 5.649,-13.256 -2.112,0.927 -4.777,0.927 -6.148,0.516 -0.147,0 -0.147,0 -0.147,0.076 -1.854,8.777 -6.98,16.706 -14.948,20.409 -3.829,1.924 -8.221,2.37 -12.057,-0.259 -1.924,-1.297 -3.034,-4.26 -3.074,-6.889 -4.092,4.108 -8.646,9.184 -14.831,8.297 -0.947,-0.188 -1.667,-1.039 -2.188,-1.889 -1.409,-2.3 -0.573,-4.854 0.334,-6.854 2.928,-6.261 5.424,-12 8.429,-19.041 0.44,-0.888 -0.968,-1.667 -1.834,-1.187 -2.689,1.444 -4.741,2.893 -6.408,5.745 -1.094,1.257 -1.93,2.482 -2.467,4.037 -2.649,6.261 -5.685,12.147 -8.144,18.15 l -8.43,0 c 3.723,-8.484 7.313,-16.63 11.072,-25.19 0.355,-0.664 0.152,-1.813 -0.258,-2.107 -0.796,-0.334 -2.057,0.294 -2.998,0.81 -1.966,1.297 -3.759,3.227 -5.076,5.558 -1.48,2.334 -2.74,4.669 -3.724,7.187 l -6.296,13.742 -8.221,0 c 0.795,-1.818 2.386,-5.41 3.297,-7.258 0,-0.112 -0.207,-0.223 -0.207,-0.112 -4.499,3.627 -10.278,8.52 -14.406,7.705 -1.444,-0.112 -2.573,-1.333 -3.04,-2.594 -0.182,-1.555 -0.071,-3.003 0.278,-4.335 0,-0.259 -0.278,-0.259 -0.349,0 -3.667,3.444 -6.818,6.225 -11.336,7.299 -2.538,0.593 -4.964,-1.074 -5.835,-2.963 -1.145,-2.223 -1.444,-5.596 0.41,-9.483 1.089,-2.481 2.314,-5.111 3.834,-7.37 -0.872,0.517 -2.745,0.663 -3.981,0.517 -1.059,-0.147 -2.244,-0.926 -2.781,-1.702 -0.593,-0.815 -0.76,-2.188 -0.76,-3.151 0.167,-0.146 -0.37,-0.146 -0.628,0 -2.593,2.037 -3.647,4.336 -4.908,6.965 l -7.132,16.184 -8.409,0 3.186,-6.777 c 0.076,-0.182 0,-0.294 -0.182,-0.182 -4.336,3.85 -9.685,8.297 -13.854,7.481 -1.22,-0.223 -2.426,-1.484 -2.816,-2.593 -0.258,-1.444 -0.071,-3.04 0,-4.484 l -0.258,0 c -3.444,3.445 -6.742,6.261 -11.149,7.189 -2.613,0.815 -4.777,-0.705 -5.758,-2.852 -1.333,-3.187 -0.836,-6.337 0.258,-9.372 3.262,-8.408 9.224,-14.446 17.298,-18.964 5.107,-2.961 12.958,-3.888 18.571,-0.925 m -59.873,-36.855 c 24.076,1.072 38.335,12.926 38.335,25.706 0,22.703 -36.061,26.593 -36.061,26.593 -6.256,31.411 -31.223,43.452 -48.521,43.299 -23.204,-0.259 -22.834,-19 -22.075,-21.483 1.039,-2.776 2.538,-5.258 5.425,-5.258 2.853,0 5.319,2.371 5.319,5.258 0,1.855 -0.871,3.521 -2.466,4.332 -3.035,2.042 -2.386,4.265 -2.386,4.265 0,10.111 12.85,10.74 16.184,10.74 34.562,0 30.58,-56.855 61.099,-76.195 1.367,-0.851 2.406,0 1.611,1.039 -9.574,11.854 -13.095,31.117 -13.095,31.117 14.726,0 24.355,-14.077 24.355,-23.707 0,-16.705 -14.948,-23.706 -27.723,-23.706 -35.58,0 -51.023,24.891 -51.023,38.446 0,13.596 8.5,18.449 14.725,18.449 8.571,0 11.332,-5.745 10.278,-8.52 -1.707,-4.448 0.72,-8.15 3.333,-8.15 1.094,0 4.63,-0.147 4.63,6.114 0,5.926 -8.611,12 -17.982,12 -9.3,0 -22.875,-5.076 -22.875,-19.893 -0.002,-30.114 37.021,-41.596 58.913,-40.446 m 34.095,63.225 c 3.111,0 7.462,-5.48 9.889,-10.409 2.517,-5.293 3.834,-8.221 6.873,-14.923 0.147,-0.264 -0.111,-0.264 -0.466,-0.264 -3.52,0 -7.425,3.598 -9.888,6.52 -3.039,3.556 -7.78,10.374 -8.541,15.373 -0.536,2.594 0.761,3.703 2.133,3.703 m 134.268,4.665 c 3.445,1.784 7.685,-5.85 11.521,-12.851 3.722,-7 6.651,-15.738 3.539,-16.776 -3.539,-1.408 -8.037,5.333 -11.761,12.404 -3.759,7.078 -6.555,15.709 -3.299,17.223 m -78.558,-4.665 c 3.11,0 7.37,-5.48 9.867,-10.409 2.427,-5.293 3.667,-8.221 6.874,-14.923 0.112,-0.264 -0.208,-0.264 -0.501,-0.264 -3.5,0 -7.481,3.598 -9.943,6.52 -2.907,3.556 -7.856,10.374 -8.52,15.373 -0.503,2.594 0.627,3.703 2.223,3.703 m -31.71,112.235 c 0.795,-1.703 3.374,-6.966 3.187,-9.149 0,-0.409 -0.906,-1.073 -1.667,-0.262 -3.631,3.596 -11.184,16.559 -14,18.077 -6.372,3.075 -9.203,10.593 -10.981,13.555 -1.408,2.113 -3.207,5.703 -6.225,10.116 -2.63,3.885 -5.739,9.7 -6.869,11.7 -1.059,2.002 -1.555,3.926 0.537,3.926 2.112,0 0.405,3.298 -2.092,7.077 -1.373,2.188 -4.929,12.48 -6.002,15.332 -1.317,3.522 -1.054,7.928 -1.631,9.372 -0.48,1.407 -7.203,15.778 -8.904,18.965 -1.17,2.076 -0.872,2.852 -1.206,3.966 -0.649,1.444 0.035,1.737 1.206,0.699 1.256,-1.221 8.424,-12.147 10.612,-13.444 2.238,-1.407 4.184,-3.444 4.554,-8.186 0.279,-4.665 3.333,-5.926 5.724,-8.777 2.314,-2.705 5.425,-6.443 7.182,-10.298 1.505,-3.779 3.632,-0.922 7.279,-6.813 3.632,-5.927 11.95,-20.632 13.798,-23.519 1.874,-2.781 0.537,-6.966 0.278,-10.263 -0.09,-1.813 0.112,-6.22 1.242,-10.961 1.015,-4.114 2.925,-8.408 3.978,-11.113 m 226.205,80.447 c 0.537,-0.663 -0.906,-2.405 -1.777,-3.925 -0.796,-1.373 -5.906,-7 -6.777,-8.52 -0.928,-1.557 -7.482,-10.851 -9.797,-13.967 -4.133,-5.368 -0.335,-7.258 -2.579,-10.479 -0.865,-1.485 -6.107,-7.816 -12.292,-14.076 -3.061,-3.146 -6.562,-6.222 -9.635,-8.926 -4.89,-4.336 -8.611,-7.628 -9.094,-6.925 -0.795,0.816 2.002,4.22 3.223,5.739 1.24,1.556 3.115,4.295 5.688,7.37 4.24,5.04 0.334,8.667 4.371,12.669 0.552,0.629 11.59,12.927 14.224,15.227 4.092,3.556 18.353,20.479 19.405,21.406 1.555,1.521 4.484,5.036 5.04,4.407 m 27.743,64.377 c 0,8.408 6.742,14.633 14.741,14.633 7.963,0 14.835,-6.225 14.835,-14.633 0,-8.444 -6.872,-14.594 -14.835,-14.594 -7.999,0 -14.741,6.15 -14.741,14.594 m 26.65,0 c 0,6.964 -5.258,12.222 -11.908,12.222 -6.703,0 -11.909,-5.258 -11.909,-12.222 0,-7.001 5.206,-12.224 11.909,-12.224 6.65,0 11.908,5.223 11.908,12.224 M 388.475,413.366 c 4.017,6.52 5.041,5.263 6.63,5.374 3.759,0.111 12.077,8.995 13.778,11.443 1.555,2.481 14.947,15.854 18.464,19.041 1.521,1.443 12.021,18.63 13.428,17.368 1.444,-1.15 -4.058,-9.482 -4.924,-11.332 -0.724,-1.817 -3.799,-4.593 -5.317,-8.372 -1.445,-3.89 -7.705,-13.484 -9.741,-16.519 -2.016,-3.109 -5.313,-9.816 -8.91,-14.188 -3.39,-3.814 -0.644,-4.854 -4.184,-8.15 -2.037,-1.885 -8.611,-7.74 -9.999,-9.037 -1.409,-1.109 -6.723,-5.814 -9.838,-8.444 -2.907,-2.669 -10.201,-7.669 -9.963,-10.854 0.111,-3.257 -1.479,-9.553 -3.83,-11.701 -1.797,-1.408 -7.021,-9.857 -12.982,-14.634 -2.983,-2.552 -9.32,-9.148 -14.223,-14.928 -4.706,-5.37 -8.187,-10.516 -9.209,-9.776 -1.479,1.038 5.373,10.668 6.093,11.741 0.725,1.186 8.688,15.039 9.481,18.667 0.872,3.632 15.633,28.746 18.965,36.562 1.874,4.519 11.909,10.627 16.281,17.739 M 297.45,343.397 c 1.311,3.779 6.108,26.558 7.501,31.188 1.443,4.705 2.924,4.964 3.724,6.741 2.812,7.152 6.833,7.37 8.94,7.963 5.855,1.708 6.261,9.595 10.096,16.559 3.373,6.591 6.762,12.481 9.739,19.593 3.11,7.147 18.783,45.857 21.448,51.743 0.981,2.112 8.408,2.112 7.572,0 -1.884,-4.22 -6.185,-14.963 -8.793,-25.591 -1.777,-7 4.74,-2.112 0.608,-13.078 -1.871,-5.218 -5.498,-10.222 -7.518,-12.222 -2.112,-2.113 -4.093,-10.815 -5.796,-14.776 -1.595,-3.819 -0.76,-4.037 -4.244,-13.262 -2.553,-6.707 4.685,-4.406 0.558,-14.929 -2.609,-6.741 -16.038,-31.221 -17.558,-33.558 -0.794,-1.479 -3.367,-5.633 -6.554,-10.702 -3.004,-4.741 -5.501,-9.894 -6.909,-12.041 -2.817,-4.442 -8.004,-14.335 -10.814,-18.406 -2.908,-4.114 -6.483,-13.075 -7.963,-11.561 -1.408,1.337 4.367,14.821 6.757,23.412 2.462,8.592 0.613,12.035 -0.795,14.558 -1.519,2.372 -1.519,3.963 10e-4,8.369 m -1.869,-245.315 12.069,-7.183 10.354,9.331 -2.999,-13.666 12.021,-7.335 -13.985,-1.408 -2.775,-13.443 -5.577,12.634 -13.925,-1.339 10.555,9.482 -5.738,12.927 z m 221.199,158.46 11.394,8.149 -4.301,13.222 11.393,-8.48 11.594,8.186 -4.428,-13.372 11.113,-8.075 -13.818,0.183 -4.314,-13.332 -4.443,13.52 -14.19,0 z m 34.025,36.521 -6.895,12.405 -13.889,-2.739 9.595,10.114 -6.743,12.218 12.709,-6.072 9.923,10.115 -1.777,-13.931 12.522,-5.737 -13.576,-2.595 -1.869,-13.778 z m -377.568,85.154 c -1.15,-0.926 -14.315,12.634 -23.002,22.041 -3.095,3.256 -5.076,6.366 -6.169,7.815 0,0 -3.941,6.371 -5.962,9.037 -2.036,2.629 -7.168,10.15 -9.406,13.33 -0.801,1.187 -2.796,5.928 -6.818,10.893 -1.945,2.445 -3.87,5.632 -7.669,10.555 -5.126,6.631 -9.148,12.076 -8.146,12.704 0.516,0.411 8.04,-8.666 16.073,-18.519 3.373,-4.038 7.097,-8.333 10.095,-12.334 1.555,-1.926 4.964,-5.146 6.129,-6.854 1.98,-2.852 4.184,-5.076 5.055,-5.775 4.518,-3.667 7.021,-4 8.374,-6.037 0.851,-1.039 9.608,-14.521 12.871,-20.039 3.149,-5.115 10.388,-15.262 8.575,-16.817 m 345.711,87.935 2.609,13.889 6.149,-12.633 13.65,1.966 -9.928,-9.412 5.982,-12.593 -12.502,6.555 -10.241,-9.887 2.613,13.742 -12.335,6.555 14.003,1.818 z m 27.152,-47.34 13.854,-0.705 -11.615,-7.404 3.575,-13.597 -11.072,8.966 -11.874,-7.779 5.111,13.037 -10.961,8.819 14.224,-0.855 5.236,13.073 3.522,-13.555 z m 9.405,-59.818 1.004,-13.93 -9.224,10.854 -13.13,-5.299 7.441,11.671 -8.926,10.78 13.743,-3.557 7.571,11.889 1.005,-14.041 13.388,-3.333 -12.872,-5.034 z M 343.154,105.01 l 13.191,-4.781 8.312,11.189 -0.314,-14.112 13.317,-4.853 -13.464,-4.078 -0.259,-13.7 -7.779,11.259 -13.353,-4.001 8.464,11.407 -8.115,11.67 z m 164.611,114.676 -1.779,13.89 9.702,-10.369 12.82,5.627 -6.95,-12.188 9.522,-9.888 -13.463,2.558 -6.889,-12.188 -1.798,14.147 -13.911,2.67 12.746,5.741 z m -105.679,-100.974 6.149,12.522 2.279,-13.889 14.001,-2.225 -12.411,-6.594 2.427,-13.591 -9.868,9.776 -12.354,-6.519 6.072,12.815 -10.095,9.816 13.8,-2.111 z m 63.545,57.6 13.574,3.187 0.907,13.889 7.39,-12.041 13.813,3.15 -9.037,-10.667 7.26,-11.631 -12.76,5.223 -9.016,-10.667 0.865,14.188 -12.996,5.369 z m -22.04,-30.891 3.592,13.556 5.021,-13.226 14.021,0.41 -10.87,-8.813 4.959,-12.78 -11.534,7.664 -10.875,-8.814 3.555,13.817 -11.867,7.588 13.998,0.598 z m -405.236,85.597 13.038,-5.703 9.442,10.484 -1.666,-13.818 12.871,-5.704 -13.889,-2.852 -1.778,-14.037 -6.944,12.223 -13.465,-2.963 9.295,10.187 -6.904,12.183 z m -15.744,190.275 3.445,13.485 5.39,-13.115 14.188,0.968 -10.819,-8.783 5.208,-12.927 -11.945,7.521 -10.966,-8.855 3.445,13.598 -11.667,7.257 13.721,0.851 z m 178.384,-309.17 8.408,-11.042 13.206,4.741 -8.075,-11.702 8.5,-11.225 -13.352,3.892 -7.705,-11.448 -0.502,13.783 -13.352,3.885 13.317,4.964 -0.445,14.152 z m -45.558,6.332 2.244,13.93 6.185,-12.523 13.723,2.189 -10.096,-9.928 6.19,-12.745 -12.446,6.484 -9.67,-9.74 2.239,13.554 -12.445,6.484 14.076,2.295 z m -41.333,28.816 4.888,13.336 3.591,-13.559 14.001,-0.406 -11.797,-7.892 3.688,-13.666 -11.002,8.667 -11.408,-7.67 4.777,12.928 -11.002,8.595 14.264,-0.333 z m -66.621,335.1 2.852,-13.925 14,-1.596 -12.334,-6.7 2.669,-13.743 -10.167,9.705 -12.556,-6.631 5.982,12.74 -10.075,9.336 13.61,-1.702 6.019,12.516 z m 200.093,-381.878 10.46,-9.3 12.02,7.299 -5.647,-13.039 10.429,-9.517 -13.874,1.297 -5.314,-12.674 -3.11,13.414 -13.93,1.368 12.152,7.334 -3.186,13.818 z m -168.572,82.782 7.299,12.077 1.054,-13.931 13.611,-3.074 -12.998,-5.446 0.907,-14.077 -9.189,10.633 -12.517,-5.37 7.056,11.707 -9.021,10.555 13.798,-3.074 z m -58.52,96.638 11.686,-8.003 11.332,8.409 -4.315,-13.222 11.539,-8.002 -14.224,-0.147 -4.332,-13.408 -4.63,13.262 -13.575,-0.259 10.926,8.186 -4.407,13.184 z m -8.261,51.784 10.054,-10.298 12.669,6.22 -6.763,-12.258 9.746,-9.965 -13.91,2.482 -6.797,-12.334 -1.965,13.891 -13.534,2.335 12.39,6.073 -1.89,13.854 z m 1.889,52.149 7.852,-11.849 13.651,3.739 -8.91,-10.815 7.593,-11.63 -13.095,5.069 -9.128,-10.814 0.664,14.037 -12.739,4.929 13.317,3.443 0.795,13.891 z" /></g>
</svg>