<?xml version="1.0" encoding="utf-8"?>
<!-- Generator: Adobe Illustrator 22.1.0, SVG Export Plug-In . SVG Version: 6.00 Build 0)  -->
<!DOCTYPE svg PUBLIC "-//W3C//DTD SVG 1.1//EN" "http://www.w3.org/Graphics/SVG/1.1/DTD/svg11.dtd">
<svg version="1.1"
	 id="svg4841" xmlns:cc="http://creativecommons.org/ns#" xmlns:dc="http://purl.org/dc/elements/1.1/" xmlns:rdf="http://www.w3.org/1999/02/22-rdf-syntax-ns#" xmlns:svg="http://www.w3.org/2000/svg"
	 xmlns="http://www.w3.org/2000/svg" xmlns:xlink="http://www.w3.org/1999/xlink" x="0px" y="0px" viewBox="0 0 934 144.3"
	 style="enable-background:new 0 0 934 144.3;" xml:space="preserve">
<style type="text/css">
	.st0{clip-path:url(#SVGID_2_);}
</style>
<g id="g4176" transform="matrix(8.9087,0,0,1.3761,53.066,362.52)">
	<g id="g4178" transform="scale(0.19532,1.2666)">
		<g id="g4188">
			<g id="g4190">
			</g>
		</g>
		<g id="g4180">
			<g id="g4186">
				<g id="g4192">
					<g>
						<defs>
							<polyline id="SVGID_1_" points="-30.5,-208 -30.5,-125.2 506.3,-125.2 506.3,-208 							"/>
						</defs>
						<clipPath id="SVGID_2_">
							<use xlink:href="#SVGID_1_"  style="overflow:visible;"/>
						</clipPath>
						<g id="g4194" class="st0">
							<path id="path4200" d="M71.4-207.3L71.4-207.3v70.7c0,5.6,3.3,9.6,10.5,9.6h11.3v-80.3H71.4L71.4-207.3z M448.3-149.7
								L448.3-149.7c0,0-13.8-39.2-16.3-46.5c-1.6-5-4-11.2-15.3-11.2h-25.6v80.4h8.5c6.7,0,10.7-2.9,10.7-9.7v-56.2h0.4l24.9,65.8
								h23.3l24.9-65.8h0.4v56.2c0,5.6,3.1,9.6,10.7,9.6h10.7v-80.2h-23.6c-8.5,0-13.8,2.4-16.3,9.9c-1.8,5-16.7,47.8-16.7,47.8
								L448.3-149.7L448.3-149.7z M16-149L16-149c0,0-18.7-48.7-19.8-51.5c-1.5-3.8-3.5-6.8-10.5-6.8h-16.2l33.2,80.3h24.2
								l34.5-80.3H47.1c-6.2,0-8.5,2.5-10,6.5L16.4-149H16L16-149z M254.6-190.5L254.6-190.5h11.1c8,0,12.7-2.9,12.7-10.1v-6.8
								h-31.6c-26.3,0-39.1,15.5-39.1,40.2c0,30.7,19.3,40.2,39.1,40.2h31.6v-6.8c0-7.1-4.9-9.9-12.2-9.9h-11.6
								c-12.5,0-24.2-4.5-24.2-23.3C230.4-183.4,239.3-190.5,254.6-190.5z M169.9-157.2L169.9-157.2c0,7.9-3.6,14.3-14.5,14.3h-11.5
								c-8,0-12.7-2.2-12.7-8.5c0-6.1,4.4-8.6,12.7-8.6h26V-157.2L169.9-157.2z M159.4-207.3L159.4-207.3h-44.7v6.1
								c0,5.4,2.9,10.7,10.5,10.7c3.5,0,28.5,0,28.5,0c12,0,16.2,4,16.2,13.3v1.4h-30.2c-22.5,0-30.7,10.3-30.7,24.2
								c0,16.9,11.5,24.5,30.7,24.5h20c26.3,0,32-13.2,32-30.3v-19.9C191.9-195.9,184.8-207.3,159.4-207.3z M329.5-143.1
								L329.5-143.1c14.2,0,22.5-9.7,22.5-24.2c0-15.3-8.9-24.2-22.5-24.2c-14.5,0-22.7,9.6-22.7,24.2
								C306.7-153.3,314.7-143.1,329.5-143.1z M329.5-208.1L329.5-208.1c26.5,0,45.4,14.3,45.4,41.1c0,25.6-17.4,41.1-45.4,41.1
								c-27.3,0-45.4-15-45.4-41.1C284-193,302-208.1,329.5-208.1L329.5-208.1z"/>
						</g>
					</g>
				</g>
			</g>
		</g>
	</g>
</g>
</svg>
