<?xml version="1.0" encoding="utf-8"?>
<!-- Generator: Adobe Illustrator 22.1.0, SVG Export Plug-In . SVG Version: 6.00 Build 0)  -->
<!DOCTYPE svg PUBLIC "-//W3C//DTD SVG 1.1//EN" "http://www.w3.org/Graphics/SVG/1.1/DTD/svg11.dtd">
<svg version="1.1"
	 id="svg2" xmlns:cc="http://creativecommons.org/ns#" xmlns:dc="http://purl.org/dc/elements/1.1/" xmlns:rdf="http://www.w3.org/1999/02/22-rdf-syntax-ns#" xmlns:svg="http://www.w3.org/2000/svg"
	 xmlns="http://www.w3.org/2000/svg" xmlns:xlink="http://www.w3.org/1999/xlink" x="0px" y="0px" viewBox="0 0 450 450"
	 style="enable-background:new 0 0 450 450;" xml:space="preserve">
<style type="text/css">
	.st0{filter:url(#filter4197);}
	.st1{fill:#182756;}
	.st2{fill-opacity:0.502;}
	.st3{fill:#FFFFFF;stroke:#000000;stroke-width:0.2;stroke-miterlimit:10;}
</style>
<filter  color-interpolation-filters="sRGB" height="1.1107692" id="filter4197" width="1.2057143" x="-0.10285715" y="-0.055384614">
	<feGaussianBlur  id="feGaussianBlur4199" stdDeviation="2.5899841"></feGaussianBlur>
</filter>
<g id="layer2">
	<ellipse id="ellipse106" cx="225" cy="225" rx="213.7" ry="213.7"/>
	<g id="path4167" class="st0">
		<polygon class="st1" points="227.9,278.3 235.2,292.8 202.9,357.1 257.3,357.6 266.8,370.7 186.8,364.5 		"/>
	</g>
	<path id="path110" class="st2" d="M51.7,233.3c0-98.6,80-178.6,178.6-178.6c98.6,0,178.6,80,178.6,178.6s-80,178.6-178.6,178.6
		C131.7,411.8,51.7,331.8,51.7,233.3z M273.3,375.7l-9.1-20.5L230.6,286L197,355l-9.3,20.9c13.5,4,27.7,6.2,42.5,6.2
		C245.2,382,259.7,379.8,273.3,375.7L273.3,375.7z M166.6,367.8l-79-177c-4,13.5-6.2,27.7-6.2,42.5
		C81.5,292.6,116.3,343.9,166.6,367.8z M379,233.3c0-14.3-2-28.2-5.8-41.3L295,367.2C344.7,343.2,379,292.2,379,233.3L379,233.3z
		 M284.6,306.1l66.3-159.9c-11.4-15.8-25.9-29.3-42.6-39.6L253.8,226h-46.5l-54.6-119.7c-16.6,10.2-31,23.5-42.5,39.1l66.5,160.4
		l30.3-67.8l0.4,0l0,0h0.2l46.5-0.3l-0.3,0.6h0.6L284.6,306.1z M230.5,177.6l41.3-87.2c-13.2-3.8-27.1-5.9-41.6-5.9
		c-14.2,0-28,2-41,5.7L230.5,177.6L230.5,177.6z"/>
	<path id="path3243" class="st3" d="M42,225c0-101,82-183,183-183C326,42,408,124,408,225C408,326,326,408,225,408
		C124,408,42,326,42,225z M269.1,370.9l-9.3-21l-34.5-71L191,349.7l-9.5,21.4c13.8,4.1,28.4,6.3,43.5,6.3
		C240.3,377.4,255.1,375.2,269.1,370.9L269.1,370.9z M159.8,362.8L78.9,181.5c-4.1,13.8-6.3,28.4-6.3,43.5
		C72.6,285.8,108.3,338.4,159.8,362.8z M377.4,225c0-14.7-2.1-28.9-5.9-42.3l-80.2,179.5C342.3,337.6,377.4,285.4,377.4,225
		L377.4,225z M279.4,313.3l74.9-166.1c-11.7-16.2-37-48.2-54.1-58.8L241,223h-27.4L154.3,86.2c-17,10.4-46,37.5-57.7,53.6
		l77.6,176.5c13-27.9,26.8-57.6,39.8-85.5c0-0.4,25.7,0.4,23.8-0.1L279.4,313.3z M225.3,168l42.3-89.3c-13.5-3.9-27.8-6-42.6-6
		c-14.6,0-28.7,2.1-42,5.9L225.3,168z"/>
</g>
</svg>
