<?xml version="1.0" encoding="utf-8"?>
<!-- Generator: Adobe Illustrator 16.0.0, SVG Export Plug-In . SVG Version: 6.00 Build 0)  -->
<!DOCTYPE svg PUBLIC "-//W3C//DTD SVG 1.1//EN" "http://www.w3.org/Graphics/SVG/1.1/DTD/svg11.dtd">
<svg version="1.1" id="Layer_1" xmlns="http://www.w3.org/2000/svg" xmlns:xlink="http://www.w3.org/1999/xlink" x="0px" y="0px"
	 width="958.225px" height="1000px" viewBox="0 0 958.225 1000" enable-background="new 0 0 958.225 1000" xml:space="preserve">
<path d="M955.068,185.139c-8.24-6.138-74.324-18.935-88.543-22.595c-3.5-3.539-18.574-34.113-20.914-41.231
	c-4.198-2.419-71.164-15.936-87.602-19.676c-3.979-5.779-15.937-42.511-21.733-54.448C710.898,34.052,505.166,5.219,481.31,0
	c-23.474,4.859-229.889,30.113-255.604,42.911c-6.179,11.658-18.635,48.189-22.696,54.028c-16.475,3.379-83.821,15.817-88,18.236
	c-2.398,7.079-18.115,37.192-21.655,40.731c-14.276,3.54-80.541,15.236-88.899,20.996c-4.979,28.293-25.035,312.071,91.68,498.791
	C212.648,862.414,418.423,987.566,472.673,1000h0.238c54.59-11.414,262.243-133.01,382.158-317.707
	C974.942,497.333,959.586,213.434,955.068,185.139z M803.859,658.197C726.516,777.451,606.962,865.83,531.937,906.962
	c-24.973,13.676-44.907,22.154-57.425,24.795h-0.082l-1.179,0.32l-0.918-0.32c-12.419-2.723-32.274-11.58-57.147-25.814
	c-24.737-13.998-54.43-33.512-85.583-57.75c-62.646-48.207-131.811-115.295-182.102-195.596
	c-69.924-111.955-82.78-263.162-82.78-353.583c0-20.016,0.639-36.992,1.4-49.949c0.897-13.097,1.778-21.915,2.458-25.954l0.279-1.78
	l1.582-1.06c1.758-1.28,3.538-1.9,6.057-2.839c2.381-0.82,5.34-1.78,8.639-2.4c6.64-1.76,14.817-3.7,23.215-5.419
	c15.418-3.259,31.395-6.359,38.192-7.918c0.4-0.46,0.839-1.16,1.36-2.1c1.117-1.8,2.479-4.08,3.898-6.798
	c2.839-5.099,5.979-11.397,8.398-16.136c1.52-3.259,2.679-5.979,2.938-7.079l0.66-1.7l1.499-0.74c0.92-0.52,1.42-0.58,2.18-0.939
	c0.801-0.12,1.68-0.42,2.699-0.7c2.04-0.5,4.699-1.16,7.818-1.7c6.039-1.439,14.016-2.959,22.376-4.719
	c15.237-2.94,31.554-6.098,39.532-7.739c0.078-0.18,0.299-0.46,0.418-0.76c0.521-1.259,1.281-2.879,1.98-4.758
	c1.56-3.64,3.398-8.378,5.279-13.317c3.76-9.598,7.736-19.976,10.518-25.395l0.621-1.439l1.459-0.58
	c2.638-1.28,6.178-2.36,10.837-3.639c4.7-1.26,10.296-2.42,16.857-3.779c12.997-2.64,29.473-5.439,47.088-8.238
	c35.354-5.639,76.003-11.318,105.559-15.397c19.753-2.839,34.551-5.059,39.331-5.978l0.959-0.12l0.98,0.24
	c4.04,0.799,16.016,2.858,32.013,5.358c16.076,2.6,36.411,5.819,57.626,9.139c42.672,6.918,88.902,14.836,113.496,20.895
	c7.04,1.92,12.258,3.399,15.718,5.259l1.319,0.62l0.699,1.399c2.439,4.979,5.599,13.337,8.697,22.115
	c3.18,8.638,6.38,17.176,8.479,21.656c0.08,0.34,0.16,0.54,0.34,0.86c11.6,2.559,40.272,8.498,58.069,12.537
	c6.456,1.52,11.314,2.66,13.954,3.539c0.781,0.32,1.223,0.4,2.18,0.98l1.479,0.82l0.539,1.54c0.32,1.019,1.184,3.238,2.422,5.878
	c1.237,2.639,2.761,5.798,4.358,9.018c3.179,6.458,6.838,13.297,9.018,16.756c0.141,0.34,0.301,0.5,0.461,0.959
	c5.939,1.32,18.577,4.079,31.871,7.039c14.54,3.199,29.537,6.779,37.934,9.759c2.479,0.939,4.28,1.679,5.979,2.839l1.437,1.16
	l0.441,1.799c0.379,3.539,1.082,10.597,1.621,20.875c0.621,10.017,0.98,23.395,0.98,39.091
	C892.8,377.778,880.201,540.642,803.859,658.197z M766.328,261.123c-107.676-84.261-231.049-105.957-245.485-109.776
	c-14.278-3.839-16.418,3.62-16.598,6.239c-3.26,227.111-4.378,467.877-8.099,701.328c1.42,7.377,13.398-3.82,20.137-7.459
	c86.522-46.65,357.482-304.273,203.715-398.932C838.933,376.297,818.437,301.894,766.328,261.123z M649.294,631.062
	c-16.137,27.832-44.592,60.088-59.947,76.564c-5.159,5.518-8.779,9.256-10.178,10.416l-1.061,1.18l-1.4,0.082l-6.518,7.217
	l0.301-12.197c0.238-12.977,0.479-51.309,0.938-90.5c0.402-39.252,0.98-79.684,1.94-97.498l0.16-2.799l2.379-1.199
	c0.061,0,1.04-0.5,2.28-1.082c1.32-0.779,3-1.801,5.058-2.918c4.12-2.063,9.6-4.721,15.938-7.58
	c12.597-5.377,28.454-10.697,43.689-10.697c5.518,0,11.036,0.699,16.176,2.599c5.159,1.84,9.857,4.719,13.897,8.879
	c0,0,0.08,0.1,0.08,0.26h0.08c1.72,1.639,4.819,4.938,7.398,10.178c2.719,5.457,4.919,12.996,4.919,22.654
	C685.404,563.658,677.226,591.41,649.294,631.062z M716.338,357.822c-4.899,6.738-11.497,12.437-18.816,17.416
	c-5.979,3.938-25.975,17.855-47.489,32.532c-21.694,14.737-45.01,30.134-58.546,37.172c-3.88,2.101-6.838,3.56-9.561,4.28
	l-5.519,1.238l-0.118-5.678v-3.218c0-23.555,1.278-144.989,2.798-197.317l0.121-2.679l2.479-1.12c1.199-0.58,1.719-0.58,2.141-0.58
	c0.66,0,1.059,0.14,1.438,0.18l1.158,0.4c0.781,0.16,1.801,0.38,2.922,0.86c2.378,0.779,5.479,1.899,9.217,3.259
	c7.539,2.879,17.637,6.958,28.673,11.698c22.315,9.798,48.669,22.655,67.806,35.952c10.219,7.119,17.477,14.276,22.216,21.375
	c4.798,7.158,7.078,14.457,7.078,21.455C724.336,343.564,721.158,351.223,716.338,357.822z M461.054,149.328
	c-16.297-0.54-69.645,5.838-80.242,11.237c-1.021,20.417,3.92,402.712-1.599,446.083c-36.574-91.318-47.211-331.568-39.073-430.646
	c-20.176,3.919-69.646,23.275-76.684,30.114c-9.356,18.276,1.32,218.032,13.738,284.996c-4.52,6.879-17.314,25.736-19.436,28.654
	c-25.193-46.33-48.39-188.677-39.952-290.115c-7.14,2.979-67.724,40.851-73.843,46.91c-2.16,53.628,10.938,198.036,63.005,311.432
	c6.499,14.158,13.618,27.674,21.417,39.813c14.677,26.033,15.655,24.092,33.431-0.621c12.337-16.416,30.056-40.432,34.555-45.49
	c5.858,20.215,44.029,146.549,98.416,223.271c24.155,34.051,61.308,66.146,61.269,53.008
	C455.857,729.162,456.696,171.962,461.054,149.328z"/>
</svg>
