<?xml version="1.0" encoding="utf-8"?>
<!-- Generator: Adobe Illustrator 22.1.0, SVG Export Plug-In . SVG Version: 6.00 Build 0)  -->
<!DOCTYPE svg PUBLIC "-//W3C//DTD SVG 1.1//EN" "http://www.w3.org/Graphics/SVG/1.1/DTD/svg11.dtd">
<svg version="1.1"
	 id="svg3647" inkscape:version="0.48.5 r10040" sodipodi:docname="A.svg" xmlns:cc="http://creativecommons.org/ns#" xmlns:dc="http://purl.org/dc/elements/1.1/" xmlns:inkscape="http://www.inkscape.org/namespaces/inkscape" xmlns:rdf="http://www.w3.org/1999/02/22-rdf-syntax-ns#" xmlns:sodipodi="http://sodipodi.sourceforge.net/DTD/sodipodi-0.dtd" xmlns:svg="http://www.w3.org/2000/svg"
	 xmlns="http://www.w3.org/2000/svg" xmlns:xlink="http://www.w3.org/1999/xlink" x="0px" y="0px" viewBox="0 0 1000 355.6"
	 style="enable-background:new 0 0 1000 355.6;" xml:space="preserve">
<style type="text/css">
	.st0{fill:#FFFFFF;}
</style>
<sodipodi:namedview  bordercolor="#666666" borderopacity="1.0" fit-margin-bottom="0.5" fit-margin-left="0.5" fit-margin-right="0.5" fit-margin-top="0.5" id="base" inkscape:current-layer="layer1" inkscape:cx="831.25438" inkscape:cy="473.0343" inkscape:document-units="px" inkscape:pageopacity="0.0" inkscape:pageshadow="2" inkscape:window-height="1025" inkscape:window-maximized="0" inkscape:window-width="1024" inkscape:window-x="890" inkscape:window-y="-7" inkscape:zoom="0.40023349" pagecolor="#ffffff" showgrid="true">
	
		<inkscape:grid  empspacing="5" enabled="true" id="grid26491" originx="22.5px" originy="654.50001px" snapvisiblegridlinesonly="true" type="xygrid" visible="true">
		</inkscape:grid>
</sodipodi:namedview>
<g id="layer1" transform="translate(-1313.7026,984.02345)" inkscape:groupmode="layer" inkscape:label="Layer 1">
	<path id="path26493" inkscape:connector-curvature="0" d="M1314.2-629v-354.6h999V-629H1314.2z"/>
	<g id="g26404" transform="matrix(0,25.479575,25.479575,0,2137.815,-846.15579)">
		<path id="path26406" inkscape:connector-curvature="0" class="st0" d="M0,0c0,0.3,0.1,0.7,0.3,0.9h2c0.3-0.2,0.5-0.6,0.5-1
			c0-0.4-0.4-0.8-1.3-0.8C0.6-0.9,0-0.7,0,0z M3.7,2.1h-4.6V1l0.3,0C-0.8,0.7-1,0.2-1-0.2c0-1.3,1-1.9,2.5-1.9
			c1.3,0,2.4,0.7,2.4,1.8c0,0.4-0.2,0.9-0.6,1.2l0.5,0.1C3.7,0.9,3.7,2.1,3.7,2.1z M0-4.7C0-4.4,0.1-4,0.3-3.8h1.8
			c0.3-0.2,0.5-0.6,0.5-1c0-0.4-0.3-0.8-1.2-0.8C0.5-5.6,0-5.4,0-4.7z M5.1-6.3c0.1,0.3,0.2,0.8,0.2,1.6c0,1.4-0.8,2-2.3,2h-4v-1.1
			l0.3,0C-0.8-4-1-4.5-1-4.9c0-1.3,0.9-1.9,2.4-1.9c1.3,0,2.3,0.7,2.3,1.8c0,0.4-0.2,0.9-0.6,1.2h0.3c0.6,0,1-0.3,1-1
			c0-0.6-0.1-0.9-0.2-1.2L5.1-6.3L5.1-6.3z M3.7-7.3H0.5c-1,0-1.5-0.6-1.5-1.4c0-0.7,0.3-1.2,0.7-1.5l-0.7-0.1v-1.1h4.6v1.2h-3
			C0.3-9.9,0.1-9.5,0.1-9.1c0,0.4,0.2,0.6,0.8,0.6h2.9V-7.3L3.7-7.3z M5.3-14.2l-6.2,2.5v-1.2l3-1.1l-3-1.1v-1.3l4.4,1.7l1.8-0.8
			L5.3-14.2L5.3-14.2z M3.7-16.5l-1,0.2v-2.5l-3.6,2.2v-4l1-0.2v2.2l3.6-2.4V-16.5"/>
	</g>
	<g id="g26408" transform="matrix(0,10.683951,10.683951,0,2213.3326,-761.27817)">
		<path id="path26410" inkscape:connector-curvature="0" class="st0" d="M0,0v0.2c0,0.1,0,0.3-0.2,0.3c-0.1,0-0.2-0.1-0.2-0.2V0H0z
			 M-0.5-0.2v0.4c0,0.3,0.1,0.4,0.3,0.4c0.2,0,0.3-0.1,0.3-0.3l0.5,0.3V0.5L0.1,0.2V0h0.5v-0.2C0.6-0.2-0.5-0.2-0.5-0.2z M0.8,0.2
			c0,0.4-0.3,0.7-0.8,0.7c-0.4,0-0.8-0.3-0.8-0.7c0-0.4,0.3-0.7,0.8-0.7C0.5-0.6,0.8-0.2,0.8,0.2z M-0.8,0.2c0,0.5,0.4,0.9,0.9,0.9
			C0.6,1.1,1,0.7,1,0.2c0-0.5-0.4-0.9-0.9-0.9C-0.5-0.7-0.8-0.3-0.8,0.2"/>
	</g>
	<g id="g26412" transform="matrix(8.0827411,0,0,-8.0827411,1544.2291,-903.72116)">
		<path id="path26414" inkscape:connector-curvature="0" class="st0" d="M0,0c0.3,0.4,0.9,0.8,1.6,0.2C2.3-0.5,2.9-1,2.7-1.2
			c-0.1-0.1-0.4,0-0.6,0.1C1.8-1.2,1.7-1.4,1.6-1.6C1.5-1.9,1.4-2.3,1.3-2.3c0.2-0.8,0.1-2.4-0.2-2.9l0-0.9c0.8-1.4,1.3-5.1,0.3-6.8
			c0,0,0-2.2-0.4-3.2c0,0-0.5-2.1-0.3-3.2c0.2-0.1,0.8-0.4,0.9-0.6c0.1-0.2,0.1-0.5,0.1-0.6c-0.3-0.5-1.7-0.5-2.4,0
			c-0.1,0.5,0.1,2.3,0,3.3c-0.1,1.1-0.2,1.5-0.4,2.9c-0.9-0.2-1.9-0.3-3-0.2c-0.3-1.2-0.8-3-0.8-4c0-0.8-0.1-3-0.1-3
			c0-0.2,0.2-0.4,0.2-0.6c0-0.2,0.1-0.5,0-0.7c-0.4-0.7-2-0.6-2.3,0c0,0.2,0,0.6,0.1,0.7c0.1,0.2,0.5,0.4,0.5,0.6
			c0.1,0.8,0.2,3.6,0,4.2c-0.3,0.6-0.5,2.2-0.6,3.6c-0.2,0.1-1,0.5-1.8,1.1c-0.3-0.9-0.9-1.4-0.9-1.4l0.3-1.3c0.2,0,0.8-0.3,0.9-0.4
			c0.1-0.2,0.1-0.4,0.1-0.5c-0.2-0.3-1.4-0.3-1.7,0l-0.9,2.6c0,0,0.3,0.9,0.2,2c-2.7-0.3-3.5-3.7-3.8-5.3l0.1-0.2v-0.4
			c-0.3-0.4-1.5-0.4-1.8,0c0,0.1,0,0.3,0.1,0.5c0.1,0.1,0.5,0.5,0.6,0.5l0.6,2.3c0.1,2.6,0.8,5.1,1.8,6.4c-1.5,1.8-1.3,3.9-0.1,4.9
			c0.1,0.1,0.3,0.2,0.4,0.2c0.1-0.1,0.1-0.1-0.1-0.3c-0.8-1.2-0.7-2.9,0.9-3.8c1.8,1.1,6.9,1.3,6.9,1.3L-5-5
			c-0.1,0.2-0.3,1.1-0.2,1.5c-0.1,0-0.2,0.2-0.4,0.4c-0.2,0.2-0.5,0.2-0.5,0.3c-0.6-0.7-0.4,0.2-0.3,0.5c0.1,0.7,0.2,1.6,1.3,1.7
			c0.2,0,0.7,0,0.9-0.2c0.2,0.3,1.7,0.6,1.9,0.5C-2.1,0.1-0.1,0.1,0,0"/>
	</g>
</g>
</svg>
